  0
SECTION
  2
HEADER
  9
$ACADVER
  1
AC1009
  0
ENDSEC
  0
SECTION
  2
ENTITIES
  0
POLYLINE
  5
90
  8
Layer_0
  62
0
  66
1
  10
0
  20
0
  30
0
  0
VERTEX
  5
90
  8
Layer_0
  10
601.97055
  20
403.66565
  42
0.19903869
  0
VERTEX
  5
91
  8
Layer_0
  10
601.64836
  20
404.44347
  42
0.19264344
  0
VERTEX
  5
92
  8
Layer_0
  10
600.89787
  20
404.76531
  0
VERTEX
  5
93
  8
Layer_0
  10
600.87056
  20
404.76565
  42
0.038340796
  0
VERTEX
  5
94
  8
Layer_0
  10
600.70613
  20
404.75333
  42
0.26272837
  0
VERTEX
  5
95
  8
Layer_0
  10
599.85429
  20
404.0866
  0
VERTEX
  5
96
  8
Layer_0
  10
599.82545
  20
404.00886
  42
0.28289449
  0
VERTEX
  5
97
  8
Layer_0
  10
600.09274
  20
402.88783
  0
VERTEX
  5
98
  8
Layer_0
  10
600.15353
  20
402.83144
  42
0.28294633
  0
VERTEX
  5
99
  8
Layer_0
  10
601.2915
  20
402.64938
  42
0.30330663
  0
VERTEX
  5
9a
  8
Layer_0
  10
601.97055
  20
403.66565
  0
SEQEND
  0
POLYLINE
  5
9c
  8
Layer_0
  62
0
  66
1
  10
0
  20
0
  30
0
  0
VERTEX
  5
9c
  8
Layer_0
  10
669.25839
  20
432.66226
  42
0.1994254
  0
VERTEX
  5
9d
  8
Layer_0
  10
668.93622
  20
433.44008
  42
0.19870039
  0
VERTEX
  5
9e
  8
Layer_0
  10
668.1584
  20
433.76225
  42
0.055441652
  0
VERTEX
  5
9f
  8
Layer_0
  10
667.91399
  20
433.73482
  42
0.24305694
  0
VERTEX
  5
a0
  8
Layer_0
  10
667.14212
  20
433.08321
  0
VERTEX
  5
a1
  8
Layer_0
  10
667.1133
  20
433.00546
  42
0.28310613
  0
VERTEX
  5
a2
  8
Layer_0
  10
667.38057
  20
431.88444
  0
VERTEX
  5
a3
  8
Layer_0
  10
667.44138
  20
431.82805
  42
0.28285064
  0
VERTEX
  5
a4
  8
Layer_0
  10
668.57935
  20
431.64599
  42
0.30331996
  0
VERTEX
  5
a5
  8
Layer_0
  10
669.25839
  20
432.66226
  0
SEQEND
  0
POLYLINE
  5
a7
  8
Layer_0
  62
0
  66
1
  10
0
  20
0
  30
0
  0
VERTEX
  5
a7
  8
Layer_0
  10
660.45851
  20
465.50379
  0
VERTEX
  5
a8
  8
Layer_0
  10
660.45816
  20
465.53111
  0
VERTEX
  5
a9
  8
Layer_0
  10
660.45715
  20
465.55834
  42
0.18604137
  0
VERTEX
  5
aa
  8
Layer_0
  10
660.13632
  20
466.28161
  42
0.19272998
  0
VERTEX
  5
ab
  8
Layer_0
  10
659.38582
  20
466.60345
  0
VERTEX
  5
ac
  8
Layer_0
  10
659.35851
  20
466.60379
  42
0.093488857
  0
VERTEX
  5
ad
  8
Layer_0
  10
658.95995
  20
466.52909
  42
0.20572131
  0
VERTEX
  5
ae
  8
Layer_0
  10
658.34224
  20
465.92474
  0
VERTEX
  5
af
  8
Layer_0
  10
658.3134
  20
465.847
  42
0.28298142
  0
VERTEX
  5
b0
  8
Layer_0
  10
658.58069
  20
464.72598
  0
VERTEX
  5
b1
  8
Layer_0
  10
658.64148
  20
464.66958
  42
0.28281761
  0
VERTEX
  5
b2
  8
Layer_0
  10
659.77945
  20
464.48753
  42
0.302535
  0
VERTEX
  5
b3
  8
Layer_0
  10
660.45851
  20
465.50379
  0
SEQEND
  0
POLYLINE
  5
b5
  8
Layer_0
  62
0
  66
1
  10
0
  20
0
  30
0
  0
VERTEX
  5
b5
  8
Layer_0
  10
605.10304
  20
461.61287
  42
0.1988322
  0
VERTEX
  5
b6
  8
Layer_0
  10
604.7809
  20
462.39088
  42
0.1992556
  0
VERTEX
  5
b7
  8
Layer_0
  10
604.00304
  20
462.71288
  42
0.11149273
  0
VERTEX
  5
b8
  8
Layer_0
  10
603.53085
  20
462.6064
  42
0.18556441
  0
VERTEX
  5
b9
  8
Layer_0
  10
602.98677
  20
462.03382
  0
VERTEX
  5
ba
  8
Layer_0
  10
602.95793
  20
461.95608
  42
0.2832841
  0
VERTEX
  5
bb
  8
Layer_0
  10
603.22522
  20
460.83505
  0
VERTEX
  5
bc
  8
Layer_0
  10
603.28601
  20
460.77866
  42
0.28304553
  0
VERTEX
  5
bd
  8
Layer_0
  10
604.42398
  20
460.5966
  42
0.30336675
  0
VERTEX
  5
be
  8
Layer_0
  10
605.10304
  20
461.61287
  0
SEQEND
  0
POLYLINE
  5
c0
  8
Layer_0
  62
0
  66
1
  10
0
  20
0
  30
0
  0
VERTEX
  5
c0
  8
Layer_0
  10
527.50278
  20
461.61282
  42
-0.28273409
  0
VERTEX
  5
c1
  8
Layer_0
  10
526.89908
  20
460.63113
  0
VERTEX
  5
c2
  8
Layer_0
  10
526.82373
  20
460.59654
  42
-0.28314568
  0
VERTEX
  5
c3
  8
Layer_0
  10
525.68575
  20
460.7786
  0
VERTEX
  5
c4
  8
Layer_0
  10
525.62495
  20
460.83499
  42
-0.28282786
  0
VERTEX
  5
c5
  8
Layer_0
  10
525.35767
  20
461.95602
  0
VERTEX
  5
c6
  8
Layer_0
  10
525.38651
  20
462.03376
  42
-0.11135072
  0
VERTEX
  5
c7
  8
Layer_0
  10
525.66556
  20
462.42925
  42
-0.18555725
  0
VERTEX
  5
c8
  8
Layer_0
  10
526.40277
  20
462.71281
  42
-0.19893124
  0
VERTEX
  5
c9
  8
Layer_0
  10
527.18076
  20
462.39072
  42
-0.19915655
  0
VERTEX
  5
ca
  8
Layer_0
  10
527.50278
  20
461.61282
  0
SEQEND
  0
POLYLINE
  5
cc
  8
Layer_0
  62
0
  66
1
  10
0
  20
0
  30
0
  0
VERTEX
  5
cc
  8
Layer_0
  10
530.63557
  20
403.66564
  42
0.19897258
  0
VERTEX
  5
cd
  8
Layer_0
  10
530.31339
  20
404.44346
  42
0.19891814
  0
VERTEX
  5
ce
  8
Layer_0
  10
529.53558
  20
404.76564
  42
0.055661116
  0
VERTEX
  5
cf
  8
Layer_0
  10
529.29117
  20
404.7382
  42
0.2430441
  0
VERTEX
  5
d0
  8
Layer_0
  10
528.51932
  20
404.08659
  0
VERTEX
  5
d1
  8
Layer_0
  10
528.49048
  20
404.00885
  42
0.28300299
  0
VERTEX
  5
d2
  8
Layer_0
  10
528.75777
  20
402.88782
  0
VERTEX
  5
d3
  8
Layer_0
  10
528.81856
  20
402.83143
  42
0.28282601
  0
VERTEX
  5
d4
  8
Layer_0
  10
529.95654
  20
402.64937
  42
0.303343
  0
VERTEX
  5
d5
  8
Layer_0
  10
530.63557
  20
403.66564
  0
SEQEND
  0
POLYLINE
  5
d7
  8
Layer_0
  62
0
  66
1
  10
0
  20
0
  30
0
  0
VERTEX
  5
d7
  8
Layer_0
  10
463.03658
  20
433.4812
  42
-0.19892885
  0
VERTEX
  5
d8
  8
Layer_0
  10
463.35876
  20
432.70339
  42
-0.28288876
  0
VERTEX
  5
d9
  8
Layer_0
  10
462.75508
  20
431.72171
  0
VERTEX
  5
da
  8
Layer_0
  10
462.67972
  20
431.68712
  42
-0.28291584
  0
VERTEX
  5
db
  8
Layer_0
  10
461.54175
  20
431.86918
  0
VERTEX
  5
dc
  8
Layer_0
  10
461.48096
  20
431.92557
  42
-0.28290854
  0
VERTEX
  5
dd
  8
Layer_0
  10
461.21367
  20
433.0466
  0
VERTEX
  5
de
  8
Layer_0
  10
461.24251
  20
433.12434
  0
VERTEX
  5
df
  8
Layer_0
  10
461.27708
  20
433.19971
  42
-0.28280745
  0
VERTEX
  5
e0
  8
Layer_0
  10
462.25876
  20
433.80339
  42
-0.19888428
  0
VERTEX
  5
e1
  8
Layer_0
  10
463.03658
  20
433.4812
  0
SEQEND
  0
POLYLINE
  5
e3
  8
Layer_0
  62
0
  66
1
  10
0
  20
0
  30
0
  0
VERTEX
  5
e3
  8
Layer_0
  10
471.8364
  20
466.3227
  42
-0.19892789
  0
VERTEX
  5
e4
  8
Layer_0
  10
472.15858
  20
465.54488
  42
-0.28289389
  0
VERTEX
  5
e5
  8
Layer_0
  10
471.5549
  20
464.56319
  0
VERTEX
  5
e6
  8
Layer_0
  10
471.47952
  20
464.52861
  42
-0.28287223
  0
VERTEX
  5
e7
  8
Layer_0
  10
470.34155
  20
464.71067
  0
VERTEX
  5
e8
  8
Layer_0
  10
470.28076
  20
464.76706
  42
-0.28292886
  0
VERTEX
  5
e9
  8
Layer_0
  10
470.01347
  20
465.88809
  0
VERTEX
  5
ea
  8
Layer_0
  10
470.04231
  20
465.96584
  42
-0.3034206
  0
VERTEX
  5
eb
  8
Layer_0
  10
471.05858
  20
466.64488
  0
VERTEX
  5
ec
  8
Layer_0
  10
471.08589
  20
466.64455
  42
-0.19258347
  0
VERTEX
  5
ed
  8
Layer_0
  10
471.8364
  20
466.3227
  0
SEQEND
  0
POLYLINE
  5
ef
  8
Layer_0
  62
0
  66
1
  10
0
  20
0
  30
0
  0
VERTEX
  5
ef
  8
Layer_0
  10
502.68617
  20
435.40763
  0
VERTEX
  5
f0
  8
Layer_0
  10
516.01593
  20
431.83592
  0
VERTEX
  5
f1
  8
Layer_0
  10
512.44424
  20
418.50615
  0
VERTEX
  5
f2
  8
Layer_0
  10
499.11447
  20
422.07785
  0
VERTEX
  5
f3
  8
Layer_0
  10
502.68617
  20
435.40763
  0
SEQEND
  0
POLYLINE
  5
f5
  8
Layer_0
  62
0
  66
1
  10
0
  20
0
  30
0
  0
VERTEX
  5
f5
  8
Layer_0
  10
484.02545
  20
435.31148
  0
VERTEX
  5
f6
  8
Layer_0
  10
497.35522
  20
431.73977
  0
VERTEX
  5
f7
  8
Layer_0
  10
493.78354
  20
418.41
  0
VERTEX
  5
f8
  8
Layer_0
  10
480.45377
  20
421.9817
  0
VERTEX
  5
f9
  8
Layer_0
  10
484.02545
  20
435.31148
  0
SEQEND
  0
POLYLINE
  5
fb
  8
Layer_0
  62
0
  66
1
  10
0
  20
0
  30
0
  0
VERTEX
  5
fb
  8
Layer_0
  10
478.71841
  20
431.73287
  0
VERTEX
  5
fc
  8
Layer_0
  10
465.38866
  20
435.30457
  0
VERTEX
  5
fd
  8
Layer_0
  10
461.81696
  20
421.97481
  0
VERTEX
  5
fe
  8
Layer_0
  10
475.14671
  20
418.40309
  0
VERTEX
  5
ff
  8
Layer_0
  10
478.71841
  20
431.73287
  0
SEQEND
  0
POLYLINE
  5
101
  8
Layer_0
  62
0
  66
1
  10
0
  20
0
  30
0
  0
VERTEX
  5
101
  8
Layer_0
  10
460.05769
  20
431.63672
  0
VERTEX
  5
102
  8
Layer_0
  10
446.72794
  20
435.20842
  0
VERTEX
  5
103
  8
Layer_0
  10
443.15622
  20
421.87865
  0
VERTEX
  5
104
  8
Layer_0
  10
456.48599
  20
418.30695
  0
VERTEX
  5
105
  8
Layer_0
  10
460.05769
  20
431.63672
  0
SEQEND
  0
POLYLINE
  5
107
  8
Layer_0
  62
0
  66
1
  10
0
  20
0
  30
0
  0
VERTEX
  5
107
  8
Layer_0
  10
665.95955
  20
448.01633
  0
VERTEX
  5
108
  8
Layer_0
  10
669.53125
  20
434.68655
  0
VERTEX
  5
109
  8
Layer_0
  10
682.86101
  20
438.25826
  0
VERTEX
  5
10a
  8
Layer_0
  10
679.28931
  20
451.58804
  0
VERTEX
  5
10b
  8
Layer_0
  10
665.95955
  20
448.01633
  0
SEQEND
  0
POLYLINE
  5
10d
  8
Layer_0
  62
0
  66
1
  10
0
  20
0
  30
0
  0
VERTEX
  5
10d
  8
Layer_0
  10
647.28769
  20
448.15402
  0
VERTEX
  5
10e
  8
Layer_0
  10
650.85939
  20
434.82424
  0
VERTEX
  5
10f
  8
Layer_0
  10
664.18915
  20
438.39595
  0
VERTEX
  5
110
  8
Layer_0
  10
660.61745
  20
451.72573
  0
VERTEX
  5
111
  8
Layer_0
  10
647.28769
  20
448.15402
  0
SEQEND
  0
POLYLINE
  5
113
  8
Layer_0
  62
0
  66
1
  10
0
  20
0
  30
0
  0
VERTEX
  5
113
  8
Layer_0
  10
628.651
  20
448.16052
  0
VERTEX
  5
114
  8
Layer_0
  10
632.2227
  20
434.83075
  0
VERTEX
  5
115
  8
Layer_0
  10
645.55246
  20
438.40245
  0
VERTEX
  5
116
  8
Layer_0
  10
641.98077
  20
451.73223
  0
VERTEX
  5
117
  8
Layer_0
  10
628.651
  20
448.16052
  0
SEQEND
  0
POLYLINE
  5
119
  8
Layer_0
  62
0
  66
1
  10
0
  20
0
  30
0
  0
VERTEX
  5
119
  8
Layer_0
  10
593.6792
  20
439.5839
  0
VERTEX
  5
11a
  8
Layer_0
  10
607.00896
  20
443.1556
  0
VERTEX
  5
11b
  8
Layer_0
  10
610.58066
  20
429.82583
  0
VERTEX
  5
11c
  8
Layer_0
  10
597.2509
  20
426.25412
  0
VERTEX
  5
11d
  8
Layer_0
  10
593.6792
  20
439.5839
  0
SEQEND
  0
POLYLINE
  5
11f
  8
Layer_0
  62
0
  66
1
  10
0
  20
0
  30
0
  0
VERTEX
  5
11f
  8
Layer_0
  10
577.3681
  20
430.91112
  0
VERTEX
  5
120
  8
Layer_0
  10
590.69786
  20
434.48283
  0
VERTEX
  5
121
  8
Layer_0
  10
594.26956
  20
421.15305
  0
VERTEX
  5
122
  8
Layer_0
  10
580.9398
  20
417.58134
  0
VERTEX
  5
123
  8
Layer_0
  10
577.3681
  20
430.91112
  0
SEQEND
  0
POLYLINE
  5
125
  8
Layer_0
  62
0
  66
1
  10
0
  20
0
  30
0
  0
VERTEX
  5
125
  8
Layer_0
  10
553.03804
  20
430.91113
  0
VERTEX
  5
126
  8
Layer_0
  10
539.70828
  20
434.48283
  0
VERTEX
  5
127
  8
Layer_0
  10
536.13658
  20
421.15305
  0
VERTEX
  5
128
  8
Layer_0
  10
549.46634
  20
417.58135
  0
VERTEX
  5
129
  8
Layer_0
  10
553.03804
  20
430.91113
  0
SEQEND
  0
POLYLINE
  5
12b
  8
Layer_0
  62
0
  66
1
  10
0
  20
0
  30
0
  0
VERTEX
  5
12b
  8
Layer_0
  10
586.29796
  20
450.90356
  0
VERTEX
  5
12c
  8
Layer_0
  10
589.86966
  20
437.57378
  0
VERTEX
  5
12d
  8
Layer_0
  10
576.53989
  20
434.00208
  0
VERTEX
  5
12e
  8
Layer_0
  10
572.96819
  20
447.33186
  0
VERTEX
  5
12f
  8
Layer_0
  10
586.29796
  20
450.90356
  0
SEQEND
  0
POLYLINE
  5
131
  8
Layer_0
  62
0
  66
1
  10
0
  20
0
  30
0
  0
VERTEX
  5
131
  8
Layer_0
  10
609.9903
  20
448.25667
  0
VERTEX
  5
132
  8
Layer_0
  10
623.32005
  20
451.82837
  0
VERTEX
  5
133
  8
Layer_0
  10
626.89175
  20
438.49859
  0
VERTEX
  5
134
  8
Layer_0
  10
613.56198
  20
434.9269
  0
VERTEX
  5
135
  8
Layer_0
  10
609.9903
  20
448.25667
  0
SEQEND
  0
POLYLINE
  5
137
  8
Layer_0
  62
0
  66
1
  10
0
  20
0
  30
0
  0
VERTEX
  5
137
  8
Layer_0
  10
536.72694
  20
439.58389
  0
VERTEX
  5
138
  8
Layer_0
  10
533.15524
  20
426.25412
  0
VERTEX
  5
139
  8
Layer_0
  10
519.82549
  20
429.82582
  0
VERTEX
  5
13a
  8
Layer_0
  10
523.39719
  20
443.1556
  0
VERTEX
  5
13b
  8
Layer_0
  10
536.72694
  20
439.58389
  0
SEQEND
  0
POLYLINE
  5
13d
  8
Layer_0
  62
0
  66
1
  10
0
  20
0
  30
0
  0
VERTEX
  5
13d
  8
Layer_0
  10
507.08609
  20
451.82837
  0
VERTEX
  5
13e
  8
Layer_0
  10
503.51439
  20
438.4986
  0
VERTEX
  5
13f
  8
Layer_0
  10
516.84415
  20
434.9269
  0
VERTEX
  5
140
  8
Layer_0
  10
520.41586
  20
448.25667
  0
VERTEX
  5
141
  8
Layer_0
  10
507.08609
  20
451.82837
  0
SEQEND
  0
POLYLINE
  5
143
  8
Layer_0
  62
0
  66
1
  10
0
  20
0
  30
0
  0
VERTEX
  5
143
  8
Layer_0
  10
488.42537
  20
451.73222
  0
VERTEX
  5
144
  8
Layer_0
  10
501.75513
  20
448.16052
  0
VERTEX
  5
145
  8
Layer_0
  10
498.18344
  20
434.83074
  0
VERTEX
  5
146
  8
Layer_0
  10
484.85367
  20
438.40244
  0
VERTEX
  5
147
  8
Layer_0
  10
488.42537
  20
451.73222
  0
SEQEND
  0
POLYLINE
  5
149
  8
Layer_0
  62
0
  66
1
  10
0
  20
0
  30
0
  0
VERTEX
  5
149
  8
Layer_0
  10
469.78857
  20
451.72531
  0
VERTEX
  5
14a
  8
Layer_0
  10
466.21689
  20
438.39553
  0
VERTEX
  5
14b
  8
Layer_0
  10
479.54665
  20
434.82384
  0
VERTEX
  5
14c
  8
Layer_0
  10
483.11835
  20
448.15361
  0
VERTEX
  5
14d
  8
Layer_0
  10
469.78857
  20
451.72531
  0
SEQEND
  0
POLYLINE
  5
14f
  8
Layer_0
  62
0
  66
1
  10
0
  20
0
  30
0
  0
VERTEX
  5
14f
  8
Layer_0
  10
464.45761
  20
448.05746
  0
VERTEX
  5
150
  8
Layer_0
  10
451.12785
  20
451.62917
  0
VERTEX
  5
151
  8
Layer_0
  10
447.55615
  20
438.29939
  0
VERTEX
  5
152
  8
Layer_0
  10
460.88591
  20
434.72768
  0
VERTEX
  5
153
  8
Layer_0
  10
464.45761
  20
448.05746
  0
SEQEND
  0
POLYLINE
  5
155
  8
Layer_0
  62
0
  66
1
  10
0
  20
0
  30
0
  0
VERTEX
  5
155
  8
Layer_0
  10
674.88937
  20
468.00878
  0
VERTEX
  5
156
  8
Layer_0
  10
661.55962
  20
464.43709
  0
VERTEX
  5
157
  8
Layer_0
  10
665.13133
  20
451.10731
  0
VERTEX
  5
158
  8
Layer_0
  10
678.46109
  20
454.679
  0
VERTEX
  5
159
  8
Layer_0
  10
674.88937
  20
468.00878
  0
SEQEND
  0
POLYLINE
  5
15b
  8
Layer_0
  62
0
  66
1
  10
0
  20
0
  30
0
  0
VERTEX
  5
15b
  8
Layer_0
  10
530.90842
  20
401.64167
  0
VERTEX
  5
15c
  8
Layer_0
  10
527.33672
  20
388.31189
  0
VERTEX
  5
15d
  8
Layer_0
  10
540.66647
  20
384.74019
  0
VERTEX
  5
15e
  8
Layer_0
  10
544.23819
  20
398.06996
  0
VERTEX
  5
15f
  8
Layer_0
  10
530.90842
  20
401.64167
  0
SEQEND
  0
POLYLINE
  5
161
  8
Layer_0
  62
0
  66
1
  10
0
  20
0
  30
0
  0
VERTEX
  5
161
  8
Layer_0
  10
656.21756
  20
468.14646
  0
VERTEX
  5
162
  8
Layer_0
  10
659.78925
  20
454.81668
  0
VERTEX
  5
163
  8
Layer_0
  10
646.45947
  20
451.24498
  0
VERTEX
  5
164
  8
Layer_0
  10
642.88776
  20
464.57475
  0
VERTEX
  5
165
  8
Layer_0
  10
656.21756
  20
468.14646
  0
SEQEND
  0
POLYLINE
  5
167
  8
Layer_0
  62
0
  66
1
  10
0
  20
0
  30
0
  0
VERTEX
  5
167
  8
Layer_0
  10
455.52779
  20
468.04991
  0
VERTEX
  5
168
  8
Layer_0
  10
468.85754
  20
464.47821
  0
VERTEX
  5
169
  8
Layer_0
  10
465.28584
  20
451.14843
  0
VERTEX
  5
16a
  8
Layer_0
  10
451.95609
  20
454.72013
  0
VERTEX
  5
16b
  8
Layer_0
  10
455.52779
  20
468.04991
  0
SEQEND
  0
POLYLINE
  5
16d
  8
Layer_0
  62
0
  66
1
  10
0
  20
0
  30
0
  0
VERTEX
  5
16d
  8
Layer_0
  10
527.79709
  20
459.57633
  0
VERTEX
  5
16e
  8
Layer_0
  10
524.2254
  20
446.24657
  0
VERTEX
  5
16f
  8
Layer_0
  10
537.55518
  20
442.67486
  0
VERTEX
  5
170
  8
Layer_0
  10
541.12686
  20
456.00463
  0
VERTEX
  5
171
  8
Layer_0
  10
527.79709
  20
459.57633
  0
SEQEND
  0
POLYLINE
  5
173
  8
Layer_0
  62
0
  66
1
  10
0
  20
0
  30
0
  0
VERTEX
  5
173
  8
Layer_0
  10
511.48601
  20
468.24911
  0
VERTEX
  5
174
  8
Layer_0
  10
524.81577
  20
464.67741
  0
VERTEX
  5
175
  8
Layer_0
  10
521.24408
  20
451.34763
  0
VERTEX
  5
176
  8
Layer_0
  10
507.91431
  20
454.91933
  0
VERTEX
  5
177
  8
Layer_0
  10
511.48601
  20
468.24911
  0
SEQEND
  0
POLYLINE
  5
179
  8
Layer_0
  62
0
  66
1
  10
0
  20
0
  30
0
  0
VERTEX
  5
179
  8
Layer_0
  10
602.60902
  20
459.57634
  0
VERTEX
  5
17a
  8
Layer_0
  10
589.27928
  20
456.00464
  0
VERTEX
  5
17b
  8
Layer_0
  10
592.85098
  20
442.67486
  0
VERTEX
  5
17c
  8
Layer_0
  10
606.18076
  20
446.24657
  0
VERTEX
  5
17d
  8
Layer_0
  10
602.60902
  20
459.57634
  0
SEQEND
  0
POLYLINE
  5
17f
  8
Layer_0
  62
0
  66
1
  10
0
  20
0
  30
0
  0
VERTEX
  5
17f
  8
Layer_0
  10
595.09779
  20
418.06209
  0
VERTEX
  5
180
  8
Layer_0
  10
598.66948
  20
404.73232
  0
VERTEX
  5
181
  8
Layer_0
  10
585.33972
  20
401.16061
  0
VERTEX
  5
182
  8
Layer_0
  10
581.76802
  20
414.49039
  0
VERTEX
  5
183
  8
Layer_0
  10
595.09779
  20
418.06209
  0
SEQEND
  0
POLYLINE
  5
185
  8
Layer_0
  62
0
  66
1
  10
0
  20
0
  30
0
  0
VERTEX
  5
185
  8
Layer_0
  10
487.51825
  20
464.57435
  0
VERTEX
  5
186
  8
Layer_0
  10
483.94655
  20
451.24457
  0
VERTEX
  5
187
  8
Layer_0
  10
470.61679
  20
454.81627
  0
VERTEX
  5
188
  8
Layer_0
  10
474.18848
  20
468.14605
  0
VERTEX
  5
189
  8
Layer_0
  10
487.51825
  20
464.57435
  0
SEQEND
  0
POLYLINE
  5
18b
  8
Layer_0
  62
0
  66
1
  10
0
  20
0
  30
0
  0
VERTEX
  5
18b
  8
Layer_0
  10
624.2511
  20
464.58125
  0
VERTEX
  5
18c
  8
Layer_0
  10
627.8228
  20
451.25148
  0
VERTEX
  5
18d
  8
Layer_0
  10
641.15254
  20
454.82318
  0
VERTEX
  5
18e
  8
Layer_0
  10
637.58086
  20
468.15296
  0
VERTEX
  5
18f
  8
Layer_0
  10
624.2511
  20
464.58125
  0
SEQEND
  0
POLYLINE
  5
191
  8
Layer_0
  62
0
  66
1
  10
0
  20
0
  30
0
  0
VERTEX
  5
191
  8
Layer_0
  10
618.92014
  20
468.24911
  0
VERTEX
  5
192
  8
Layer_0
  10
605.59038
  20
464.67741
  0
VERTEX
  5
193
  8
Layer_0
  10
609.16206
  20
451.34762
  0
VERTEX
  5
194
  8
Layer_0
  10
622.49185
  20
454.91932
  0
VERTEX
  5
195
  8
Layer_0
  10
618.92014
  20
468.24911
  0
SEQEND
  0
POLYLINE
  5
197
  8
Layer_0
  62
0
  66
1
  10
0
  20
0
  30
0
  0
VERTEX
  5
197
  8
Layer_0
  10
670.35948
  20
431.5956
  0
VERTEX
  5
198
  8
Layer_0
  10
683.68924
  20
435.16728
  0
VERTEX
  5
199
  8
Layer_0
  10
687.26094
  20
421.83752
  0
VERTEX
  5
19a
  8
Layer_0
  10
673.93117
  20
418.26581
  0
VERTEX
  5
19b
  8
Layer_0
  10
670.35948
  20
431.5956
  0
SEQEND
  0
POLYLINE
  5
19d
  8
Layer_0
  62
0
  66
1
  10
0
  20
0
  30
0
  0
VERTEX
  5
19d
  8
Layer_0
  10
651.68764
  20
431.73328
  0
VERTEX
  5
19e
  8
Layer_0
  10
655.25932
  20
418.4035
  0
VERTEX
  5
19f
  8
Layer_0
  10
668.5891
  20
421.9752
  0
VERTEX
  5
1a0
  8
Layer_0
  10
665.0174
  20
435.30499
  0
VERTEX
  5
1a1
  8
Layer_0
  10
651.68764
  20
431.73328
  0
SEQEND
  0
POLYLINE
  5
1a3
  8
Layer_0
  62
0
  66
1
  10
0
  20
0
  30
0
  0
VERTEX
  5
1a3
  8
Layer_0
  10
633.05092
  20
431.73976
  0
VERTEX
  5
1a4
  8
Layer_0
  10
636.62263
  20
418.41
  0
VERTEX
  5
1a5
  8
Layer_0
  10
649.95238
  20
421.9817
  0
VERTEX
  5
1a6
  8
Layer_0
  10
646.38069
  20
435.31148
  0
VERTEX
  5
1a7
  8
Layer_0
  10
633.05092
  20
431.73976
  0
SEQEND
  0
POLYLINE
  5
1a9
  8
Layer_0
  62
0
  66
1
  10
0
  20
0
  30
0
  0
VERTEX
  5
1a9
  8
Layer_0
  10
627.71997
  20
435.40762
  0
VERTEX
  5
1aa
  8
Layer_0
  10
614.3902
  20
431.83592
  0
VERTEX
  5
1ab
  8
Layer_0
  10
617.9619
  20
418.50613
  0
VERTEX
  5
1ac
  8
Layer_0
  10
631.29167
  20
422.07784
  0
VERTEX
  5
1ad
  8
Layer_0
  10
627.71997
  20
435.40762
  0
SEQEND
  0
POLYLINE
  5
1af
  8
Layer_0
  62
0
  66
1
  10
0
  20
0
  30
0
  0
VERTEX
  5
1af
  8
Layer_0
  10
611.40889
  20
426.73487
  0
VERTEX
  5
1b0
  8
Layer_0
  10
598.0791
  20
423.16316
  0
VERTEX
  5
1b1
  8
Layer_0
  10
601.6508
  20
409.83339
  0
VERTEX
  5
1b2
  8
Layer_0
  10
614.98058
  20
413.40509
  0
VERTEX
  5
1b3
  8
Layer_0
  10
611.40889
  20
426.73487
  0
SEQEND
  0
POLYLINE
  5
1b5
  8
Layer_0
  62
0
  66
1
  10
0
  20
0
  30
0
  0
VERTEX
  5
1b5
  8
Layer_0
  10
548.63812
  20
414.49039
  0
VERTEX
  5
1b6
  8
Layer_0
  10
545.06641
  20
401.1606
  0
VERTEX
  5
1b7
  8
Layer_0
  10
531.73666
  20
404.7323
  0
VERTEX
  5
1b8
  8
Layer_0
  10
535.30835
  20
418.06209
  0
VERTEX
  5
1b9
  8
Layer_0
  10
548.63812
  20
414.49039
  0
SEQEND
  0
POLYLINE
  5
1bb
  8
Layer_0
  62
0
  66
1
  10
0
  20
0
  30
0
  0
VERTEX
  5
1bb
  8
Layer_0
  10
518.99725
  20
426.73486
  0
VERTEX
  5
1bc
  8
Layer_0
  10
532.32703
  20
423.16315
  0
VERTEX
  5
1bd
  8
Layer_0
  10
528.75531
  20
409.83338
  0
VERTEX
  5
1be
  8
Layer_0
  10
515.42557
  20
413.40508
  0
VERTEX
  5
1bf
  8
Layer_0
  10
518.99725
  20
426.73486
  0
SEQEND
  0
POLYLINE
  5
1c1
  8
Layer_0
  62
0
  66
1
  10
0
  20
0
  30
0
  0
VERTEX
  5
1c1
  8
Layer_0
  10
492.82529
  20
468.15295
  0
VERTEX
  5
1c2
  8
Layer_0
  10
506.15506
  20
464.58125
  0
VERTEX
  5
1c3
  8
Layer_0
  10
502.58336
  20
451.25147
  0
VERTEX
  5
1c4
  8
Layer_0
  10
489.2536
  20
454.82317
  0
VERTEX
  5
1c5
  8
Layer_0
  10
492.82529
  20
468.15295
  0
SEQEND
  0
POLYLINE
  5
1c7
  8
Layer_0
  62
0
  66
1
  10
0
  20
0
  30
0
  0
VERTEX
  5
1c7
  8
Layer_0
  10
544.10818
  20
450.90357
  0
VERTEX
  5
1c8
  8
Layer_0
  10
540.5365
  20
437.57379
  0
VERTEX
  5
1c9
  8
Layer_0
  10
553.86624
  20
434.00209
  0
VERTEX
  5
1ca
  8
Layer_0
  10
557.43796
  20
447.33186
  0
VERTEX
  5
1cb
  8
Layer_0
  10
544.10818
  20
450.90357
  0
SEQEND
  0
POLYLINE
  5
1cd
  8
Layer_0
  62
0
  66
1
  10
0
  20
0
  30
0
  0
VERTEX
  5
1cd
  8
Layer_0
  10
510.21689
  20
407.28672
  0
VERTEX
  5
1ce
  8
Layer_0
  10
524.01688
  20
407.28672
  0
VERTEX
  5
1cf
  8
Layer_0
  10
524.01688
  20
393.48672
  0
VERTEX
  5
1d0
  8
Layer_0
  10
510.21689
  20
393.48672
  0
VERTEX
  5
1d1
  8
Layer_0
  10
510.21689
  20
407.28672
  0
SEQEND
  0
POLYLINE
  5
1d3
  8
Layer_0
  62
0
  66
1
  10
0
  20
0
  30
0
  0
VERTEX
  5
1d3
  8
Layer_0
  10
599.4977
  20
401.64135
  0
VERTEX
  5
1d4
  8
Layer_0
  10
586.16794
  20
398.06965
  0
VERTEX
  5
1d5
  8
Layer_0
  10
589.73964
  20
384.73987
  0
VERTEX
  5
1d6
  8
Layer_0
  10
603.06941
  20
388.31157
  0
VERTEX
  5
1d7
  8
Layer_0
  10
599.4977
  20
401.64135
  0
SEQEND
  0
POLYLINE
  5
1d9
  8
Layer_0
  62
0
  66
1
  10
0
  20
0
  30
0
  0
VERTEX
  5
1d9
  8
Layer_0
  10
606.38904
  20
407.2864
  0
VERTEX
  5
1da
  8
Layer_0
  10
620.18901
  20
407.2864
  0
VERTEX
  5
1db
  8
Layer_0
  10
620.18901
  20
393.4864
  0
VERTEX
  5
1dc
  8
Layer_0
  10
606.38904
  20
393.4864
  0
VERTEX
  5
1dd
  8
Layer_0
  10
606.38904
  20
407.2864
  0
SEQEND
  0
POLYLINE
  5
1df
  8
Layer_0
  62
0
  66
1
  10
0
  20
0
  30
0
  0
VERTEX
  5
1df
  8
Layer_0
  10
567.30307
  20
397.31287
  0
VERTEX
  5
1e0
  8
Layer_0
  10
581.10307
  20
397.31287
  0
VERTEX
  5
1e1
  8
Layer_0
  10
581.10307
  20
383.51287
  0
VERTEX
  5
1e2
  8
Layer_0
  10
567.30307
  20
383.51287
  0
VERTEX
  5
1e3
  8
Layer_0
  10
567.30307
  20
397.31287
  0
SEQEND
  0
POLYLINE
  5
1e5
  8
Layer_0
  62
0
  66
1
  10
0
  20
0
  30
0
  0
VERTEX
  5
1e5
  8
Layer_0
  10
492.21655
  20
412.76891
  0
VERTEX
  5
1e6
  8
Layer_0
  10
506.01654
  20
412.76891
  0
VERTEX
  5
1e7
  8
Layer_0
  10
506.01654
  20
398.9689
  0
VERTEX
  5
1e8
  8
Layer_0
  10
492.21655
  20
398.9689
  0
VERTEX
  5
1e9
  8
Layer_0
  10
492.21655
  20
412.76891
  0
SEQEND
  0
POLYLINE
  5
1eb
  8
Layer_0
  62
0
  66
1
  10
0
  20
0
  30
0
  0
VERTEX
  5
1eb
  8
Layer_0
  10
478.58841
  20
484.56681
  0
VERTEX
  5
1ec
  8
Layer_0
  10
491.91817
  20
480.9951
  0
VERTEX
  5
1ed
  8
Layer_0
  10
488.34647
  20
467.66533
  0
VERTEX
  5
1ee
  8
Layer_0
  10
475.01671
  20
471.23703
  0
VERTEX
  5
1ef
  8
Layer_0
  10
478.58841
  20
484.56681
  0
SEQEND
  0
POLYLINE
  5
1f1
  8
Layer_0
  62
0
  66
1
  10
0
  20
0
  30
0
  0
VERTEX
  5
1f1
  8
Layer_0
  10
459.92767
  20
484.47066
  0
VERTEX
  5
1f2
  8
Layer_0
  10
473.25743
  20
480.89895
  0
VERTEX
  5
1f3
  8
Layer_0
  10
469.68573
  20
467.56918
  0
VERTEX
  5
1f4
  8
Layer_0
  10
456.35597
  20
471.14088
  0
VERTEX
  5
1f5
  8
Layer_0
  10
459.92767
  20
484.47066
  0
SEQEND
  0
POLYLINE
  5
1f7
  8
Layer_0
  62
0
  66
1
  10
0
  20
0
  30
0
  0
VERTEX
  5
1f7
  8
Layer_0
  10
619.85117
  20
481.00203
  0
VERTEX
  5
1f8
  8
Layer_0
  10
633.18092
  20
484.57373
  0
VERTEX
  5
1f9
  8
Layer_0
  10
636.75262
  20
471.24396
  0
VERTEX
  5
1fa
  8
Layer_0
  10
623.42287
  20
467.67226
  0
VERTEX
  5
1fb
  8
Layer_0
  10
619.85117
  20
481.00203
  0
SEQEND
  0
POLYLINE
  5
1fd
  8
Layer_0
  62
0
  66
1
  10
0
  20
0
  30
0
  0
VERTEX
  5
1fd
  8
Layer_0
  10
624.38901
  20
412.7684
  0
VERTEX
  5
1fe
  8
Layer_0
  10
638.18898
  20
412.7684
  0
VERTEX
  5
1ff
  8
Layer_0
  10
638.18898
  20
398.9684
  0
VERTEX
  5
200
  8
Layer_0
  10
624.38901
  20
398.9684
  0
VERTEX
  5
201
  8
Layer_0
  10
624.38901
  20
412.7684
  0
SEQEND
  0
POLYLINE
  5
203
  8
Layer_0
  62
0
  66
1
  10
0
  20
0
  30
0
  0
VERTEX
  5
203
  8
Layer_0
  10
657.15967
  20
480.85785
  0
VERTEX
  5
204
  8
Layer_0
  10
660.73135
  20
467.52808
  0
VERTEX
  5
205
  8
Layer_0
  10
674.06111
  20
471.09978
  0
VERTEX
  5
206
  8
Layer_0
  10
670.48943
  20
484.42957
  0
VERTEX
  5
207
  8
Layer_0
  10
657.15967
  20
480.85785
  0
SEQEND
  0
POLYLINE
  5
209
  8
Layer_0
  62
0
  66
1
  10
0
  20
0
  30
0
  0
VERTEX
  5
209
  8
Layer_0
  10
529.21565
  20
481.09818
  0
VERTEX
  5
20a
  8
Layer_0
  10
515.88588
  20
484.66987
  0
VERTEX
  5
20b
  8
Layer_0
  10
512.31418
  20
471.3401
  0
VERTEX
  5
20c
  8
Layer_0
  10
525.64395
  20
467.76839
  0
VERTEX
  5
20d
  8
Layer_0
  10
529.21565
  20
481.09818
  0
SEQEND
  0
POLYLINE
  5
20f
  8
Layer_0
  62
0
  66
1
  10
0
  20
0
  30
0
  0
VERTEX
  5
20f
  8
Layer_0
  10
561.83783
  20
463.7526
  0
VERTEX
  5
210
  8
Layer_0
  10
548.50809
  20
467.3243
  0
VERTEX
  5
211
  8
Layer_0
  10
544.93637
  20
453.99453
  0
VERTEX
  5
212
  8
Layer_0
  10
558.26611
  20
450.42282
  0
VERTEX
  5
213
  8
Layer_0
  10
561.83783
  20
463.7526
  0
SEQEND
  0
POLYLINE
  5
215
  8
Layer_0
  62
0
  66
1
  10
0
  20
0
  30
0
  0
VERTEX
  5
215
  8
Layer_0
  10
584.87936
  20
472.42535
  0
VERTEX
  5
216
  8
Layer_0
  10
588.45108
  20
459.09558
  0
VERTEX
  5
217
  8
Layer_0
  10
601.78082
  20
462.66729
  0
VERTEX
  5
218
  8
Layer_0
  10
598.20914
  20
475.99706
  0
VERTEX
  5
219
  8
Layer_0
  10
584.87936
  20
472.42535
  0
SEQEND
  0
POLYLINE
  5
21b
  8
Layer_0
  62
0
  66
1
  10
0
  20
0
  30
0
  0
VERTEX
  5
21b
  8
Layer_0
  10
651.81763
  20
484.56725
  0
VERTEX
  5
21c
  8
Layer_0
  10
638.48787
  20
480.99554
  0
VERTEX
  5
21d
  8
Layer_0
  10
642.05957
  20
467.66576
  0
VERTEX
  5
21e
  8
Layer_0
  10
655.38934
  20
471.23747
  0
VERTEX
  5
21f
  8
Layer_0
  10
651.81763
  20
484.56725
  0
SEQEND
  0
POLYLINE
  5
221
  8
Layer_0
  62
0
  66
1
  10
0
  20
0
  30
0
  0
VERTEX
  5
221
  8
Layer_0
  10
614.52017
  20
484.66987
  0
VERTEX
  5
222
  8
Layer_0
  10
618.09189
  20
471.3401
  0
VERTEX
  5
223
  8
Layer_0
  10
604.76213
  20
467.7684
  0
VERTEX
  5
224
  8
Layer_0
  10
601.19041
  20
481.09818
  0
VERTEX
  5
225
  8
Layer_0
  10
614.52017
  20
484.66987
  0
SEQEND
  0
POLYLINE
  5
227
  8
Layer_0
  62
0
  66
1
  10
0
  20
0
  30
0
  0
VERTEX
  5
227
  8
Layer_0
  10
510.55499
  20
481.002
  0
VERTEX
  5
228
  8
Layer_0
  10
497.22523
  20
484.57372
  0
VERTEX
  5
229
  8
Layer_0
  10
493.65353
  20
471.24395
  0
VERTEX
  5
22a
  8
Layer_0
  10
506.98331
  20
467.67223
  0
VERTEX
  5
22b
  8
Layer_0
  10
510.55499
  20
481.002
  0
SEQEND
  0
POLYLINE
  5
22d
  8
Layer_0
  62
0
  66
1
  10
0
  20
0
  30
0
  0
VERTEX
  5
22d
  8
Layer_0
  10
545.52679
  20
472.42533
  0
VERTEX
  5
22e
  8
Layer_0
  10
532.19704
  20
475.99703
  0
VERTEX
  5
22f
  8
Layer_0
  10
528.62534
  20
462.66727
  0
VERTEX
  5
230
  8
Layer_0
  10
541.95508
  20
459.09555
  0
VERTEX
  5
231
  8
Layer_0
  10
545.52679
  20
472.42533
  0
SEQEND
  0
POLYLINE
  5
233
  8
Layer_0
  62
0
  66
1
  10
0
  20
0
  30
0
  0
VERTEX
  5
233
  8
Layer_0
  10
558.30309
  20
430.31287
  0
VERTEX
  5
234
  8
Layer_0
  10
572.10307
  20
430.31287
  0
VERTEX
  5
235
  8
Layer_0
  10
572.10307
  20
416.51286
  0
VERTEX
  5
236
  8
Layer_0
  10
558.30309
  20
416.51287
  0
VERTEX
  5
237
  8
Layer_0
  10
558.30309
  20
430.31287
  0
SEQEND
  0
POLYLINE
  5
239
  8
Layer_0
  62
0
  66
1
  10
0
  20
0
  30
0
  0
VERTEX
  5
239
  8
Layer_0
  10
549.30307
  20
397.31286
  0
VERTEX
  5
23a
  8
Layer_0
  10
563.10309
  20
397.31286
  0
VERTEX
  5
23b
  8
Layer_0
  10
563.10309
  20
383.51286
  0
VERTEX
  5
23c
  8
Layer_0
  10
549.30307
  20
383.51286
  0
VERTEX
  5
23d
  8
Layer_0
  10
549.30307
  20
397.31286
  0
SEQEND
  0
POLYLINE
  5
23f
  8
Layer_0
  62
0
  66
1
  10
0
  20
0
  30
0
  0
VERTEX
  5
23f
  8
Layer_0
  10
581.89801
  20
467.32433
  0
VERTEX
  5
240
  8
Layer_0
  10
585.4697
  20
453.99454
  0
VERTEX
  5
241
  8
Layer_0
  10
572.13994
  20
450.42284
  0
VERTEX
  5
242
  8
Layer_0
  10
568.56822
  20
463.75262
  0
VERTEX
  5
243
  8
Layer_0
  10
581.89801
  20
467.32433
  0
SEQEND
  0
POLYLINE
  5
245
  8
Layer_4
  62
5
  66
1
  10
0
  20
0
  30
0
  0
VERTEX
  5
245
  8
Layer_4
  10
671.84205
  20
486.74657
  42
0.041464949
  0
VERTEX
  5
246
  8
Layer_4
  10
671.42724
  20
486.77489
  0
VERTEX
  5
247
  8
Layer_4
  10
616.13486
  20
486.77357
  0
VERTEX
  5
248
  8
Layer_4
  10
598.75249
  20
482.11367
  0
VERTEX
  5
249
  8
Layer_4
  10
594.20772
  20
478.99984
  0
VERTEX
  5
24a
  8
Layer_4
  10
581.84107
  20
475.6877
  42
0.2677349
  0
VERTEX
  5
24b
  8
Layer_4
  10
580.07449
  20
473.91658
  0
VERTEX
  5
24c
  8
Layer_4
  10
578.40769
  20
467.69601
  0
VERTEX
  5
24d
  8
Layer_4
  10
575.76954
  20
468.39048
  0
VERTEX
  5
24e
  8
Layer_4
  10
575.71841
  20
468.29237
  42
-0.29615188
  0
VERTEX
  5
24f
  8
Layer_4
  10
575.40804
  20
468.18504
  0
VERTEX
  5
250
  8
Layer_4
  10
547.06392
  20
475.77983
  42
-0.40723517
  0
VERTEX
  5
251
  8
Layer_4
  10
546.85461
  20
476.14235
  0
VERTEX
  5
252
  8
Layer_4
  10
536.21397
  20
478.9935
  0
VERTEX
  5
253
  8
Layer_4
  10
531.65758
  20
482.11101
  0
VERTEX
  5
254
  8
Layer_4
  10
514.27866
  20
486.76768
  0
VERTEX
  5
255
  8
Layer_4
  10
458.98833
  20
486.77408
  42
0.3412312
  0
VERTEX
  5
256
  8
Layer_4
  10
456.57025
  20
484.92077
  0
VERTEX
  5
257
  8
Layer_4
  10
440.14758
  20
423.56873
  42
0.41275711
  0
VERTEX
  5
258
  8
Layer_4
  10
441.91818
  20
420.50198
  0
VERTEX
  5
259
  8
Layer_4
  10
459.2894
  20
415.84738
  0
VERTEX
  5
25a
  8
Layer_4
  10
467.95638
  20
418.17967
  0
VERTEX
  5
25b
  8
Layer_4
  10
488.26401
  20
412.73827
  42
-0.33879426
  0
VERTEX
  5
25c
  8
Layer_4
  10
489.00645
  20
411.76907
  0
VERTEX
  5
25d
  8
Layer_4
  10
489.00867
  20
397.24976
  42
0.32999788
  0
VERTEX
  5
25e
  8
Layer_4
  10
489.74808
  20
396.33109
  0
VERTEX
  5
25f
  8
Layer_4
  10
542.16046
  20
382.24583
  0
VERTEX
  5
260
  8
Layer_4
  10
547.20665
  20
381.48174
  0
VERTEX
  5
261
  8
Layer_4
  10
583.20989
  20
381.48348
  0
VERTEX
  5
262
  8
Layer_4
  10
588.25276
  20
382.2525
  0
VERTEX
  5
263
  8
Layer_4
  10
640.66535
  20
396.32669
  42
0.33924574
  0
VERTEX
  5
264
  8
Layer_4
  10
641.40549
  20
397.29617
  0
VERTEX
  5
265
  8
Layer_4
  10
641.40838
  20
411.7727
  42
-0.33260888
  0
VERTEX
  5
266
  8
Layer_4
  10
642.1114
  20
412.72727
  0
VERTEX
  5
267
  8
Layer_4
  10
662.4568
  20
418.18341
  0
VERTEX
  5
268
  8
Layer_4
  10
671.12489
  20
415.85252
  0
VERTEX
  5
269
  8
Layer_4
  10
688.49745
  20
420.50676
  42
0.19964591
  0
VERTEX
  5
26a
  8
Layer_4
  10
690.01737
  20
421.67131
  42
0.1996427
  0
VERTEX
  5
26b
  8
Layer_4
  10
690.2625
  20
423.57032
  0
VERTEX
  5
26c
  8
Layer_4
  10
673.84706
  20
484.92558
  42
0.2906671
  0
VERTEX
  5
26d
  8
Layer_4
  10
671.84205
  20
486.74657
  0
SEQEND
  0
ENDSEC
  0
EOF
