  0
SECTION
  2
HEADER
  9
$ACADVER
  1
AC1009
  0
ENDSEC
  0
SECTION
  2
ENTITIES
  0
POLYLINE
  5
90
  8
Layer_2
  62
173
  66
1
  10
0
  20
0
  30
0
  0
VERTEX
  5
90
  8
Layer_2
  10
585.76096
  20
358.29456
  42
0.21234768
  0
VERTEX
  5
91
  8
Layer_2
  10
585.20111
  20
358.20712
  42
0.18709791
  0
VERTEX
  5
92
  8
Layer_2
  10
584.90364
  20
357.79956
  0
VERTEX
  5
93
  8
Layer_2
  10
584.89519
  20
357.76454
  42
0.39913825
  0
VERTEX
  5
94
  8
Layer_2
  10
585.39862
  20
356.94225
  0
VERTEX
  5
95
  8
Layer_2
  10
590.90439
  20
355.46698
  0
VERTEX
  5
96
  8
Layer_2
  10
591.26674
  20
356.81927
  0
VERTEX
  5
97
  8
Layer_2
  10
585.76096
  20
358.29456
  0
SEQEND
  0
POLYLINE
  5
99
  8
Layer_2
  62
173
  66
1
  10
0
  20
0
  30
0
  0
VERTEX
  5
99
  8
Layer_2
  10
550.7179
  20
353.53915
  42
-0.39947481
  0
VERTEX
  5
9a
  8
Layer_2
  10
550.14255
  20
354.47893
  0
VERTEX
  5
9b
  8
Layer_2
  10
550.15221
  20
354.51895
  42
-0.15034303
  0
VERTEX
  5
9c
  8
Layer_2
  10
550.39995
  20
354.91565
  42
-0.24878362
  0
VERTEX
  5
9d
  8
Layer_2
  10
551.132
  20
355.08464
  0
VERTEX
  5
9e
  8
Layer_2
  10
578.11996
  20
347.85324
  42
-0.25008938
  0
VERTEX
  5
9f
  8
Layer_2
  10
578.67015
  20
347.33859
  0
VERTEX
  5
a0
  8
Layer_2
  10
578.67831
  20
347.31325
  0
VERTEX
  5
a1
  8
Layer_2
  10
578.68565
  20
347.28755
  42
-0.26753743
  0
VERTEX
  5
a2
  8
Layer_2
  10
578.47861
  20
346.5148
  42
-0.25911866
  0
VERTEX
  5
a3
  8
Layer_2
  10
577.7318
  20
346.30127
  0
VERTEX
  5
a4
  8
Layer_2
  10
577.70586
  20
346.30777
  0
VERTEX
  5
a5
  8
Layer_2
  10
550.7179
  20
353.53915
  0
SEQEND
  0
POLYLINE
  5
a7
  8
Layer_2
  62
173
  66
1
  10
0
  20
0
  30
0
  0
VERTEX
  5
a7
  8
Layer_2
  10
530.43712
  20
340.1069
  42
0.19866056
  0
VERTEX
  5
a8
  8
Layer_2
  10
529.19833
  20
340.61963
  42
0.18557002
  0
VERTEX
  5
a9
  8
Layer_2
  10
528.02426
  20
340.16837
  42
0.11131858
  0
VERTEX
  5
aa
  8
Layer_2
  10
527.5798
  20
339.53899
  0
VERTEX
  5
ab
  8
Layer_2
  10
527.55562
  20
339.47739
  42
0.29334965
  0
VERTEX
  5
ac
  8
Layer_2
  10
527.95956
  20
337.63123
  0
VERTEX
  5
ad
  8
Layer_2
  10
528.00726
  20
337.58533
  42
0.29288129
  0
VERTEX
  5
ae
  8
Layer_2
  10
529.86876
  20
337.25175
  0
VERTEX
  5
af
  8
Layer_2
  10
529.92946
  20
337.27823
  42
0.29319112
  0
VERTEX
  5
b0
  8
Layer_2
  10
530.95023
  20
338.86908
  42
0.19897858
  0
VERTEX
  5
b1
  8
Layer_2
  10
530.43712
  20
340.1069
  0
SEQEND
  0
POLYLINE
  5
b3
  8
Layer_2
  62
173
  66
1
  10
0
  20
0
  30
0
  0
VERTEX
  5
b3
  8
Layer_2
  10
663.90753
  20
342.76077
  42
0.1995113
  0
VERTEX
  5
b4
  8
Layer_2
  10
663.39442
  20
343.99864
  42
0.19871597
  0
VERTEX
  5
b5
  8
Layer_2
  10
662.15561
  20
344.5114
  42
0.092902552
  0
VERTEX
  5
b6
  8
Layer_2
  10
661.52084
  20
344.39252
  42
0.20515545
  0
VERTEX
  5
b7
  8
Layer_2
  10
660.53705
  20
343.43073
  0
VERTEX
  5
b8
  8
Layer_2
  10
660.51286
  20
343.36911
  42
0.29336654
  0
VERTEX
  5
b9
  8
Layer_2
  10
660.91681
  20
341.52289
  0
VERTEX
  5
ba
  8
Layer_2
  10
660.96452
  20
341.47699
  42
0.2927928
  0
VERTEX
  5
bb
  8
Layer_2
  10
662.82603
  20
341.14343
  42
0.30357907
  0
VERTEX
  5
bc
  8
Layer_2
  10
663.90753
  20
342.76077
  0
SEQEND
  0
POLYLINE
  5
be
  8
Layer_2
  62
173
  66
1
  10
0
  20
0
  30
0
  0
VERTEX
  5
be
  8
Layer_2
  10
672.70569
  20
309.91939
  42
0.19906916
  0
VERTEX
  5
bf
  8
Layer_2
  10
672.19257
  20
311.1572
  42
0.19890721
  0
VERTEX
  5
c0
  8
Layer_2
  10
670.95378
  20
311.66991
  42
0.05595527
  0
VERTEX
  5
c1
  8
Layer_2
  10
670.56453
  20
311.62624
  42
0.24304917
  0
VERTEX
  5
c2
  8
Layer_2
  10
669.33524
  20
310.58929
  0
VERTEX
  5
c3
  8
Layer_2
  10
669.31105
  20
310.52768
  42
0.29331431
  0
VERTEX
  5
c4
  8
Layer_2
  10
669.715
  20
308.68158
  0
VERTEX
  5
c5
  8
Layer_2
  10
669.7627
  20
308.63568
  42
0.2929514
  0
VERTEX
  5
c6
  8
Layer_2
  10
671.62421
  20
308.30212
  42
0.30329372
  0
VERTEX
  5
c7
  8
Layer_2
  10
672.70569
  20
309.91939
  0
SEQEND
  0
POLYLINE
  5
c9
  8
Layer_2
  62
173
  66
1
  10
0
  20
0
  30
0
  0
VERTEX
  5
c9
  8
Layer_2
  10
605.41838
  20
280.92278
  42
0.19904802
  0
VERTEX
  5
ca
  8
Layer_2
  10
604.90524
  20
282.1606
  42
0.19879269
  0
VERTEX
  5
cb
  8
Layer_2
  10
603.66644
  20
282.67334
  42
0.036949275
  0
VERTEX
  5
cc
  8
Layer_2
  10
603.40456
  20
282.65373
  42
0.26274756
  0
VERTEX
  5
cd
  8
Layer_2
  10
602.04785
  20
281.59268
  0
VERTEX
  5
ce
  8
Layer_2
  10
602.02367
  20
281.53108
  42
0.29320445
  0
VERTEX
  5
cf
  8
Layer_2
  10
602.42763
  20
279.68495
  0
VERTEX
  5
d0
  8
Layer_2
  10
602.47533
  20
279.63904
  42
0.2929019
  0
VERTEX
  5
d1
  8
Layer_2
  10
604.33688
  20
279.30548
  42
0.30348019
  0
VERTEX
  5
d2
  8
Layer_2
  10
605.41838
  20
280.92278
  0
SEQEND
  0
POLYLINE
  5
d4
  8
Layer_2
  62
173
  66
1
  10
0
  20
0
  30
0
  0
VERTEX
  5
d4
  8
Layer_2
  10
608.55038
  20
338.86975
  42
0.19877471
  0
VERTEX
  5
d5
  8
Layer_2
  10
608.03731
  20
340.10762
  42
0.19860858
  0
VERTEX
  5
d6
  8
Layer_2
  10
606.79855
  20
340.62036
  42
0.11138475
  0
VERTEX
  5
d7
  8
Layer_2
  10
606.04657
  20
340.45091
  42
0.18577498
  0
VERTEX
  5
d8
  8
Layer_2
  10
605.18007
  20
339.53967
  0
VERTEX
  5
d9
  8
Layer_2
  10
605.15588
  20
339.47807
  42
0.29344193
  0
VERTEX
  5
da
  8
Layer_2
  10
605.55981
  20
337.6319
  0
VERTEX
  5
db
  8
Layer_2
  10
605.60753
  20
337.58598
  42
0.29286615
  0
VERTEX
  5
dc
  8
Layer_2
  10
607.46895
  20
337.25241
  42
0.30347997
  0
VERTEX
  5
dd
  8
Layer_2
  10
608.55038
  20
338.86975
  0
SEQEND
  0
POLYLINE
  5
df
  8
Layer_2
  62
173
  66
1
  10
0
  20
0
  30
0
  0
VERTEX
  5
df
  8
Layer_2
  10
534.08322
  20
280.923
  42
0.19904041
  0
VERTEX
  5
e0
  8
Layer_2
  10
533.5701
  20
282.16086
  42
0.19880284
  0
VERTEX
  5
e1
  8
Layer_2
  10
532.3313
  20
282.67358
  42
0.065259912
  0
VERTEX
  5
e2
  8
Layer_2
  10
531.87939
  20
282.61443
  42
0.23337843
  0
VERTEX
  5
e3
  8
Layer_2
  10
530.71271
  20
281.59293
  0
VERTEX
  5
e4
  8
Layer_2
  10
530.68852
  20
281.53133
  42
0.29320863
  0
VERTEX
  5
e5
  8
Layer_2
  10
531.09248
  20
279.68517
  0
VERTEX
  5
e6
  8
Layer_2
  10
531.1402
  20
279.63927
  42
0.29291016
  0
VERTEX
  5
e7
  8
Layer_2
  10
533.00174
  20
279.30569
  42
0.30347831
  0
VERTEX
  5
e8
  8
Layer_2
  10
534.08322
  20
280.923
  0
SEQEND
  0
POLYLINE
  5
ea
  8
Layer_2
  62
173
  66
1
  10
0
  20
0
  30
0
  0
VERTEX
  5
ea
  8
Layer_2
  10
466.29338
  20
311.19791
  42
-0.19900848
  0
VERTEX
  5
eb
  8
Layer_2
  10
466.8065
  20
309.96008
  42
-0.29315231
  0
VERTEX
  5
ec
  8
Layer_2
  10
465.78572
  20
308.36925
  0
VERTEX
  5
ed
  8
Layer_2
  10
465.72501
  20
308.34279
  42
-0.29289949
  0
VERTEX
  5
ee
  8
Layer_2
  10
463.86351
  20
308.67636
  0
VERTEX
  5
ef
  8
Layer_2
  10
463.81581
  20
308.72226
  42
-0.29327516
  0
VERTEX
  5
f0
  8
Layer_2
  10
463.41185
  20
310.56839
  0
VERTEX
  5
f1
  8
Layer_2
  10
463.43604
  20
310.63
  0
VERTEX
  5
f2
  8
Layer_2
  10
463.46252
  20
310.69066
  42
-0.29298407
  0
VERTEX
  5
f3
  8
Layer_2
  10
465.0546
  20
311.71065
  42
-0.19880902
  0
VERTEX
  5
f4
  8
Layer_2
  10
466.29338
  20
311.19791
  0
SEQEND
  0
POLYLINE
  5
f6
  8
Layer_2
  62
173
  66
1
  10
0
  20
0
  30
0
  0
VERTEX
  5
f6
  8
Layer_2
  10
475.09302
  20
344.03976
  42
-0.19894246
  0
VERTEX
  5
f7
  8
Layer_2
  10
475.60612
  20
342.80194
  42
-0.29320355
  0
VERTEX
  5
f8
  8
Layer_2
  10
474.58534
  20
341.21112
  0
VERTEX
  5
f9
  8
Layer_2
  10
474.52464
  20
341.18463
  42
-0.29291825
  0
VERTEX
  5
fa
  8
Layer_2
  10
472.66312
  20
341.51822
  0
VERTEX
  5
fb
  8
Layer_2
  10
472.61542
  20
341.56412
  42
-0.29322918
  0
VERTEX
  5
fc
  8
Layer_2
  10
472.21146
  20
343.41025
  0
VERTEX
  5
fd
  8
Layer_2
  10
472.23566
  20
343.47185
  42
-0.30332518
  0
VERTEX
  5
fe
  8
Layer_2
  10
473.85422
  20
344.55249
  42
-0.19878993
  0
VERTEX
  5
ff
  8
Layer_2
  10
475.09302
  20
344.03976
  0
SEQEND
  0
POLYLINE
  5
101
  8
Layer_2
  62
173
  66
1
  10
0
  20
0
  30
0
  0
VERTEX
  5
101
  8
Layer_2
  10
583.50047
  20
353.91504
  42
0.26814846
  0
VERTEX
  5
102
  8
Layer_2
  10
583.26753
  20
354.78438
  0
VERTEX
  5
103
  8
Layer_2
  10
583.24593
  20
354.8053
  42
0.25898195
  0
VERTEX
  5
104
  8
Layer_2
  10
582.39819
  20
355.01732
  42
0.08045566
  0
VERTEX
  5
105
  8
Layer_2
  10
582.12973
  20
354.89539
  42
0.18159294
  0
VERTEX
  5
106
  8
Layer_2
  10
581.7618
  20
354.38092
  0
VERTEX
  5
107
  8
Layer_2
  10
580.8844
  20
351.10643
  0
VERTEX
  5
108
  8
Layer_2
  10
582.62306
  20
350.64056
  0
VERTEX
  5
109
  8
Layer_2
  10
583.50047
  20
353.91504
  0
SEQEND
  0
POLYLINE
  5
10b
  8
Layer_2
  62
173
  66
1
  10
0
  20
0
  30
0
  0
VERTEX
  5
10b
  8
Layer_2
  10
561.46111
  20
362.48819
  0
VERTEX
  5
10c
  8
Layer_2
  10
559.90817
  20
356.69264
  0
VERTEX
  5
10d
  8
Layer_2
  10
551.69781
  20
358.89258
  0
VERTEX
  5
10e
  8
Layer_2
  10
553.25073
  20
364.68816
  0
VERTEX
  5
10f
  8
Layer_2
  10
561.46111
  20
362.48819
  0
SEQEND
  0
POLYLINE
  5
111
  8
Layer_2
  62
173
  66
1
  10
0
  20
0
  30
0
  0
VERTEX
  5
111
  8
Layer_2
  10
469.22316
  20
353.78973
  0
VERTEX
  5
112
  8
Layer_2
  10
470.9037
  20
347.63016
  0
VERTEX
  5
113
  8
Layer_2
  10
470.20488
  20
345.02216
  0
VERTEX
  5
114
  8
Layer_2
  10
467.81757
  20
344.41949
  0
VERTEX
  5
115
  8
Layer_2
  10
462.69815
  20
345.79123
  0
VERTEX
  5
116
  8
Layer_2
  10
458.67595
  20
348.93954
  0
VERTEX
  5
117
  8
Layer_2
  10
457.00984
  20
350.83536
  0
VERTEX
  5
118
  8
Layer_2
  10
457.70865
  20
353.44336
  0
VERTEX
  5
119
  8
Layer_2
  10
461.86826
  20
355.53206
  42
-0.14159583
  0
VERTEX
  5
11a
  8
Layer_2
  10
462.36188
  20
355.60532
  0
VERTEX
  5
11b
  8
Layer_2
  10
467.83122
  20
354.96149
  42
-0.29026633
  0
VERTEX
  5
11c
  8
Layer_2
  10
469.22316
  20
353.78973
  0
SEQEND
  0
POLYLINE
  5
11e
  8
Layer_2
  62
173
  66
1
  10
0
  20
0
  30
0
  0
VERTEX
  5
11e
  8
Layer_2
  10
473.58705
  20
352.52516
  42
-0.19873812
  0
VERTEX
  5
11f
  8
Layer_2
  10
473.86531
  20
351.85341
  42
-0.2829422
  0
VERTEX
  5
120
  8
Layer_2
  10
473.34395
  20
351.00558
  0
VERTEX
  5
121
  8
Layer_2
  10
473.27885
  20
350.97574
  42
-0.28290739
  0
VERTEX
  5
122
  8
Layer_2
  10
472.29605
  20
351.13297
  0
VERTEX
  5
123
  8
Layer_2
  10
472.24356
  20
351.18166
  42
-0.28280507
  0
VERTEX
  5
124
  8
Layer_2
  10
472.01273
  20
352.14981
  0
VERTEX
  5
125
  8
Layer_2
  10
472.03763
  20
352.21695
  42
-0.30351606
  0
VERTEX
  5
126
  8
Layer_2
  10
472.91531
  20
352.80341
  42
-0.19894285
  0
VERTEX
  5
127
  8
Layer_2
  10
473.58705
  20
352.52516
  0
SEQEND
  0
POLYLINE
  5
129
  8
Layer_2
  62
173
  66
1
  10
0
  20
0
  30
0
  0
VERTEX
  5
129
  8
Layer_2
  10
511.98172
  20
304.72672
  0
VERTEX
  5
12a
  8
Layer_2
  10
513.66226
  20
298.56711
  0
VERTEX
  5
12b
  8
Layer_2
  10
512.96344
  20
295.95912
  0
VERTEX
  5
12c
  8
Layer_2
  10
510.57611
  20
295.35648
  0
VERTEX
  5
12d
  8
Layer_2
  10
505.45671
  20
296.72821
  0
VERTEX
  5
12e
  8
Layer_2
  10
501.43449
  20
299.87651
  0
VERTEX
  5
12f
  8
Layer_2
  10
499.7684
  20
301.77232
  0
VERTEX
  5
130
  8
Layer_2
  10
500.46721
  20
304.38033
  0
VERTEX
  5
131
  8
Layer_2
  10
504.6268
  20
306.46902
  42
-0.14170678
  0
VERTEX
  5
132
  8
Layer_2
  10
505.12042
  20
306.5423
  0
VERTEX
  5
133
  8
Layer_2
  10
510.58978
  20
305.89847
  42
-0.29023316
  0
VERTEX
  5
134
  8
Layer_2
  10
511.98172
  20
304.72672
  0
SEQEND
  0
POLYLINE
  5
136
  8
Layer_2
  62
173
  66
1
  10
0
  20
0
  30
0
  0
VERTEX
  5
136
  8
Layer_2
  10
516.62386
  20
302.79037
  42
0.1987835
  0
VERTEX
  5
137
  8
Layer_2
  10
516.34561
  20
303.46213
  42
0.19898395
  0
VERTEX
  5
138
  8
Layer_2
  10
515.67386
  20
303.74039
  42
0.13001675
  0
VERTEX
  5
139
  8
Layer_2
  10
515.2048
  20
303.61652
  42
0.16699914
  0
VERTEX
  5
13a
  8
Layer_2
  10
514.79617
  20
303.15393
  0
VERTEX
  5
13b
  8
Layer_2
  10
514.77127
  20
303.08679
  42
0.28291445
  0
VERTEX
  5
13c
  8
Layer_2
  10
515.00211
  20
302.11862
  0
VERTEX
  5
13d
  8
Layer_2
  10
515.0546
  20
302.06993
  42
0.28286828
  0
VERTEX
  5
13e
  8
Layer_2
  10
516.03741
  20
301.91269
  42
0.30337473
  0
VERTEX
  5
13f
  8
Layer_2
  10
516.62386
  20
302.79037
  0
SEQEND
  0
POLYLINE
  5
141
  8
Layer_2
  62
173
  66
1
  10
0
  20
0
  30
0
  0
VERTEX
  5
141
  8
Layer_2
  10
493.32098
  20
304.63055
  0
VERTEX
  5
142
  8
Layer_2
  10
495.00153
  20
298.47098
  0
VERTEX
  5
143
  8
Layer_2
  10
494.3027
  20
295.86298
  0
VERTEX
  5
144
  8
Layer_2
  10
491.91539
  20
295.26031
  0
VERTEX
  5
145
  8
Layer_2
  10
486.79599
  20
296.63205
  0
VERTEX
  5
146
  8
Layer_2
  10
482.77377
  20
299.78036
  0
VERTEX
  5
147
  8
Layer_2
  10
481.10767
  20
301.67618
  0
VERTEX
  5
148
  8
Layer_2
  10
481.80649
  20
304.28418
  0
VERTEX
  5
149
  8
Layer_2
  10
485.96606
  20
306.37288
  42
-0.14104747
  0
VERTEX
  5
14a
  8
Layer_2
  10
486.4597
  20
306.44614
  0
VERTEX
  5
14b
  8
Layer_2
  10
491.92905
  20
305.80231
  42
-0.29020321
  0
VERTEX
  5
14c
  8
Layer_2
  10
493.32098
  20
304.63055
  0
SEQEND
  0
POLYLINE
  5
14e
  8
Layer_2
  62
173
  66
1
  10
0
  20
0
  30
0
  0
VERTEX
  5
14e
  8
Layer_2
  10
497.96313
  20
302.69423
  42
-0.28284401
  0
VERTEX
  5
14f
  8
Layer_2
  10
497.44176
  20
301.84642
  0
VERTEX
  5
150
  8
Layer_2
  10
497.37668
  20
301.81654
  42
-0.28281035
  0
VERTEX
  5
151
  8
Layer_2
  10
496.39388
  20
301.97377
  0
VERTEX
  5
152
  8
Layer_2
  10
496.34137
  20
302.02248
  42
-0.28295379
  0
VERTEX
  5
153
  8
Layer_2
  10
496.11053
  20
302.99063
  0
VERTEX
  5
154
  8
Layer_2
  10
496.13544
  20
303.05777
  42
-0.13004248
  0
VERTEX
  5
155
  8
Layer_2
  10
496.42938
  20
303.44373
  42
-0.16691353
  0
VERTEX
  5
156
  8
Layer_2
  10
497.01312
  20
303.64423
  42
-0.19893569
  0
VERTEX
  5
157
  8
Layer_2
  10
497.68503
  20
303.36607
  42
-0.19914871
  0
VERTEX
  5
158
  8
Layer_2
  10
497.96313
  20
302.69423
  0
SEQEND
  0
POLYLINE
  5
15a
  8
Layer_2
  62
173
  66
1
  10
0
  20
0
  30
0
  0
VERTEX
  5
15a
  8
Layer_2
  10
473.29222
  20
305.79541
  0
VERTEX
  5
15b
  8
Layer_2
  10
467.82288
  20
306.43924
  42
0.14150228
  0
VERTEX
  5
15c
  8
Layer_2
  10
467.32925
  20
306.36598
  0
VERTEX
  5
15d
  8
Layer_2
  10
463.16965
  20
304.27727
  0
VERTEX
  5
15e
  8
Layer_2
  10
462.47084
  20
301.66927
  0
VERTEX
  5
15f
  8
Layer_2
  10
464.13695
  20
299.77347
  0
VERTEX
  5
160
  8
Layer_2
  10
468.15915
  20
296.62515
  0
VERTEX
  5
161
  8
Layer_2
  10
473.27856
  20
295.25342
  0
VERTEX
  5
162
  8
Layer_2
  10
475.66589
  20
295.85608
  0
VERTEX
  5
163
  8
Layer_2
  10
476.3647
  20
298.46407
  0
VERTEX
  5
164
  8
Layer_2
  10
474.68416
  20
304.62366
  42
0.2902378
  0
VERTEX
  5
165
  8
Layer_2
  10
473.29222
  20
305.79541
  0
SEQEND
  0
POLYLINE
  5
167
  8
Layer_2
  62
173
  66
1
  10
0
  20
0
  30
0
  0
VERTEX
  5
167
  8
Layer_2
  10
479.04805
  20
303.35907
  42
-0.19891352
  0
VERTEX
  5
168
  8
Layer_2
  10
479.32631
  20
302.68733
  42
-0.28288147
  0
VERTEX
  5
169
  8
Layer_2
  10
478.80495
  20
301.83951
  0
VERTEX
  5
16a
  8
Layer_2
  10
478.73985
  20
301.80963
  42
-0.28288556
  0
VERTEX
  5
16b
  8
Layer_2
  10
477.75705
  20
301.96687
  0
VERTEX
  5
16c
  8
Layer_2
  10
477.70454
  20
302.01558
  42
-0.282974
  0
VERTEX
  5
16d
  8
Layer_2
  10
477.47371
  20
302.98373
  0
VERTEX
  5
16e
  8
Layer_2
  10
477.49861
  20
303.05087
  42
-0.074266682
  0
VERTEX
  5
16f
  8
Layer_2
  10
477.64375
  20
303.29227
  42
-0.22381023
  0
VERTEX
  5
170
  8
Layer_2
  10
478.37631
  20
303.63733
  42
-0.1988855
  0
VERTEX
  5
171
  8
Layer_2
  10
479.04805
  20
303.35907
  0
SEQEND
  0
POLYLINE
  5
173
  8
Layer_2
  62
173
  66
1
  10
0
  20
0
  30
0
  0
VERTEX
  5
173
  8
Layer_2
  10
456.02342
  20
304.52751
  0
VERTEX
  5
174
  8
Layer_2
  10
457.70395
  20
298.36792
  0
VERTEX
  5
175
  8
Layer_2
  10
457.00514
  20
295.75992
  0
VERTEX
  5
176
  8
Layer_2
  10
454.61783
  20
295.15727
  0
VERTEX
  5
177
  8
Layer_2
  10
449.49841
  20
296.52901
  0
VERTEX
  5
178
  8
Layer_2
  10
445.47621
  20
299.67731
  0
VERTEX
  5
179
  8
Layer_2
  10
443.81012
  20
301.57312
  0
VERTEX
  5
17a
  8
Layer_2
  10
444.50891
  20
304.18112
  0
VERTEX
  5
17b
  8
Layer_2
  10
448.6685
  20
306.26984
  42
-0.14151793
  0
VERTEX
  5
17c
  8
Layer_2
  10
449.16214
  20
306.34309
  0
VERTEX
  5
17d
  8
Layer_2
  10
454.63148
  20
305.69925
  42
-0.2902395
  0
VERTEX
  5
17e
  8
Layer_2
  10
456.02342
  20
304.52751
  0
SEQEND
  0
POLYLINE
  5
180
  8
Layer_2
  62
173
  66
1
  10
0
  20
0
  30
0
  0
VERTEX
  5
180
  8
Layer_2
  10
460.38731
  20
303.26292
  42
-0.19892638
  0
VERTEX
  5
181
  8
Layer_2
  10
460.66556
  20
302.59119
  42
-0.28291487
  0
VERTEX
  5
182
  8
Layer_2
  10
460.1442
  20
301.74335
  0
VERTEX
  5
183
  8
Layer_2
  10
460.07912
  20
301.71349
  42
-0.28291092
  0
VERTEX
  5
184
  8
Layer_2
  10
459.09631
  20
301.87073
  0
VERTEX
  5
185
  8
Layer_2
  10
459.04381
  20
301.91943
  42
-0.28289652
  0
VERTEX
  5
186
  8
Layer_2
  10
458.81297
  20
302.88759
  0
VERTEX
  5
187
  8
Layer_2
  10
458.83788
  20
302.95473
  42
-0.30340642
  0
VERTEX
  5
188
  8
Layer_2
  10
459.71556
  20
303.54118
  42
-0.19890335
  0
VERTEX
  5
189
  8
Layer_2
  10
460.38731
  20
303.26292
  0
SEQEND
  0
POLYLINE
  5
18b
  8
Layer_2
  62
173
  66
1
  10
0
  20
0
  30
0
  0
VERTEX
  5
18b
  8
Layer_2
  10
676.56212
  20
321.96744
  42
-0.035201629
  0
VERTEX
  5
18c
  8
Layer_2
  10
676.7939
  20
322.0435
  42
-0.25154418
  0
VERTEX
  5
18d
  8
Layer_2
  10
678.35344
  20
321.64864
  0
VERTEX
  5
18e
  8
Layer_2
  10
682.88864
  20
317.15454
  0
VERTEX
  5
18f
  8
Layer_2
  10
683.58743
  20
314.54655
  0
VERTEX
  5
190
  8
Layer_2
  10
681.82129
  20
312.83096
  0
VERTEX
  5
191
  8
Layer_2
  10
676.70187
  20
311.45923
  0
VERTEX
  5
192
  8
Layer_2
  10
671.64439
  20
312.17464
  0
VERTEX
  5
193
  8
Layer_2
  10
669.25359
  20
312.9834
  0
VERTEX
  5
194
  8
Layer_2
  10
668.55478
  20
315.59142
  0
VERTEX
  5
195
  8
Layer_2
  10
671.11273
  20
319.48007
  42
-0.13158839
  0
VERTEX
  5
196
  8
Layer_2
  10
671.47443
  20
319.77774
  0
VERTEX
  5
197
  8
Layer_2
  10
671.5036
  20
319.79033
  0
VERTEX
  5
198
  8
Layer_2
  10
676.56212
  20
321.96744
  0
SEQEND
  0
POLYLINE
  5
19a
  8
Layer_2
  62
173
  66
1
  10
0
  20
0
  30
0
  0
VERTEX
  5
19a
  8
Layer_2
  10
683.4691
  20
321.81779
  42
0.41395803
  0
VERTEX
  5
19b
  8
Layer_2
  10
682.51909
  20
322.76779
  42
0.051533987
  0
VERTEX
  5
19c
  8
Layer_2
  10
682.30801
  20
322.74409
  42
0.24379643
  0
VERTEX
  5
19d
  8
Layer_2
  10
681.6414
  20
322.18135
  0
VERTEX
  5
19e
  8
Layer_2
  10
681.6165
  20
322.1142
  42
0.28282435
  0
VERTEX
  5
19f
  8
Layer_2
  10
681.84735
  20
321.14606
  0
VERTEX
  5
1a0
  8
Layer_2
  10
681.89984
  20
321.09735
  42
0.28283804
  0
VERTEX
  5
1a1
  8
Layer_2
  10
682.88264
  20
320.94012
  42
0.30299078
  0
VERTEX
  5
1a2
  8
Layer_2
  10
683.4691
  20
321.81779
  0
SEQEND
  0
POLYLINE
  5
1a4
  8
Layer_2
  62
173
  66
1
  10
0
  20
0
  30
0
  0
VERTEX
  5
1a4
  8
Layer_2
  10
652.44089
  20
319.61777
  0
VERTEX
  5
1a5
  8
Layer_2
  10
649.88292
  20
315.7291
  0
VERTEX
  5
1a6
  8
Layer_2
  10
650.58173
  20
313.12109
  0
VERTEX
  5
1a7
  8
Layer_2
  10
652.97252
  20
312.31232
  0
VERTEX
  5
1a8
  8
Layer_2
  10
658.03
  20
311.59692
  0
VERTEX
  5
1a9
  8
Layer_2
  10
663.14941
  20
312.96866
  0
VERTEX
  5
1aa
  8
Layer_2
  10
664.91557
  20
314.68423
  0
VERTEX
  5
1ab
  8
Layer_2
  10
664.21677
  20
317.29224
  0
VERTEX
  5
1ac
  8
Layer_2
  10
659.68158
  20
321.78632
  42
0.26132124
  0
VERTEX
  5
1ad
  8
Layer_2
  10
658.06349
  20
322.16542
  42
0.027452556
  0
VERTEX
  5
1ae
  8
Layer_2
  10
657.89026
  20
322.10512
  0
VERTEX
  5
1af
  8
Layer_2
  10
652.83174
  20
319.92802
  0
VERTEX
  5
1b0
  8
Layer_2
  10
652.80257
  20
319.91544
  42
0.13251115
  0
VERTEX
  5
1b1
  8
Layer_2
  10
652.44089
  20
319.61777
  0
SEQEND
  0
POLYLINE
  5
1b3
  8
Layer_2
  62
173
  66
1
  10
0
  20
0
  30
0
  0
VERTEX
  5
1b3
  8
Layer_2
  10
664.79724
  20
321.95549
  0
VERTEX
  5
1b4
  8
Layer_2
  10
664.79694
  20
321.97908
  42
0.19189509
  0
VERTEX
  5
1b5
  8
Layer_2
  10
664.51898
  20
322.62723
  42
0.19889488
  0
VERTEX
  5
1b6
  8
Layer_2
  10
663.84723
  20
322.90549
  42
0.056467253
  0
VERTEX
  5
1b7
  8
Layer_2
  10
663.63615
  20
322.88179
  42
0.24297343
  0
VERTEX
  5
1b8
  8
Layer_2
  10
662.96954
  20
322.31903
  0
VERTEX
  5
1b9
  8
Layer_2
  10
662.94464
  20
322.25189
  42
0.2822778
  0
VERTEX
  5
1ba
  8
Layer_2
  10
663.17549
  20
321.28374
  0
VERTEX
  5
1bb
  8
Layer_2
  10
663.22798
  20
321.23505
  42
0.28311785
  0
VERTEX
  5
1bc
  8
Layer_2
  10
664.21078
  20
321.07779
  42
0.30376782
  0
VERTEX
  5
1bd
  8
Layer_2
  10
664.79724
  20
321.95549
  0
SEQEND
  0
POLYLINE
  5
1bf
  8
Layer_2
  62
173
  66
1
  10
0
  20
0
  30
0
  0
VERTEX
  5
1bf
  8
Layer_2
  10
639.25354
  20
322.11162
  42
-0.026535805
  0
VERTEX
  5
1c0
  8
Layer_2
  10
639.42679
  20
322.17192
  42
-0.26112864
  0
VERTEX
  5
1c1
  8
Layer_2
  10
641.04486
  20
321.79283
  0
VERTEX
  5
1c2
  8
Layer_2
  10
645.58005
  20
317.29874
  0
VERTEX
  5
1c3
  8
Layer_2
  10
646.27887
  20
314.69073
  0
VERTEX
  5
1c4
  8
Layer_2
  10
644.5127
  20
312.97516
  0
VERTEX
  5
1c5
  8
Layer_2
  10
639.39331
  20
311.60342
  0
VERTEX
  5
1c6
  8
Layer_2
  10
634.33582
  20
312.31882
  0
VERTEX
  5
1c7
  8
Layer_2
  10
631.94501
  20
313.12759
  0
VERTEX
  5
1c8
  8
Layer_2
  10
631.2462
  20
315.7356
  0
VERTEX
  5
1c9
  8
Layer_2
  10
633.80417
  20
319.62427
  42
-0.13353897
  0
VERTEX
  5
1ca
  8
Layer_2
  10
634.16586
  20
319.92194
  0
VERTEX
  5
1cb
  8
Layer_2
  10
634.19504
  20
319.93451
  0
VERTEX
  5
1cc
  8
Layer_2
  10
639.25354
  20
322.11162
  0
SEQEND
  0
POLYLINE
  5
1ce
  8
Layer_2
  62
173
  66
1
  10
0
  20
0
  30
0
  0
VERTEX
  5
1ce
  8
Layer_2
  10
646.16052
  20
321.96199
  42
0.41425615
  0
VERTEX
  5
1cf
  8
Layer_2
  10
645.21053
  20
322.91199
  42
0.073942308
  0
VERTEX
  5
1d0
  8
Layer_2
  10
644.93196
  20
322.87027
  42
0.22421237
  0
VERTEX
  5
1d1
  8
Layer_2
  10
644.33284
  20
322.32553
  0
VERTEX
  5
1d2
  8
Layer_2
  10
644.30794
  20
322.25839
  42
0.28315168
  0
VERTEX
  5
1d3
  8
Layer_2
  10
644.53877
  20
321.29024
  0
VERTEX
  5
1d4
  8
Layer_2
  10
644.59128
  20
321.24155
  42
0.28335885
  0
VERTEX
  5
1d5
  8
Layer_2
  10
645.57408
  20
321.0843
  42
0.30318339
  0
VERTEX
  5
1d6
  8
Layer_2
  10
646.16052
  20
321.96199
  0
SEQEND
  0
POLYLINE
  5
1d8
  8
Layer_2
  62
173
  66
1
  10
0
  20
0
  30
0
  0
VERTEX
  5
1d8
  8
Layer_2
  10
604.28171
  20
313.535
  0
VERTEX
  5
1d9
  8
Layer_2
  10
599.22319
  20
311.35789
  0
VERTEX
  5
1da
  8
Layer_2
  10
599.19402
  20
311.34531
  42
0.1321256
  0
VERTEX
  5
1db
  8
Layer_2
  10
598.83232
  20
311.04765
  0
VERTEX
  5
1dc
  8
Layer_2
  10
596.27437
  20
307.15898
  0
VERTEX
  5
1dd
  8
Layer_2
  10
596.97318
  20
304.55098
  0
VERTEX
  5
1de
  8
Layer_2
  10
599.36397
  20
303.7422
  0
VERTEX
  5
1df
  8
Layer_2
  10
604.42145
  20
303.02679
  0
VERTEX
  5
1e0
  8
Layer_2
  10
609.54088
  20
304.39854
  0
VERTEX
  5
1e1
  8
Layer_2
  10
611.30702
  20
306.11411
  0
VERTEX
  5
1e2
  8
Layer_2
  10
610.60822
  20
308.72211
  0
VERTEX
  5
1e3
  8
Layer_2
  10
606.07303
  20
313.21622
  42
0.270836
  0
VERTEX
  5
1e4
  8
Layer_2
  10
604.39676
  20
313.57736
  42
0.022339854
  0
VERTEX
  5
1e5
  8
Layer_2
  10
604.28171
  20
313.535
  0
SEQEND
  0
POLYLINE
  5
1e7
  8
Layer_2
  62
173
  66
1
  10
0
  20
0
  30
0
  0
VERTEX
  5
1e7
  8
Layer_2
  10
611.18869
  20
313.38538
  42
0.41410283
  0
VERTEX
  5
1e8
  8
Layer_2
  10
610.23868
  20
314.33537
  42
0.075222166
  0
VERTEX
  5
1e9
  8
Layer_2
  10
609.96013
  20
314.29366
  42
0.22385244
  0
VERTEX
  5
1ea
  8
Layer_2
  10
609.36099
  20
313.74892
  0
VERTEX
  5
1eb
  8
Layer_2
  10
609.33609
  20
313.68178
  42
0.28284733
  0
VERTEX
  5
1ec
  8
Layer_2
  10
609.56693
  20
312.71362
  0
VERTEX
  5
1ed
  8
Layer_2
  10
609.61943
  20
312.66492
  42
0.28237008
  0
VERTEX
  5
1ee
  8
Layer_2
  10
610.60223
  20
312.50768
  42
0.30372447
  0
VERTEX
  5
1ef
  8
Layer_2
  10
611.18869
  20
313.38538
  0
SEQEND
  0
POLYLINE
  5
1f1
  8
Layer_2
  62
173
  66
1
  10
0
  20
0
  30
0
  0
VERTEX
  5
1f1
  8
Layer_2
  10
582.91206
  20
302.68512
  0
VERTEX
  5
1f2
  8
Layer_2
  10
587.97058
  20
304.86221
  42
-0.02692258
  0
VERTEX
  5
1f3
  8
Layer_2
  10
588.14381
  20
304.92252
  42
-0.26114513
  0
VERTEX
  5
1f4
  8
Layer_2
  10
589.7619
  20
304.54343
  0
VERTEX
  5
1f5
  8
Layer_2
  10
594.29709
  20
300.04935
  0
VERTEX
  5
1f6
  8
Layer_2
  10
594.9959
  20
297.44135
  0
VERTEX
  5
1f7
  8
Layer_2
  10
593.22974
  20
295.72577
  0
VERTEX
  5
1f8
  8
Layer_2
  10
588.11034
  20
294.35402
  0
VERTEX
  5
1f9
  8
Layer_2
  10
583.05284
  20
295.06943
  0
VERTEX
  5
1fa
  8
Layer_2
  10
580.66205
  20
295.8782
  0
VERTEX
  5
1fb
  8
Layer_2
  10
579.96324
  20
298.48621
  0
VERTEX
  5
1fc
  8
Layer_2
  10
582.52121
  20
302.37486
  42
-0.13258749
  0
VERTEX
  5
1fd
  8
Layer_2
  10
582.8829
  20
302.67253
  0
VERTEX
  5
1fe
  8
Layer_2
  10
582.91206
  20
302.68512
  0
SEQEND
  0
POLYLINE
  5
200
  8
Layer_2
  62
173
  66
1
  10
0
  20
0
  30
0
  0
VERTEX
  5
200
  8
Layer_2
  10
594.87756
  20
304.71259
  42
0.19891299
  0
VERTEX
  5
201
  8
Layer_2
  10
594.59932
  20
305.38434
  42
0.19898625
  0
VERTEX
  5
202
  8
Layer_2
  10
593.92757
  20
305.6626
  42
0.074239577
  0
VERTEX
  5
203
  8
Layer_2
  10
593.649
  20
305.62088
  42
0.22343643
  0
VERTEX
  5
204
  8
Layer_2
  10
593.04988
  20
305.07614
  0
VERTEX
  5
205
  8
Layer_2
  10
593.02498
  20
305.009
  42
0.28272925
  0
VERTEX
  5
206
  8
Layer_2
  10
593.2558
  20
304.04083
  0
VERTEX
  5
207
  8
Layer_2
  10
593.3083
  20
303.99213
  42
0.28319032
  0
VERTEX
  5
208
  8
Layer_2
  10
594.29112
  20
303.8349
  42
0.30340933
  0
VERTEX
  5
209
  8
Layer_2
  10
594.87756
  20
304.71259
  0
SEQEND
  0
POLYLINE
  5
20b
  8
Layer_2
  62
173
  66
1
  10
0
  20
0
  30
0
  0
VERTEX
  5
20b
  8
Layer_2
  10
541.64894
  20
305.54424
  0
VERTEX
  5
20c
  8
Layer_2
  10
537.48935
  20
303.45554
  0
VERTEX
  5
20d
  8
Layer_2
  10
536.79053
  20
300.84753
  0
VERTEX
  5
20e
  8
Layer_2
  10
538.45663
  20
298.95172
  0
VERTEX
  5
20f
  8
Layer_2
  10
542.47885
  20
295.80341
  0
VERTEX
  5
210
  8
Layer_2
  10
547.59827
  20
294.43167
  0
VERTEX
  5
211
  8
Layer_2
  10
549.98557
  20
295.03432
  0
VERTEX
  5
212
  8
Layer_2
  10
550.68439
  20
297.64232
  0
VERTEX
  5
213
  8
Layer_2
  10
549.00385
  20
303.80191
  42
0.29028344
  0
VERTEX
  5
214
  8
Layer_2
  10
547.61191
  20
304.97366
  0
VERTEX
  5
215
  8
Layer_2
  10
542.14256
  20
305.61749
  42
0.14216265
  0
VERTEX
  5
216
  8
Layer_2
  10
541.64894
  20
305.54424
  0
SEQEND
  0
POLYLINE
  5
218
  8
Layer_2
  62
173
  66
1
  10
0
  20
0
  30
0
  0
VERTEX
  5
218
  8
Layer_2
  10
553.646
  20
301.86557
  42
0.19900862
  0
VERTEX
  5
219
  8
Layer_2
  10
553.36786
  20
302.53745
  42
0.19904729
  0
VERTEX
  5
21a
  8
Layer_2
  10
552.696
  20
302.81558
  42
0.093853093
  0
VERTEX
  5
21b
  8
Layer_2
  10
552.35178
  20
302.75107
  42
0.20482844
  0
VERTEX
  5
21c
  8
Layer_2
  10
551.81831
  20
302.22913
  0
VERTEX
  5
21d
  8
Layer_2
  10
551.79343
  20
302.16199
  42
0.28299988
  0
VERTEX
  5
21e
  8
Layer_2
  10
552.02425
  20
301.19383
  0
VERTEX
  5
21f
  8
Layer_2
  10
552.07675
  20
301.14513
  42
0.28304972
  0
VERTEX
  5
220
  8
Layer_2
  10
553.05954
  20
300.9879
  42
0.30354399
  0
VERTEX
  5
221
  8
Layer_2
  10
553.646
  20
301.86557
  0
SEQEND
  0
POLYLINE
  5
223
  8
Layer_2
  62
173
  66
1
  10
0
  20
0
  30
0
  0
VERTEX
  5
223
  8
Layer_2
  10
585.362
  20
320.96417
  0
VERTEX
  5
224
  8
Layer_2
  10
589.89717
  20
316.47006
  0
VERTEX
  5
225
  8
Layer_2
  10
590.59598
  20
313.86206
  0
VERTEX
  5
226
  8
Layer_2
  10
588.82983
  20
312.1465
  0
VERTEX
  5
227
  8
Layer_2
  10
583.71042
  20
310.77475
  0
VERTEX
  5
228
  8
Layer_2
  10
578.65294
  20
311.49016
  0
VERTEX
  5
229
  8
Layer_2
  10
576.26215
  20
312.29895
  0
VERTEX
  5
22a
  8
Layer_2
  10
575.56334
  20
314.90694
  0
VERTEX
  5
22b
  8
Layer_2
  10
578.12129
  20
318.79559
  42
-0.13161306
  0
VERTEX
  5
22c
  8
Layer_2
  10
578.48299
  20
319.09326
  0
VERTEX
  5
22d
  8
Layer_2
  10
578.51216
  20
319.10587
  0
VERTEX
  5
22e
  8
Layer_2
  10
583.57066
  20
321.28296
  42
-0.29015376
  0
VERTEX
  5
22f
  8
Layer_2
  10
585.362
  20
320.96417
  0
SEQEND
  0
POLYLINE
  5
231
  8
Layer_2
  62
173
  66
1
  10
0
  20
0
  30
0
  0
VERTEX
  5
231
  8
Layer_2
  10
590.47765
  20
321.13333
  42
0.19868055
  0
VERTEX
  5
232
  8
Layer_2
  10
590.1994
  20
321.80508
  42
0.19897143
  0
VERTEX
  5
233
  8
Layer_2
  10
589.52765
  20
322.08333
  42
0.094041678
  0
VERTEX
  5
234
  8
Layer_2
  10
589.18344
  20
322.01881
  42
0.20483338
  0
VERTEX
  5
235
  8
Layer_2
  10
588.64996
  20
321.49689
  0
VERTEX
  5
236
  8
Layer_2
  10
588.62506
  20
321.42973
  42
0.28237924
  0
VERTEX
  5
237
  8
Layer_2
  10
588.8559
  20
320.46158
  0
VERTEX
  5
238
  8
Layer_2
  10
588.9084
  20
320.41287
  42
0.28327476
  0
VERTEX
  5
239
  8
Layer_2
  10
589.89119
  20
320.25565
  42
0.3035719
  0
VERTEX
  5
23a
  8
Layer_2
  10
590.47765
  20
321.13333
  0
SEQEND
  0
POLYLINE
  5
23c
  8
Layer_2
  62
173
  66
1
  10
0
  20
0
  30
0
  0
VERTEX
  5
23c
  8
Layer_2
  10
615.14345
  20
319.72041
  0
VERTEX
  5
23d
  8
Layer_2
  10
612.58548
  20
315.83174
  0
VERTEX
  5
23e
  8
Layer_2
  10
613.2843
  20
313.22374
  0
VERTEX
  5
23f
  8
Layer_2
  10
615.67508
  20
312.41498
  0
VERTEX
  5
240
  8
Layer_2
  10
620.73257
  20
311.69957
  0
VERTEX
  5
241
  8
Layer_2
  10
625.85196
  20
313.0713
  0
VERTEX
  5
242
  8
Layer_2
  10
627.61813
  20
314.78688
  0
VERTEX
  5
243
  8
Layer_2
  10
626.91931
  20
317.39488
  0
VERTEX
  5
244
  8
Layer_2
  10
622.38414
  20
321.88898
  42
0.27086282
  0
VERTEX
  5
245
  8
Layer_2
  10
620.70787
  20
322.25014
  42
0.016301135
  0
VERTEX
  5
246
  8
Layer_2
  10
620.5928
  20
322.20776
  0
VERTEX
  5
247
  8
Layer_2
  10
615.5343
  20
320.03067
  0
VERTEX
  5
248
  8
Layer_2
  10
615.50513
  20
320.01808
  42
0.13231129
  0
VERTEX
  5
249
  8
Layer_2
  10
615.14345
  20
319.72041
  0
SEQEND
  0
POLYLINE
  5
24b
  8
Layer_2
  62
173
  66
1
  10
0
  20
0
  30
0
  0
VERTEX
  5
24b
  8
Layer_2
  10
627.49979
  20
322.05814
  42
0.41411987
  0
VERTEX
  5
24c
  8
Layer_2
  10
626.54979
  20
323.00812
  42
0.072191579
  0
VERTEX
  5
24d
  8
Layer_2
  10
626.27122
  20
322.96642
  42
0.22410049
  0
VERTEX
  5
24e
  8
Layer_2
  10
625.6721
  20
322.42168
  0
VERTEX
  5
24f
  8
Layer_2
  10
625.6472
  20
322.35454
  42
0.28283505
  0
VERTEX
  5
250
  8
Layer_2
  10
625.87804
  20
321.38638
  0
VERTEX
  5
251
  8
Layer_2
  10
625.93054
  20
321.33768
  42
0.28309812
  0
VERTEX
  5
252
  8
Layer_2
  10
626.91333
  20
321.18045
  42
0.30372697
  0
VERTEX
  5
253
  8
Layer_2
  10
627.49979
  20
322.05814
  0
SEQEND
  0
POLYLINE
  5
255
  8
Layer_2
  62
173
  66
1
  10
0
  20
0
  30
0
  0
VERTEX
  5
255
  8
Layer_2
  10
525.33783
  20
314.217
  0
VERTEX
  5
256
  8
Layer_2
  10
521.17825
  20
312.1283
  0
VERTEX
  5
257
  8
Layer_2
  10
520.47943
  20
309.52029
  0
VERTEX
  5
258
  8
Layer_2
  10
522.14554
  20
307.62448
  0
VERTEX
  5
259
  8
Layer_2
  10
526.16776
  20
304.47618
  0
VERTEX
  5
25a
  8
Layer_2
  10
531.28714
  20
303.10443
  0
VERTEX
  5
25b
  8
Layer_2
  10
533.67447
  20
303.70709
  0
VERTEX
  5
25c
  8
Layer_2
  10
534.37329
  20
306.31509
  0
VERTEX
  5
25d
  8
Layer_2
  10
532.69275
  20
312.47467
  42
0.29028216
  0
VERTEX
  5
25e
  8
Layer_2
  10
531.30081
  20
313.64642
  0
VERTEX
  5
25f
  8
Layer_2
  10
525.83147
  20
314.29025
  42
0.1410989
  0
VERTEX
  5
260
  8
Layer_2
  10
525.33783
  20
314.217
  0
SEQEND
  0
POLYLINE
  5
262
  8
Layer_2
  62
173
  66
1
  10
0
  20
0
  30
0
  0
VERTEX
  5
262
  8
Layer_2
  10
537.33488
  20
310.53835
  42
0.19918996
  0
VERTEX
  5
263
  8
Layer_2
  10
537.05664
  20
311.2101
  42
0.19885282
  0
VERTEX
  5
264
  8
Layer_2
  10
536.38489
  20
311.48834
  42
0.13047745
  0
VERTEX
  5
265
  8
Layer_2
  10
535.91583
  20
311.36447
  42
0.16695767
  0
VERTEX
  5
266
  8
Layer_2
  10
535.5072
  20
310.9019
  0
VERTEX
  5
267
  8
Layer_2
  10
535.4823
  20
310.83475
  42
0.28322068
  0
VERTEX
  5
268
  8
Layer_2
  10
535.71313
  20
309.86661
  0
VERTEX
  5
269
  8
Layer_2
  10
535.76564
  20
309.8179
  42
0.2828278
  0
VERTEX
  5
26a
  8
Layer_2
  10
536.74844
  20
309.66068
  42
0.30345186
  0
VERTEX
  5
26b
  8
Layer_2
  10
537.33488
  20
310.53835
  0
SEQEND
  0
POLYLINE
  5
26d
  8
Layer_2
  62
173
  66
1
  10
0
  20
0
  30
0
  0
VERTEX
  5
26d
  8
Layer_2
  10
516.38162
  20
321.14746
  0
VERTEX
  5
26e
  8
Layer_2
  10
518.06216
  20
314.98785
  0
VERTEX
  5
26f
  8
Layer_2
  10
517.36336
  20
312.37985
  0
VERTEX
  5
270
  8
Layer_2
  10
514.97604
  20
311.77721
  0
VERTEX
  5
271
  8
Layer_2
  10
509.85663
  20
313.14896
  0
VERTEX
  5
272
  8
Layer_2
  10
505.83441
  20
316.29724
  0
VERTEX
  5
273
  8
Layer_2
  10
504.16832
  20
318.19307
  0
VERTEX
  5
274
  8
Layer_2
  10
504.86713
  20
320.80107
  0
VERTEX
  5
275
  8
Layer_2
  10
509.02672
  20
322.88977
  42
-0.14124729
  0
VERTEX
  5
276
  8
Layer_2
  10
509.52036
  20
322.96303
  0
VERTEX
  5
277
  8
Layer_2
  10
514.9897
  20
322.3192
  42
-0.29025132
  0
VERTEX
  5
278
  8
Layer_2
  10
516.38162
  20
321.14746
  0
SEQEND
  0
POLYLINE
  5
27a
  8
Layer_2
  62
173
  66
1
  10
0
  20
0
  30
0
  0
VERTEX
  5
27a
  8
Layer_2
  10
520.74553
  20
319.88287
  42
0.19881029
  0
VERTEX
  5
27b
  8
Layer_2
  10
520.07378
  20
320.16112
  42
0.16696531
  0
VERTEX
  5
27c
  8
Layer_2
  10
519.49002
  20
319.96062
  42
0.13032093
  0
VERTEX
  5
27d
  8
Layer_2
  10
519.19608
  20
319.57468
  0
VERTEX
  5
27e
  8
Layer_2
  10
519.17117
  20
319.50752
  42
0.2828841
  0
VERTEX
  5
27f
  8
Layer_2
  10
519.40202
  20
318.53937
  0
VERTEX
  5
280
  8
Layer_2
  10
519.45453
  20
318.49066
  42
0.28275306
  0
VERTEX
  5
281
  8
Layer_2
  10
520.43732
  20
318.33344
  0
VERTEX
  5
282
  8
Layer_2
  10
520.50241
  20
318.36331
  42
0.28292913
  0
VERTEX
  5
283
  8
Layer_2
  10
521.02377
  20
319.21112
  42
0.19883216
  0
VERTEX
  5
284
  8
Layer_2
  10
520.74553
  20
319.88287
  0
SEQEND
  0
POLYLINE
  5
286
  8
Layer_2
  62
173
  66
1
  10
0
  20
0
  30
0
  0
VERTEX
  5
286
  8
Layer_2
  10
490.36598
  20
322.79364
  0
VERTEX
  5
287
  8
Layer_2
  10
486.20639
  20
320.70493
  0
VERTEX
  5
288
  8
Layer_2
  10
485.50757
  20
318.09692
  0
VERTEX
  5
289
  8
Layer_2
  10
487.17368
  20
316.2011
  0
VERTEX
  5
28a
  8
Layer_2
  10
491.19589
  20
313.0528
  0
VERTEX
  5
28b
  8
Layer_2
  10
496.31529
  20
311.68106
  0
VERTEX
  5
28c
  8
Layer_2
  10
498.70262
  20
312.28371
  0
VERTEX
  5
28d
  8
Layer_2
  10
499.40143
  20
314.89171
  0
VERTEX
  5
28e
  8
Layer_2
  10
497.7209
  20
321.0513
  42
0.29021642
  0
VERTEX
  5
28f
  8
Layer_2
  10
496.32895
  20
322.22305
  0
VERTEX
  5
290
  8
Layer_2
  10
490.8596
  20
322.86688
  42
0.14123617
  0
VERTEX
  5
291
  8
Layer_2
  10
490.36598
  20
322.79364
  0
SEQEND
  0
POLYLINE
  5
293
  8
Layer_2
  62
173
  66
1
  10
0
  20
0
  30
0
  0
VERTEX
  5
293
  8
Layer_2
  10
502.36304
  20
319.11496
  42
-0.28287102
  0
VERTEX
  5
294
  8
Layer_2
  10
501.84167
  20
318.26715
  0
VERTEX
  5
295
  8
Layer_2
  10
501.77658
  20
318.23729
  42
-0.2827848
  0
VERTEX
  5
296
  8
Layer_2
  10
500.79379
  20
318.39452
  0
VERTEX
  5
297
  8
Layer_2
  10
500.74129
  20
318.44322
  42
-0.28297749
  0
VERTEX
  5
298
  8
Layer_2
  10
500.51045
  20
319.41138
  0
VERTEX
  5
299
  8
Layer_2
  10
500.53535
  20
319.47852
  42
-0.092600783
  0
VERTEX
  5
29a
  8
Layer_2
  10
500.72668
  20
319.77184
  42
-0.20471818
  0
VERTEX
  5
29b
  8
Layer_2
  10
501.41304
  20
320.06497
  42
-0.19901025
  0
VERTEX
  5
29c
  8
Layer_2
  10
502.08493
  20
319.78683
  42
-0.19907809
  0
VERTEX
  5
29d
  8
Layer_2
  10
502.36304
  20
319.11496
  0
SEQEND
  0
POLYLINE
  5
29f
  8
Layer_2
  62
173
  66
1
  10
0
  20
0
  30
0
  0
VERTEX
  5
29f
  8
Layer_2
  10
471.72917
  20
322.78671
  0
VERTEX
  5
2a0
  8
Layer_2
  10
467.56958
  20
320.698
  0
VERTEX
  5
2a1
  8
Layer_2
  10
466.87076
  20
318.09001
  0
VERTEX
  5
2a2
  8
Layer_2
  10
468.53687
  20
316.1942
  0
VERTEX
  5
2a3
  8
Layer_2
  10
472.55908
  20
313.04588
  0
VERTEX
  5
2a4
  8
Layer_2
  10
477.67848
  20
311.67415
  0
VERTEX
  5
2a5
  8
Layer_2
  10
480.0658
  20
312.27679
  0
VERTEX
  5
2a6
  8
Layer_2
  10
480.76462
  20
314.8848
  0
VERTEX
  5
2a7
  8
Layer_2
  10
479.08409
  20
321.0444
  42
0.29021592
  0
VERTEX
  5
2a8
  8
Layer_2
  10
477.69214
  20
322.21614
  0
VERTEX
  5
2a9
  8
Layer_2
  10
472.22279
  20
322.85997
  42
0.14141936
  0
VERTEX
  5
2aa
  8
Layer_2
  10
471.72917
  20
322.78671
  0
SEQEND
  0
POLYLINE
  5
2ac
  8
Layer_2
  62
173
  66
1
  10
0
  20
0
  30
0
  0
VERTEX
  5
2ac
  8
Layer_2
  10
483.44797
  20
319.77982
  42
-0.19878331
  0
VERTEX
  5
2ad
  8
Layer_2
  10
483.72623
  20
319.10806
  42
-0.28286104
  0
VERTEX
  5
2ae
  8
Layer_2
  10
483.20486
  20
318.26025
  0
VERTEX
  5
2af
  8
Layer_2
  10
483.13977
  20
318.23038
  42
-0.28294198
  0
VERTEX
  5
2b0
  8
Layer_2
  10
482.15698
  20
318.3876
  0
VERTEX
  5
2b1
  8
Layer_2
  10
482.10448
  20
318.43631
  42
-0.28286018
  0
VERTEX
  5
2b2
  8
Layer_2
  10
481.87364
  20
319.40448
  0
VERTEX
  5
2b3
  8
Layer_2
  10
481.89854
  20
319.47162
  42
-0.055562849
  0
VERTEX
  5
2b4
  8
Layer_2
  10
482.00122
  20
319.65756
  42
-0.24299203
  0
VERTEX
  5
2b5
  8
Layer_2
  10
482.77623
  20
320.05807
  42
-0.19892926
  0
VERTEX
  5
2b6
  8
Layer_2
  10
483.44797
  20
319.77982
  0
SEQEND
  0
POLYLINE
  5
2b8
  8
Layer_2
  62
173
  66
1
  10
0
  20
0
  30
0
  0
VERTEX
  5
2b8
  8
Layer_2
  10
460.42334
  20
320.94824
  0
VERTEX
  5
2b9
  8
Layer_2
  10
462.10388
  20
314.78867
  0
VERTEX
  5
2ba
  8
Layer_2
  10
461.40506
  20
312.18066
  0
VERTEX
  5
2bb
  8
Layer_2
  10
459.01775
  20
311.578
  0
VERTEX
  5
2bc
  8
Layer_2
  10
453.89833
  20
312.94974
  0
VERTEX
  5
2bd
  8
Layer_2
  10
449.87613
  20
316.09805
  0
VERTEX
  5
2be
  8
Layer_2
  10
448.21002
  20
317.99387
  0
VERTEX
  5
2bf
  8
Layer_2
  10
448.90883
  20
320.60187
  0
VERTEX
  5
2c0
  8
Layer_2
  10
453.06842
  20
322.69057
  42
-0.1414894
  0
VERTEX
  5
2c1
  8
Layer_2
  10
453.56206
  20
322.76382
  0
VERTEX
  5
2c2
  8
Layer_2
  10
459.0314
  20
322.12
  42
-0.2902413
  0
VERTEX
  5
2c3
  8
Layer_2
  10
460.42334
  20
320.94824
  0
SEQEND
  0
POLYLINE
  5
2c5
  8
Layer_2
  62
173
  66
1
  10
0
  20
0
  30
0
  0
VERTEX
  5
2c5
  8
Layer_2
  10
465.06549
  20
319.01192
  42
-0.28294563
  0
VERTEX
  5
2c6
  8
Layer_2
  10
464.54413
  20
318.16409
  0
VERTEX
  5
2c7
  8
Layer_2
  10
464.47903
  20
318.13423
  42
-0.28288794
  0
VERTEX
  5
2c8
  8
Layer_2
  10
463.49623
  20
318.29147
  0
VERTEX
  5
2c9
  8
Layer_2
  10
463.44374
  20
318.34016
  42
-0.28289707
  0
VERTEX
  5
2ca
  8
Layer_2
  10
463.21289
  20
319.30832
  0
VERTEX
  5
2cb
  8
Layer_2
  10
463.23779
  20
319.37547
  42
-0.30331908
  0
VERTEX
  5
2cc
  8
Layer_2
  10
464.11548
  20
319.96191
  42
-0.41435197
  0
VERTEX
  5
2cd
  8
Layer_2
  10
465.06549
  20
319.01192
  0
SEQEND
  0
POLYLINE
  5
2cf
  8
Layer_2
  62
173
  66
1
  10
0
  20
0
  30
0
  0
VERTEX
  5
2cf
  8
Layer_2
  10
673.95351
  20
338.06938
  0
VERTEX
  5
2d0
  8
Layer_2
  10
678.48871
  20
333.57529
  0
VERTEX
  5
2d1
  8
Layer_2
  10
679.18752
  20
330.96729
  0
VERTEX
  5
2d2
  8
Layer_2
  10
677.42136
  20
329.25171
  0
VERTEX
  5
2d3
  8
Layer_2
  10
672.30196
  20
327.87997
  0
VERTEX
  5
2d4
  8
Layer_2
  10
667.24446
  20
328.59538
  0
VERTEX
  5
2d5
  8
Layer_2
  10
664.85367
  20
329.40416
  0
VERTEX
  5
2d6
  8
Layer_2
  10
664.15485
  20
332.01215
  0
VERTEX
  5
2d7
  8
Layer_2
  10
666.71281
  20
335.90083
  42
-0.13144823
  0
VERTEX
  5
2d8
  8
Layer_2
  10
667.07451
  20
336.19849
  0
VERTEX
  5
2d9
  8
Layer_2
  10
667.10367
  20
336.21107
  0
VERTEX
  5
2da
  8
Layer_2
  10
672.16219
  20
338.38818
  42
-0.015872111
  0
VERTEX
  5
2db
  8
Layer_2
  10
672.27725
  20
338.43054
  42
-0.27070264
  0
VERTEX
  5
2dc
  8
Layer_2
  10
673.95351
  20
338.06938
  0
SEQEND
  0
POLYLINE
  5
2de
  8
Layer_2
  62
173
  66
1
  10
0
  20
0
  30
0
  0
VERTEX
  5
2de
  8
Layer_2
  10
679.06917
  20
338.23856
  42
0.41333615
  0
VERTEX
  5
2df
  8
Layer_2
  10
678.11917
  20
339.18854
  42
0.076916647
  0
VERTEX
  5
2e0
  8
Layer_2
  10
677.84061
  20
339.14684
  42
0.22335199
  0
VERTEX
  5
2e1
  8
Layer_2
  10
677.24149
  20
338.6021
  0
VERTEX
  5
2e2
  8
Layer_2
  10
677.21658
  20
338.53496
  42
0.28201098
  0
VERTEX
  5
2e3
  8
Layer_2
  10
677.44742
  20
337.5668
  0
VERTEX
  5
2e4
  8
Layer_2
  10
677.49992
  20
337.5181
  42
0.28297618
  0
VERTEX
  5
2e5
  8
Layer_2
  10
678.48271
  20
337.36086
  42
0.30347687
  0
VERTEX
  5
2e6
  8
Layer_2
  10
679.06917
  20
338.23856
  0
SEQEND
  0
POLYLINE
  5
2e8
  8
Layer_2
  62
173
  66
1
  10
0
  20
0
  30
0
  0
VERTEX
  5
2e8
  8
Layer_2
  10
540.20399
  20
270.96075
  42
0.2902379
  0
VERTEX
  5
2e9
  8
Layer_2
  10
538.81206
  20
272.13249
  0
VERTEX
  5
2ea
  8
Layer_2
  10
533.34271
  20
272.77632
  42
0.0703901
  0
VERTEX
  5
2eb
  8
Layer_2
  10
533.0907
  20
272.77461
  42
0.07025499
  0
VERTEX
  5
2ec
  8
Layer_2
  10
532.84908
  20
272.70306
  0
VERTEX
  5
2ed
  8
Layer_2
  10
528.68948
  20
270.61436
  0
VERTEX
  5
2ee
  8
Layer_2
  10
527.99068
  20
268.00636
  0
VERTEX
  5
2ef
  8
Layer_2
  10
529.65677
  20
266.11055
  0
VERTEX
  5
2f0
  8
Layer_2
  10
533.67899
  20
262.96225
  0
VERTEX
  5
2f1
  8
Layer_2
  10
538.7984
  20
261.59052
  0
VERTEX
  5
2f2
  8
Layer_2
  10
541.18571
  20
262.19316
  0
VERTEX
  5
2f3
  8
Layer_2
  10
541.88452
  20
264.80116
  0
VERTEX
  5
2f4
  8
Layer_2
  10
540.20399
  20
270.96075
  0
SEQEND
  0
POLYLINE
  5
2f6
  8
Layer_2
  62
173
  66
1
  10
0
  20
0
  30
0
  0
VERTEX
  5
2f6
  8
Layer_2
  10
543.2244
  20
268.35266
  0
VERTEX
  5
2f7
  8
Layer_2
  10
543.27689
  20
268.30397
  42
0.28291046
  0
VERTEX
  5
2f8
  8
Layer_2
  10
544.25969
  20
268.14674
  42
0.30336953
  0
VERTEX
  5
2f9
  8
Layer_2
  10
544.84613
  20
269.02441
  42
0.41433227
  0
VERTEX
  5
2fa
  8
Layer_2
  10
543.89613
  20
269.97443
  0
VERTEX
  5
2fb
  8
Layer_2
  10
543.82455
  20
269.97173
  42
0.28292506
  0
VERTEX
  5
2fc
  8
Layer_2
  10
543.01845
  20
269.38797
  0
VERTEX
  5
2fd
  8
Layer_2
  10
542.99355
  20
269.32083
  42
0.28285014
  0
VERTEX
  5
2fe
  8
Layer_2
  10
543.2244
  20
268.35266
  0
SEQEND
  0
POLYLINE
  5
300
  8
Layer_2
  62
173
  66
1
  10
0
  20
0
  30
0
  0
VERTEX
  5
300
  8
Layer_2
  10
655.28165
  20
338.20706
  0
VERTEX
  5
301
  8
Layer_2
  10
659.81683
  20
333.71297
  0
VERTEX
  5
302
  8
Layer_2
  10
660.51564
  20
331.10497
  0
VERTEX
  5
303
  8
Layer_2
  10
658.7495
  20
329.3894
  0
VERTEX
  5
304
  8
Layer_2
  10
653.63008
  20
328.01764
  0
VERTEX
  5
305
  8
Layer_2
  10
648.57259
  20
328.73306
  0
VERTEX
  5
306
  8
Layer_2
  10
646.18181
  20
329.54184
  0
VERTEX
  5
307
  8
Layer_2
  10
645.48299
  20
332.14983
  0
VERTEX
  5
308
  8
Layer_2
  10
648.04095
  20
336.0385
  42
-0.095205758
  0
VERTEX
  5
309
  8
Layer_2
  10
648.29144
  20
336.27606
  0
VERTEX
  5
30a
  8
Layer_2
  10
648.31837
  20
336.29251
  0
VERTEX
  5
30b
  8
Layer_2
  10
648.3459
  20
336.30801
  0
VERTEX
  5
30c
  8
Layer_2
  10
648.37399
  20
336.32257
  42
0.018584974
  0
VERTEX
  5
30d
  8
Layer_2
  10
648.43181
  20
336.34875
  0
VERTEX
  5
30e
  8
Layer_2
  10
653.49033
  20
338.52585
  0
VERTEX
  5
30f
  8
Layer_2
  10
653.54762
  20
338.54813
  42
-0.28039366
  0
VERTEX
  5
310
  8
Layer_2
  10
655.28165
  20
338.20706
  0
SEQEND
  0
POLYLINE
  5
312
  8
Layer_2
  62
173
  66
1
  10
0
  20
0
  30
0
  0
VERTEX
  5
312
  8
Layer_2
  10
660.39731
  20
338.37622
  42
0.41427744
  0
VERTEX
  5
313
  8
Layer_2
  10
659.44731
  20
339.32622
  42
0.080534219
  0
VERTEX
  5
314
  8
Layer_2
  10
659.16875
  20
339.28452
  42
0.22308689
  0
VERTEX
  5
315
  8
Layer_2
  10
658.56963
  20
338.73978
  0
VERTEX
  5
316
  8
Layer_2
  10
658.54472
  20
338.67262
  42
0.28368223
  0
VERTEX
  5
317
  8
Layer_2
  10
658.77556
  20
337.70447
  0
VERTEX
  5
318
  8
Layer_2
  10
658.82806
  20
337.65576
  42
0.28264338
  0
VERTEX
  5
319
  8
Layer_2
  10
659.81085
  20
337.49854
  42
0.30388288
  0
VERTEX
  5
31a
  8
Layer_2
  10
660.39731
  20
338.37622
  0
SEQEND
  0
POLYLINE
  5
31c
  8
Layer_2
  62
173
  66
1
  10
0
  20
0
  30
0
  0
VERTEX
  5
31c
  8
Layer_2
  10
464.82327
  20
337.36899
  0
VERTEX
  5
31d
  8
Layer_2
  10
466.50381
  20
331.2094
  0
VERTEX
  5
31e
  8
Layer_2
  10
465.80501
  20
328.60139
  0
VERTEX
  5
31f
  8
Layer_2
  10
463.41768
  20
327.99875
  0
VERTEX
  5
320
  8
Layer_2
  10
458.29828
  20
329.37048
  0
VERTEX
  5
321
  8
Layer_2
  10
454.27606
  20
332.5188
  0
VERTEX
  5
322
  8
Layer_2
  10
452.60997
  20
334.41461
  0
VERTEX
  5
323
  8
Layer_2
  10
453.30878
  20
337.02261
  0
VERTEX
  5
324
  8
Layer_2
  10
457.46837
  20
339.11133
  42
-0.14156152
  0
VERTEX
  5
325
  8
Layer_2
  10
457.96199
  20
339.18457
  0
VERTEX
  5
326
  8
Layer_2
  10
463.43135
  20
338.54074
  42
-0.29022178
  0
VERTEX
  5
327
  8
Layer_2
  10
464.82327
  20
337.36899
  0
SEQEND
  0
POLYLINE
  5
329
  8
Layer_2
  62
173
  66
1
  10
0
  20
0
  30
0
  0
VERTEX
  5
329
  8
Layer_2
  10
469.18718
  20
336.10442
  42
-0.19895907
  0
VERTEX
  5
32a
  8
Layer_2
  10
469.46542
  20
335.43268
  42
-0.28291783
  0
VERTEX
  5
32b
  8
Layer_2
  10
468.94406
  20
334.58484
  0
VERTEX
  5
32c
  8
Layer_2
  10
468.87897
  20
334.55498
  42
-0.28279927
  0
VERTEX
  5
32d
  8
Layer_2
  10
467.89618
  20
334.7122
  0
VERTEX
  5
32e
  8
Layer_2
  10
467.84367
  20
334.76091
  42
-0.28292443
  0
VERTEX
  5
32f
  8
Layer_2
  10
467.61282
  20
335.72906
  0
VERTEX
  5
330
  8
Layer_2
  10
467.63774
  20
335.79622
  42
-0.30340725
  0
VERTEX
  5
331
  8
Layer_2
  10
468.51543
  20
336.38266
  42
-0.19898689
  0
VERTEX
  5
332
  8
Layer_2
  10
469.18718
  20
336.10442
  0
SEQEND
  0
POLYLINE
  5
334
  8
Layer_2
  62
173
  66
1
  10
0
  20
0
  30
0
  0
VERTEX
  5
334
  8
Layer_2
  10
530.23137
  20
330.711
  0
VERTEX
  5
335
  8
Layer_2
  10
535.70073
  20
330.06717
  42
-0.29025551
  0
VERTEX
  5
336
  8
Layer_2
  10
537.09267
  20
328.89542
  0
VERTEX
  5
337
  8
Layer_2
  10
538.77321
  20
322.73582
  0
VERTEX
  5
338
  8
Layer_2
  10
538.0744
  20
320.12784
  0
VERTEX
  5
339
  8
Layer_2
  10
535.68707
  20
319.52518
  0
VERTEX
  5
33a
  8
Layer_2
  10
530.56766
  20
320.89691
  0
VERTEX
  5
33b
  8
Layer_2
  10
526.54544
  20
324.04523
  0
VERTEX
  5
33c
  8
Layer_2
  10
524.87935
  20
325.94104
  0
VERTEX
  5
33d
  8
Layer_2
  10
525.57817
  20
328.54904
  0
VERTEX
  5
33e
  8
Layer_2
  10
529.73775
  20
330.63774
  42
-0.14160298
  0
VERTEX
  5
33f
  8
Layer_2
  10
530.23137
  20
330.711
  0
SEQEND
  0
POLYLINE
  5
341
  8
Layer_2
  62
173
  66
1
  10
0
  20
0
  30
0
  0
VERTEX
  5
341
  8
Layer_2
  10
541.45656
  20
327.63083
  42
0.19923765
  0
VERTEX
  5
342
  8
Layer_2
  10
540.78481
  20
327.90909
  42
0.14874574
  0
VERTEX
  5
343
  8
Layer_2
  10
540.25702
  20
327.74899
  42
0.14868253
  0
VERTEX
  5
344
  8
Layer_2
  10
539.90714
  20
327.32263
  0
VERTEX
  5
345
  8
Layer_2
  10
539.88223
  20
327.25549
  42
0.28255879
  0
VERTEX
  5
346
  8
Layer_2
  10
540.11305
  20
326.28734
  0
VERTEX
  5
347
  8
Layer_2
  10
540.16556
  20
326.23863
  42
0.28276652
  0
VERTEX
  5
348
  8
Layer_2
  10
541.14835
  20
326.08139
  0
VERTEX
  5
349
  8
Layer_2
  10
541.21344
  20
326.11127
  42
0.28292476
  0
VERTEX
  5
34a
  8
Layer_2
  10
541.7348
  20
326.95909
  42
0.19882906
  0
VERTEX
  5
34b
  8
Layer_2
  10
541.45656
  20
327.63083
  0
SEQEND
  0
POLYLINE
  5
34d
  8
Layer_2
  62
173
  66
1
  10
0
  20
0
  30
0
  0
VERTEX
  5
34d
  8
Layer_2
  10
519.38962
  20
338.73994
  0
VERTEX
  5
34e
  8
Layer_2
  10
513.92027
  20
339.38376
  42
0.14139654
  0
VERTEX
  5
34f
  8
Layer_2
  10
513.42664
  20
339.31052
  0
VERTEX
  5
350
  8
Layer_2
  10
509.26706
  20
337.2218
  0
VERTEX
  5
351
  8
Layer_2
  10
508.56824
  20
334.6138
  0
VERTEX
  5
352
  8
Layer_2
  10
510.23434
  20
332.71799
  0
VERTEX
  5
353
  8
Layer_2
  10
514.25656
  20
329.56969
  0
VERTEX
  5
354
  8
Layer_2
  10
519.37596
  20
328.19795
  0
VERTEX
  5
355
  8
Layer_2
  10
521.76329
  20
328.8006
  0
VERTEX
  5
356
  8
Layer_2
  10
522.4621
  20
331.4086
  0
VERTEX
  5
357
  8
Layer_2
  10
520.78156
  20
337.56821
  42
0.29026151
  0
VERTEX
  5
358
  8
Layer_2
  10
519.38962
  20
338.73994
  0
SEQEND
  0
POLYLINE
  5
35a
  8
Layer_2
  62
173
  66
1
  10
0
  20
0
  30
0
  0
VERTEX
  5
35a
  8
Layer_2
  10
525.14545
  20
336.30362
  42
0.19907319
  0
VERTEX
  5
35b
  8
Layer_2
  10
524.47371
  20
336.58185
  42
0.18591598
  0
VERTEX
  5
35c
  8
Layer_2
  10
523.83704
  20
336.33698
  42
0.11085941
  0
VERTEX
  5
35d
  8
Layer_2
  10
523.59601
  20
335.99541
  0
VERTEX
  5
35e
  8
Layer_2
  10
523.57111
  20
335.92827
  42
0.28288926
  0
VERTEX
  5
35f
  8
Layer_2
  10
523.80194
  20
334.96011
  0
VERTEX
  5
360
  8
Layer_2
  10
523.85445
  20
334.91141
  42
0.28270221
  0
VERTEX
  5
361
  8
Layer_2
  10
524.83725
  20
334.75418
  0
VERTEX
  5
362
  8
Layer_2
  10
524.90234
  20
334.78404
  42
0.28276556
  0
VERTEX
  5
363
  8
Layer_2
  10
525.42371
  20
335.63187
  42
0.19911579
  0
VERTEX
  5
364
  8
Layer_2
  10
525.14545
  20
336.30362
  0
SEQEND
  0
POLYLINE
  5
366
  8
Layer_2
  62
173
  66
1
  10
0
  20
0
  30
0
  0
VERTEX
  5
366
  8
Layer_2
  10
594.43239
  20
327.46838
  0
VERTEX
  5
367
  8
Layer_2
  10
591.87444
  20
323.57971
  0
VERTEX
  5
368
  8
Layer_2
  10
592.57324
  20
320.97171
  0
VERTEX
  5
369
  8
Layer_2
  10
594.96404
  20
320.16293
  0
VERTEX
  5
36a
  8
Layer_2
  10
600.02153
  20
319.44754
  0
VERTEX
  5
36b
  8
Layer_2
  10
605.14093
  20
320.81927
  0
VERTEX
  5
36c
  8
Layer_2
  10
606.90709
  20
322.53485
  0
VERTEX
  5
36d
  8
Layer_2
  10
606.20828
  20
325.14285
  0
VERTEX
  5
36e
  8
Layer_2
  10
601.6731
  20
329.63693
  42
0.29023812
  0
VERTEX
  5
36f
  8
Layer_2
  10
599.88177
  20
329.95575
  0
VERTEX
  5
370
  8
Layer_2
  10
594.82327
  20
327.77864
  0
VERTEX
  5
371
  8
Layer_2
  10
594.7941
  20
327.76605
  0
VERTEX
  5
372
  8
Layer_2
  10
594.76544
  20
327.75247
  42
0.12341096
  0
VERTEX
  5
373
  8
Layer_2
  10
594.43239
  20
327.46838
  0
SEQEND
  0
POLYLINE
  5
375
  8
Layer_2
  62
173
  66
1
  10
0
  20
0
  30
0
  0
VERTEX
  5
375
  8
Layer_2
  10
606.78876
  20
329.80609
  42
0.19941205
  0
VERTEX
  5
376
  8
Layer_2
  10
606.5105
  20
330.47786
  0
VERTEX
  5
377
  8
Layer_2
  10
606.49362
  20
330.49432
  0
VERTEX
  5
378
  8
Layer_2
  10
606.47636
  20
330.51035
  42
0.18713095
  0
VERTEX
  5
379
  8
Layer_2
  10
605.83876
  20
330.7561
  42
0.094083344
  0
VERTEX
  5
37a
  8
Layer_2
  10
605.49454
  20
330.69159
  42
0.20441613
  0
VERTEX
  5
37b
  8
Layer_2
  10
604.96106
  20
330.16965
  0
VERTEX
  5
37c
  8
Layer_2
  10
604.93616
  20
330.10251
  42
0.28272722
  0
VERTEX
  5
37d
  8
Layer_2
  10
605.16701
  20
329.13434
  0
VERTEX
  5
37e
  8
Layer_2
  10
605.21951
  20
329.08565
  42
0.28309386
  0
VERTEX
  5
37f
  8
Layer_2
  10
606.2023
  20
328.92842
  42
0.30370448
  0
VERTEX
  5
380
  8
Layer_2
  10
606.78876
  20
329.80609
  0
SEQEND
  0
POLYLINE
  5
382
  8
Layer_2
  62
173
  66
1
  10
0
  20
0
  30
0
  0
VERTEX
  5
382
  8
Layer_2
  10
587.312
  20
286.26439
  0
VERTEX
  5
383
  8
Layer_2
  10
592.3705
  20
288.44148
  42
-0.054161004
  0
VERTEX
  5
384
  8
Layer_2
  10
592.7202
  20
288.54266
  42
-0.23279699
  0
VERTEX
  5
385
  8
Layer_2
  10
594.16183
  20
288.1227
  0
VERTEX
  5
386
  8
Layer_2
  10
598.69702
  20
283.6286
  0
VERTEX
  5
387
  8
Layer_2
  10
599.39584
  20
281.0206
  0
VERTEX
  5
388
  8
Layer_2
  10
597.62967
  20
279.30502
  0
VERTEX
  5
389
  8
Layer_2
  10
592.51027
  20
277.93329
  0
VERTEX
  5
38a
  8
Layer_2
  10
587.45277
  20
278.64868
  0
VERTEX
  5
38b
  8
Layer_2
  10
585.06198
  20
279.45746
  0
VERTEX
  5
38c
  8
Layer_2
  10
584.36317
  20
282.06546
  0
VERTEX
  5
38d
  8
Layer_2
  10
586.92113
  20
285.95413
  42
-0.13245267
  0
VERTEX
  5
38e
  8
Layer_2
  10
587.28284
  20
286.2518
  0
VERTEX
  5
38f
  8
Layer_2
  10
587.312
  20
286.26439
  0
SEQEND
  0
POLYLINE
  5
391
  8
Layer_2
  62
173
  66
1
  10
0
  20
0
  30
0
  0
VERTEX
  5
391
  8
Layer_2
  10
597.65573
  20
287.6201
  0
VERTEX
  5
392
  8
Layer_2
  10
597.70824
  20
287.5714
  42
0.28286891
  0
VERTEX
  5
393
  8
Layer_2
  10
598.69104
  20
287.41417
  42
0.30338183
  0
VERTEX
  5
394
  8
Layer_2
  10
599.2775
  20
288.29185
  42
0.19876785
  0
VERTEX
  5
395
  8
Layer_2
  10
598.99925
  20
288.96361
  42
0.19901877
  0
VERTEX
  5
396
  8
Layer_2
  10
598.3275
  20
289.24185
  42
0.038178656
  0
VERTEX
  5
397
  8
Layer_2
  10
598.1855
  20
289.2312
  42
0.2628224
  0
VERTEX
  5
398
  8
Layer_2
  10
597.4498
  20
288.6554
  0
VERTEX
  5
399
  8
Layer_2
  10
597.4249
  20
288.58826
  42
0.28297269
  0
VERTEX
  5
39a
  8
Layer_2
  10
597.65573
  20
287.6201
  0
SEQEND
  0
POLYLINE
  5
39c
  8
Layer_2
  62
173
  66
1
  10
0
  20
0
  30
0
  0
VERTEX
  5
39c
  8
Layer_2
  10
483.48399
  20
337.46513
  0
VERTEX
  5
39d
  8
Layer_2
  10
485.16454
  20
331.30554
  0
VERTEX
  5
39e
  8
Layer_2
  10
484.46571
  20
328.69754
  0
VERTEX
  5
39f
  8
Layer_2
  10
482.0784
  20
328.09488
  0
VERTEX
  5
3a0
  8
Layer_2
  10
476.95898
  20
329.46663
  0
VERTEX
  5
3a1
  8
Layer_2
  10
472.93677
  20
332.61494
  0
VERTEX
  5
3a2
  8
Layer_2
  10
471.27068
  20
334.51074
  0
VERTEX
  5
3a3
  8
Layer_2
  10
471.96948
  20
337.11874
  0
VERTEX
  5
3a4
  8
Layer_2
  10
476.12909
  20
339.20746
  42
-0.14142569
  0
VERTEX
  5
3a5
  8
Layer_2
  10
476.62271
  20
339.2807
  0
VERTEX
  5
3a6
  8
Layer_2
  10
482.09206
  20
338.63687
  42
-0.29020069
  0
VERTEX
  5
3a7
  8
Layer_2
  10
483.48399
  20
337.46513
  0
SEQEND
  0
POLYLINE
  5
3a9
  8
Layer_2
  62
173
  66
1
  10
0
  20
0
  30
0
  0
VERTEX
  5
3a9
  8
Layer_2
  10
487.84789
  20
336.20056
  42
-0.19887139
  0
VERTEX
  5
3aa
  8
Layer_2
  10
488.12613
  20
335.52881
  42
-0.28287556
  0
VERTEX
  5
3ab
  8
Layer_2
  10
487.60477
  20
334.68098
  0
VERTEX
  5
3ac
  8
Layer_2
  10
487.53969
  20
334.65112
  42
-0.28298222
  0
VERTEX
  5
3ad
  8
Layer_2
  10
486.55688
  20
334.80835
  0
VERTEX
  5
3ae
  8
Layer_2
  10
486.50439
  20
334.85706
  42
-0.28289036
  0
VERTEX
  5
3af
  8
Layer_2
  10
486.27356
  20
335.82521
  0
VERTEX
  5
3b0
  8
Layer_2
  10
486.29846
  20
335.89236
  42
-0.037918179
  0
VERTEX
  5
3b1
  8
Layer_2
  10
486.36263
  20
336.01947
  42
-0.26304315
  0
VERTEX
  5
3b2
  8
Layer_2
  10
487.17613
  20
336.47881
  42
-0.19884933
  0
VERTEX
  5
3b3
  8
Layer_2
  10
487.84789
  20
336.20056
  0
SEQEND
  0
POLYLINE
  5
3b5
  8
Layer_2
  62
173
  66
1
  10
0
  20
0
  30
0
  0
VERTEX
  5
3b5
  8
Layer_2
  10
629.79512
  20
336.35526
  0
VERTEX
  5
3b6
  8
Layer_2
  10
629.76595
  20
336.34265
  42
0.1318747
  0
VERTEX
  5
3b7
  8
Layer_2
  10
629.40425
  20
336.045
  0
VERTEX
  5
3b8
  8
Layer_2
  10
626.84628
  20
332.15633
  0
VERTEX
  5
3b9
  8
Layer_2
  10
627.5451
  20
329.54834
  0
VERTEX
  5
3ba
  8
Layer_2
  10
629.93588
  20
328.73956
  0
VERTEX
  5
3bb
  8
Layer_2
  10
634.99338
  20
328.02414
  0
VERTEX
  5
3bc
  8
Layer_2
  10
640.11279
  20
329.39589
  0
VERTEX
  5
3bd
  8
Layer_2
  10
641.87894
  20
331.11147
  0
VERTEX
  5
3be
  8
Layer_2
  10
641.18013
  20
333.71947
  0
VERTEX
  5
3bf
  8
Layer_2
  10
636.64494
  20
338.21356
  42
0.2902618
  0
VERTEX
  5
3c0
  8
Layer_2
  10
634.85362
  20
338.53235
  0
VERTEX
  5
3c1
  8
Layer_2
  10
629.79512
  20
336.35526
  0
SEQEND
  0
POLYLINE
  5
3c3
  8
Layer_2
  62
173
  66
1
  10
0
  20
0
  30
0
  0
VERTEX
  5
3c3
  8
Layer_2
  10
641.7606
  20
338.38272
  42
0.19885609
  0
VERTEX
  5
3c4
  8
Layer_2
  10
641.48236
  20
339.05447
  42
0.19918359
  0
VERTEX
  5
3c5
  8
Layer_2
  10
640.81061
  20
339.33272
  42
0.094805143
  0
VERTEX
  5
3c6
  8
Layer_2
  10
640.4664
  20
339.2682
  42
0.20419114
  0
VERTEX
  5
3c7
  8
Layer_2
  10
639.93292
  20
338.74628
  0
VERTEX
  5
3c8
  8
Layer_2
  10
639.908
  20
338.67912
  42
0.28218713
  0
VERTEX
  5
3c9
  8
Layer_2
  10
640.13884
  20
337.71097
  0
VERTEX
  5
3ca
  8
Layer_2
  10
640.19135
  20
337.66226
  42
0.2829961
  0
VERTEX
  5
3cb
  8
Layer_2
  10
641.17415
  20
337.50504
  42
0.30337515
  0
VERTEX
  5
3cc
  8
Layer_2
  10
641.7606
  20
338.38272
  0
SEQEND
  0
POLYLINE
  5
3ce
  8
Layer_2
  62
173
  66
1
  10
0
  20
0
  30
0
  0
VERTEX
  5
3ce
  8
Layer_2
  10
610.74352
  20
336.14114
  0
VERTEX
  5
3cf
  8
Layer_2
  10
608.18555
  20
332.25247
  0
VERTEX
  5
3d0
  8
Layer_2
  10
608.88437
  20
329.64447
  0
VERTEX
  5
3d1
  8
Layer_2
  10
611.27515
  20
328.83569
  0
VERTEX
  5
3d2
  8
Layer_2
  10
616.33264
  20
328.1203
  0
VERTEX
  5
3d3
  8
Layer_2
  10
621.45204
  20
329.49203
  0
VERTEX
  5
3d4
  8
Layer_2
  10
623.2182
  20
331.20761
  0
VERTEX
  5
3d5
  8
Layer_2
  10
622.51939
  20
333.81561
  0
VERTEX
  5
3d6
  8
Layer_2
  10
617.98421
  20
338.30971
  42
0.2901189
  0
VERTEX
  5
3d7
  8
Layer_2
  10
616.19289
  20
338.62851
  0
VERTEX
  5
3d8
  8
Layer_2
  10
611.13437
  20
336.4514
  0
VERTEX
  5
3d9
  8
Layer_2
  10
611.10521
  20
336.43881
  42
0.13330101
  0
VERTEX
  5
3da
  8
Layer_2
  10
610.74352
  20
336.14114
  0
SEQEND
  0
POLYLINE
  5
3dc
  8
Layer_2
  62
173
  66
1
  10
0
  20
0
  30
0
  0
VERTEX
  5
3dc
  8
Layer_2
  10
623.09987
  20
338.47885
  42
0.41403895
  0
VERTEX
  5
3dd
  8
Layer_2
  10
622.14987
  20
339.42886
  42
0.093991603
  0
VERTEX
  5
3de
  8
Layer_2
  10
621.80565
  20
339.36435
  42
0.20539007
  0
VERTEX
  5
3df
  8
Layer_2
  10
621.27217
  20
338.84241
  0
VERTEX
  5
3e0
  8
Layer_2
  10
621.24727
  20
338.77527
  42
0.28289958
  0
VERTEX
  5
3e1
  8
Layer_2
  10
621.47812
  20
337.8071
  0
VERTEX
  5
3e2
  8
Layer_2
  10
621.53061
  20
337.75841
  42
0.28299851
  0
VERTEX
  5
3e3
  8
Layer_2
  10
622.51341
  20
337.60118
  42
0.30331762
  0
VERTEX
  5
3e4
  8
Layer_2
  10
623.09987
  20
338.47885
  0
SEQEND
  0
POLYLINE
  5
3e6
  8
Layer_2
  62
173
  66
1
  10
0
  20
0
  30
0
  0
VERTEX
  5
3e6
  8
Layer_2
  10
682.75339
  20
305.22791
  0
VERTEX
  5
3e7
  8
Layer_2
  10
687.28856
  20
300.7338
  0
VERTEX
  5
3e8
  8
Layer_2
  10
687.98737
  20
298.12579
  0
VERTEX
  5
3e9
  8
Layer_2
  10
686.22121
  20
296.41023
  0
VERTEX
  5
3ea
  8
Layer_2
  10
681.10181
  20
295.03848
  0
VERTEX
  5
3eb
  8
Layer_2
  10
676.04433
  20
295.75389
  0
VERTEX
  5
3ec
  8
Layer_2
  10
673.65352
  20
296.56267
  0
VERTEX
  5
3ed
  8
Layer_2
  10
672.95473
  20
299.17067
  0
VERTEX
  5
3ee
  8
Layer_2
  10
675.51266
  20
303.05934
  42
-0.13152934
  0
VERTEX
  5
3ef
  8
Layer_2
  10
675.87436
  20
303.35699
  0
VERTEX
  5
3f0
  8
Layer_2
  10
675.90353
  20
303.36958
  0
VERTEX
  5
3f1
  8
Layer_2
  10
680.96204
  20
305.54669
  42
-0.053419185
  0
VERTEX
  5
3f2
  8
Layer_2
  10
681.31174
  20
305.64786
  42
-0.23282206
  0
VERTEX
  5
3f3
  8
Layer_2
  10
682.75339
  20
305.22791
  0
SEQEND
  0
POLYLINE
  5
3f5
  8
Layer_2
  62
173
  66
1
  10
0
  20
0
  30
0
  0
VERTEX
  5
3f5
  8
Layer_2
  10
686.24727
  20
304.72531
  0
VERTEX
  5
3f6
  8
Layer_2
  10
686.29977
  20
304.67661
  42
0.28291815
  0
VERTEX
  5
3f7
  8
Layer_2
  10
687.28258
  20
304.51936
  42
0.30312502
  0
VERTEX
  5
3f8
  8
Layer_2
  10
687.86902
  20
305.39706
  0
VERTEX
  5
3f9
  8
Layer_2
  10
687.86873
  20
305.42065
  42
-0.063318806
  0
VERTEX
  5
3fa
  8
Layer_2
  10
687.86641
  20
305.46761
  42
-0.0288023
  0
VERTEX
  5
3fb
  8
Layer_2
  10
687.86179
  20
305.51421
  42
-0.017434987
  0
VERTEX
  5
3fc
  8
Layer_2
  10
687.85489
  20
305.56036
  0
VERTEX
  5
3fd
  8
Layer_2
  10
687.8506
  20
305.58325
  42
0.14831031
  0
VERTEX
  5
3fe
  8
Layer_2
  10
687.59077
  20
306.06882
  42
0.19872957
  0
VERTEX
  5
3ff
  8
Layer_2
  10
686.91902
  20
306.34706
  42
0.04301466
  0
VERTEX
  5
400
  8
Layer_2
  10
686.77702
  20
306.33643
  42
0.26306914
  0
VERTEX
  5
401
  8
Layer_2
  10
686.04135
  20
305.7606
  0
VERTEX
  5
402
  8
Layer_2
  10
686.01643
  20
305.69347
  42
0.28289415
  0
VERTEX
  5
403
  8
Layer_2
  10
686.24727
  20
304.72531
  0
SEQEND
  0
POLYLINE
  5
405
  8
Layer_2
  62
173
  66
1
  10
0
  20
0
  30
0
  0
VERTEX
  5
405
  8
Layer_2
  10
657.23166
  20
303.50728
  0
VERTEX
  5
406
  8
Layer_2
  10
662.29019
  20
305.68439
  42
-0.044711397
  0
VERTEX
  5
407
  8
Layer_2
  10
662.5808
  20
305.77408
  42
-0.24210662
  0
VERTEX
  5
408
  8
Layer_2
  10
664.08151
  20
305.36559
  0
VERTEX
  5
409
  8
Layer_2
  10
668.61668
  20
300.87149
  0
VERTEX
  5
40a
  8
Layer_2
  10
669.31551
  20
298.26349
  0
VERTEX
  5
40b
  8
Layer_2
  10
667.54935
  20
296.54791
  0
VERTEX
  5
40c
  8
Layer_2
  10
662.42996
  20
295.17618
  0
VERTEX
  5
40d
  8
Layer_2
  10
657.37245
  20
295.89159
  0
VERTEX
  5
40e
  8
Layer_2
  10
654.98166
  20
296.70035
  0
VERTEX
  5
40f
  8
Layer_2
  10
654.28285
  20
299.30835
  0
VERTEX
  5
410
  8
Layer_2
  10
656.84082
  20
303.19702
  42
-0.13128327
  0
VERTEX
  5
411
  8
Layer_2
  10
657.2025
  20
303.49469
  0
VERTEX
  5
412
  8
Layer_2
  10
657.23166
  20
303.50728
  0
SEQEND
  0
POLYLINE
  5
414
  8
Layer_2
  62
173
  66
1
  10
0
  20
0
  30
0
  0
VERTEX
  5
414
  8
Layer_2
  10
669.19716
  20
305.53474
  42
0.19894193
  0
VERTEX
  5
415
  8
Layer_2
  10
668.91904
  20
306.20668
  42
0.19914708
  0
VERTEX
  5
416
  8
Layer_2
  10
668.24716
  20
306.48474
  42
0.053589112
  0
VERTEX
  5
417
  8
Layer_2
  10
668.03609
  20
306.46104
  42
0.2430753
  0
VERTEX
  5
418
  8
Layer_2
  10
667.36949
  20
305.8983
  0
VERTEX
  5
419
  8
Layer_2
  10
667.34457
  20
305.83116
  42
0.28354016
  0
VERTEX
  5
41a
  8
Layer_2
  10
667.57541
  20
304.86301
  0
VERTEX
  5
41b
  8
Layer_2
  10
667.62791
  20
304.8143
  42
0.28267703
  0
VERTEX
  5
41c
  8
Layer_2
  10
668.61072
  20
304.65707
  42
0.30301495
  0
VERTEX
  5
41d
  8
Layer_2
  10
669.19716
  20
305.53474
  0
SEQEND
  0
POLYLINE
  5
41f
  8
Layer_2
  62
173
  66
1
  10
0
  20
0
  30
0
  0
VERTEX
  5
41f
  8
Layer_2
  10
638.59496
  20
303.51376
  0
VERTEX
  5
420
  8
Layer_2
  10
638.56578
  20
303.50117
  42
0.13144623
  0
VERTEX
  5
421
  8
Layer_2
  10
638.20409
  20
303.20352
  0
VERTEX
  5
422
  8
Layer_2
  10
635.64612
  20
299.31485
  0
VERTEX
  5
423
  8
Layer_2
  10
636.34494
  20
296.70685
  0
VERTEX
  5
424
  8
Layer_2
  10
638.73572
  20
295.89807
  0
VERTEX
  5
425
  8
Layer_2
  10
643.79321
  20
295.18266
  0
VERTEX
  5
426
  8
Layer_2
  10
648.91263
  20
296.55441
  0
VERTEX
  5
427
  8
Layer_2
  10
650.67877
  20
298.26999
  0
VERTEX
  5
428
  8
Layer_2
  10
649.97998
  20
300.87799
  0
VERTEX
  5
429
  8
Layer_2
  10
645.44479
  20
305.37207
  42
0.24223843
  0
VERTEX
  5
42a
  8
Layer_2
  10
643.94408
  20
305.78056
  42
0.045181249
  0
VERTEX
  5
42b
  8
Layer_2
  10
643.65346
  20
305.69087
  0
VERTEX
  5
42c
  8
Layer_2
  10
638.59496
  20
303.51376
  0
SEQEND
  0
POLYLINE
  5
42e
  8
Layer_2
  62
173
  66
1
  10
0
  20
0
  30
0
  0
VERTEX
  5
42e
  8
Layer_2
  10
650.56044
  20
305.54123
  42
0.41419227
  0
VERTEX
  5
42f
  8
Layer_2
  10
649.61044
  20
306.49124
  42
0.054730721
  0
VERTEX
  5
430
  8
Layer_2
  10
649.39937
  20
306.46753
  42
0.24247015
  0
VERTEX
  5
431
  8
Layer_2
  10
648.73276
  20
305.90479
  0
VERTEX
  5
432
  8
Layer_2
  10
648.70786
  20
305.83765
  42
0.28249385
  0
VERTEX
  5
433
  8
Layer_2
  10
648.93869
  20
304.86949
  0
VERTEX
  5
434
  8
Layer_2
  10
648.99118
  20
304.82079
  42
0.2823452
  0
VERTEX
  5
435
  8
Layer_2
  10
649.974
  20
304.66356
  42
0.30369614
  0
VERTEX
  5
436
  8
Layer_2
  10
650.56044
  20
305.54123
  0
SEQEND
  0
POLYLINE
  5
438
  8
Layer_2
  62
173
  66
1
  10
0
  20
0
  30
0
  0
VERTEX
  5
438
  8
Layer_2
  10
626.78406
  20
305.46822
  0
VERTEX
  5
439
  8
Layer_2
  10
631.31923
  20
300.97412
  0
VERTEX
  5
43a
  8
Layer_2
  10
632.01804
  20
298.36612
  0
VERTEX
  5
43b
  8
Layer_2
  10
630.25189
  20
296.65056
  0
VERTEX
  5
43c
  8
Layer_2
  10
625.13248
  20
295.27881
  0
VERTEX
  5
43d
  8
Layer_2
  10
620.07498
  20
295.99422
  0
VERTEX
  5
43e
  8
Layer_2
  10
617.6842
  20
296.80299
  0
VERTEX
  5
43f
  8
Layer_2
  10
616.98538
  20
299.411
  0
VERTEX
  5
440
  8
Layer_2
  10
619.54335
  20
303.29965
  42
-0.13370983
  0
VERTEX
  5
441
  8
Layer_2
  10
619.90504
  20
303.59732
  0
VERTEX
  5
442
  8
Layer_2
  10
619.93422
  20
303.60992
  0
VERTEX
  5
443
  8
Layer_2
  10
624.99272
  20
305.78702
  42
-0.036403114
  0
VERTEX
  5
444
  8
Layer_2
  10
625.2245
  20
305.86308
  42
-0.25154607
  0
VERTEX
  5
445
  8
Layer_2
  10
626.78406
  20
305.46822
  0
SEQEND
  0
POLYLINE
  5
447
  8
Layer_2
  62
173
  66
1
  10
0
  20
0
  30
0
  0
VERTEX
  5
447
  8
Layer_2
  10
631.8997
  20
305.63737
  0
VERTEX
  5
448
  8
Layer_2
  10
631.89941
  20
305.66096
  0
VERTEX
  5
449
  8
Layer_2
  10
631.89854
  20
305.68448
  42
0.18652127
  0
VERTEX
  5
44a
  8
Layer_2
  10
631.62146
  20
306.30913
  42
0.19864213
  0
VERTEX
  5
44b
  8
Layer_2
  10
630.94971
  20
306.58737
  42
0.057152517
  0
VERTEX
  5
44c
  8
Layer_2
  10
630.73863
  20
306.56367
  42
0.24303061
  0
VERTEX
  5
44d
  8
Layer_2
  10
630.07202
  20
306.00093
  0
VERTEX
  5
44e
  8
Layer_2
  10
630.04712
  20
305.93378
  42
0.28283406
  0
VERTEX
  5
44f
  8
Layer_2
  10
630.27795
  20
304.96564
  0
VERTEX
  5
450
  8
Layer_2
  10
630.33046
  20
304.91693
  42
0.28279442
  0
VERTEX
  5
451
  8
Layer_2
  10
631.31326
  20
304.7597
  42
0.30378785
  0
VERTEX
  5
452
  8
Layer_2
  10
631.8997
  20
305.63737
  0
SEQEND
  0
POLYLINE
  5
454
  8
Layer_2
  62
173
  66
1
  10
0
  20
0
  30
0
  0
VERTEX
  5
454
  8
Layer_2
  10
603.62311
  20
294.93716
  0
VERTEX
  5
455
  8
Layer_2
  10
603.59393
  20
294.92456
  42
0.13328884
  0
VERTEX
  5
456
  8
Layer_2
  10
603.23224
  20
294.62691
  0
VERTEX
  5
457
  8
Layer_2
  10
600.67429
  20
290.73824
  0
VERTEX
  5
458
  8
Layer_2
  10
601.37309
  20
288.13023
  0
VERTEX
  5
459
  8
Layer_2
  10
603.76389
  20
287.32147
  0
VERTEX
  5
45a
  8
Layer_2
  10
608.82138
  20
286.60606
  0
VERTEX
  5
45b
  8
Layer_2
  10
613.94078
  20
287.9778
  0
VERTEX
  5
45c
  8
Layer_2
  10
615.70694
  20
289.69337
  0
VERTEX
  5
45d
  8
Layer_2
  10
615.00812
  20
292.30138
  0
VERTEX
  5
45e
  8
Layer_2
  10
610.47293
  20
296.79547
  42
0.24223339
  0
VERTEX
  5
45f
  8
Layer_2
  10
608.97223
  20
297.20396
  42
0.044408549
  0
VERTEX
  5
460
  8
Layer_2
  10
608.68161
  20
297.11427
  0
VERTEX
  5
461
  8
Layer_2
  10
603.62311
  20
294.93716
  0
SEQEND
  0
POLYLINE
  5
463
  8
Layer_2
  62
173
  66
1
  10
0
  20
0
  30
0
  0
VERTEX
  5
463
  8
Layer_2
  10
615.58859
  20
296.96463
  42
0.19933651
  0
VERTEX
  5
464
  8
Layer_2
  10
615.31053
  20
297.6364
  42
0.19875579
  0
VERTEX
  5
465
  8
Layer_2
  10
614.6386
  20
297.91463
  42
0.056676913
  0
VERTEX
  5
466
  8
Layer_2
  10
614.42752
  20
297.89093
  42
0.24327139
  0
VERTEX
  5
467
  8
Layer_2
  10
613.76091
  20
297.32819
  0
VERTEX
  5
468
  8
Layer_2
  10
613.73601
  20
297.26103
  42
0.28277721
  0
VERTEX
  5
469
  8
Layer_2
  10
613.96684
  20
296.29288
  0
VERTEX
  5
46a
  8
Layer_2
  10
614.01935
  20
296.24417
  42
0.28310907
  0
VERTEX
  5
46b
  8
Layer_2
  10
615.00215
  20
296.08694
  42
0.3030925
  0
VERTEX
  5
46c
  8
Layer_2
  10
615.58859
  20
296.96463
  0
SEQEND
  0
POLYLINE
  5
46e
  8
Layer_2
  62
173
  66
1
  10
0
  20
0
  30
0
  0
VERTEX
  5
46e
  8
Layer_2
  10
544.60391
  20
287.38116
  0
VERTEX
  5
46f
  8
Layer_2
  10
546.28445
  20
281.22157
  0
VERTEX
  5
470
  8
Layer_2
  10
545.58565
  20
278.61357
  0
VERTEX
  5
471
  8
Layer_2
  10
543.19833
  20
278.01093
  0
VERTEX
  5
472
  8
Layer_2
  10
538.07892
  20
279.38268
  0
VERTEX
  5
473
  8
Layer_2
  10
534.0567
  20
282.53098
  0
VERTEX
  5
474
  8
Layer_2
  10
532.39061
  20
284.42677
  0
VERTEX
  5
475
  8
Layer_2
  10
533.08942
  20
287.03477
  0
VERTEX
  5
476
  8
Layer_2
  10
537.24901
  20
289.12349
  42
-0.027504599
  0
VERTEX
  5
477
  8
Layer_2
  10
537.33746
  20
289.15836
  42
-0.11442055
  0
VERTEX
  5
478
  8
Layer_2
  10
537.74265
  20
289.19675
  0
VERTEX
  5
479
  8
Layer_2
  10
543.21198
  20
288.5529
  42
-0.29022036
  0
VERTEX
  5
47a
  8
Layer_2
  10
544.60391
  20
287.38116
  0
SEQEND
  0
POLYLINE
  5
47c
  8
Layer_2
  62
173
  66
1
  10
0
  20
0
  30
0
  0
VERTEX
  5
47c
  8
Layer_2
  10
549.24606
  20
285.44484
  42
0.19915404
  0
VERTEX
  5
47d
  8
Layer_2
  10
548.96796
  20
286.11667
  42
0.19894241
  0
VERTEX
  5
47e
  8
Layer_2
  10
548.29607
  20
286.39484
  42
0.056207035
  0
VERTEX
  5
47f
  8
Layer_2
  10
548.08499
  20
286.37114
  42
0.24318343
  0
VERTEX
  5
480
  8
Layer_2
  10
547.41837
  20
285.80838
  0
VERTEX
  5
481
  8
Layer_2
  10
547.39348
  20
285.74124
  42
0.28291652
  0
VERTEX
  5
482
  8
Layer_2
  10
547.62431
  20
284.77307
  0
VERTEX
  5
483
  8
Layer_2
  10
547.67682
  20
284.72438
  42
0.2829267
  0
VERTEX
  5
484
  8
Layer_2
  10
548.65961
  20
284.56715
  42
0.30331804
  0
VERTEX
  5
485
  8
Layer_2
  10
549.24606
  20
285.44484
  0
SEQEND
  0
POLYLINE
  5
487
  8
Layer_2
  62
173
  66
1
  10
0
  20
0
  30
0
  0
VERTEX
  5
487
  8
Layer_2
  10
526.90088
  20
297.22569
  0
VERTEX
  5
488
  8
Layer_2
  10
521.43153
  20
297.86952
  42
0.14160268
  0
VERTEX
  5
489
  8
Layer_2
  10
520.9379
  20
297.79626
  0
VERTEX
  5
48a
  8
Layer_2
  10
516.77832
  20
295.70755
  0
VERTEX
  5
48b
  8
Layer_2
  10
516.0795
  20
293.09955
  0
VERTEX
  5
48c
  8
Layer_2
  10
517.74561
  20
291.20374
  0
VERTEX
  5
48d
  8
Layer_2
  10
521.76782
  20
288.05544
  0
VERTEX
  5
48e
  8
Layer_2
  10
526.88724
  20
286.6837
  0
VERTEX
  5
48f
  8
Layer_2
  10
529.27454
  20
287.28635
  0
VERTEX
  5
490
  8
Layer_2
  10
529.97336
  20
289.89435
  0
VERTEX
  5
491
  8
Layer_2
  10
528.29282
  20
296.05394
  42
0.29021353
  0
VERTEX
  5
492
  8
Layer_2
  10
526.90088
  20
297.22569
  0
SEQEND
  0
POLYLINE
  5
494
  8
Layer_2
  62
173
  66
1
  10
0
  20
0
  30
0
  0
VERTEX
  5
494
  8
Layer_2
  10
532.93497
  20
294.11761
  42
0.19883685
  0
VERTEX
  5
495
  8
Layer_2
  10
532.65671
  20
294.78937
  42
0.19897274
  0
VERTEX
  5
496
  8
Layer_2
  10
531.98495
  20
295.06761
  42
0.092794929
  0
VERTEX
  5
497
  8
Layer_2
  10
531.64075
  20
295.00308
  42
0.20467888
  0
VERTEX
  5
498
  8
Layer_2
  10
531.10727
  20
294.48116
  0
VERTEX
  5
499
  8
Layer_2
  10
531.08237
  20
294.41402
  42
0.28295202
  0
VERTEX
  5
49a
  8
Layer_2
  10
531.3132
  20
293.44586
  0
VERTEX
  5
49b
  8
Layer_2
  10
531.36571
  20
293.39716
  42
0.28299003
  0
VERTEX
  5
49c
  8
Layer_2
  10
532.34851
  20
293.23993
  42
0.30347104
  0
VERTEX
  5
49d
  8
Layer_2
  10
532.93497
  20
294.11761
  0
SEQEND
  0
POLYLINE
  5
49f
  8
Layer_2
  62
173
  66
1
  10
0
  20
0
  30
0
  0
VERTEX
  5
49f
  8
Layer_2
  10
495.25955
  20
339.28763
  42
0.14203081
  0
VERTEX
  5
4a0
  8
Layer_2
  10
494.76591
  20
339.21436
  0
VERTEX
  5
4a1
  8
Layer_2
  10
490.60632
  20
337.12564
  0
VERTEX
  5
4a2
  8
Layer_2
  10
489.90752
  20
334.51764
  0
VERTEX
  5
4a3
  8
Layer_2
  10
491.57361
  20
332.62184
  0
VERTEX
  5
4a4
  8
Layer_2
  10
495.59583
  20
329.47354
  0
VERTEX
  5
4a5
  8
Layer_2
  10
500.71523
  20
328.10178
  0
VERTEX
  5
4a6
  8
Layer_2
  10
503.10255
  20
328.70444
  0
VERTEX
  5
4a7
  8
Layer_2
  10
503.80136
  20
331.31244
  0
VERTEX
  5
4a8
  8
Layer_2
  10
502.12082
  20
337.47205
  42
0.29028167
  0
VERTEX
  5
4a9
  8
Layer_2
  10
500.72888
  20
338.64377
  0
VERTEX
  5
4aa
  8
Layer_2
  10
495.25955
  20
339.28763
  0
SEQEND
  0
POLYLINE
  5
4ac
  8
Layer_2
  62
173
  66
1
  10
0
  20
0
  30
0
  0
VERTEX
  5
4ac
  8
Layer_2
  10
506.48471
  20
336.20746
  42
-0.19891586
  0
VERTEX
  5
4ad
  8
Layer_2
  10
506.76297
  20
335.53571
  42
-0.28311557
  0
VERTEX
  5
4ae
  8
Layer_2
  10
506.24161
  20
334.6879
  0
VERTEX
  5
4af
  8
Layer_2
  10
506.17651
  20
334.65802
  42
-0.28294497
  0
VERTEX
  5
4b0
  8
Layer_2
  10
505.19373
  20
334.81525
  0
VERTEX
  5
4b1
  8
Layer_2
  10
505.14122
  20
334.86395
  42
-0.28327249
  0
VERTEX
  5
4b2
  8
Layer_2
  10
504.91039
  20
335.83212
  0
VERTEX
  5
4b3
  8
Layer_2
  10
504.93529
  20
335.89926
  42
-0.074888749
  0
VERTEX
  5
4b4
  8
Layer_2
  10
505.08041
  20
336.14066
  42
-0.22356038
  0
VERTEX
  5
4b5
  8
Layer_2
  10
505.81296
  20
336.48572
  42
-0.19890545
  0
VERTEX
  5
4b6
  8
Layer_2
  10
506.48471
  20
336.20746
  0
SEQEND
  0
POLYLINE
  5
4b8
  8
Layer_2
  62
173
  66
1
  10
0
  20
0
  30
0
  0
VERTEX
  5
4b8
  8
Layer_2
  10
546.54248
  20
322.03824
  0
VERTEX
  5
4b9
  8
Layer_2
  10
552.01184
  20
321.39441
  42
-0.29025976
  0
VERTEX
  5
4ba
  8
Layer_2
  10
553.40378
  20
320.22266
  0
VERTEX
  5
4bb
  8
Layer_2
  10
555.0843
  20
314.06305
  0
VERTEX
  5
4bc
  8
Layer_2
  10
554.38548
  20
311.45506
  0
VERTEX
  5
4bd
  8
Layer_2
  10
551.99817
  20
310.85242
  0
VERTEX
  5
4be
  8
Layer_2
  10
546.87877
  20
312.22415
  0
VERTEX
  5
4bf
  8
Layer_2
  10
542.85655
  20
315.37245
  0
VERTEX
  5
4c0
  8
Layer_2
  10
541.19046
  20
317.26828
  0
VERTEX
  5
4c1
  8
Layer_2
  10
541.88927
  20
319.87627
  0
VERTEX
  5
4c2
  8
Layer_2
  10
546.04886
  20
321.96497
  42
-0.14151002
  0
VERTEX
  5
4c3
  8
Layer_2
  10
546.54248
  20
322.03824
  0
SEQEND
  0
POLYLINE
  5
4c5
  8
Layer_2
  62
173
  66
1
  10
0
  20
0
  30
0
  0
VERTEX
  5
4c5
  8
Layer_2
  10
558.04591
  20
318.28632
  42
0.41431364
  0
VERTEX
  5
4c6
  8
Layer_2
  10
557.09592
  20
319.23631
  42
0.11178165
  0
VERTEX
  5
4c7
  8
Layer_2
  10
556.68813
  20
319.14436
  42
0.18592079
  0
VERTEX
  5
4c8
  8
Layer_2
  10
556.21823
  20
318.64987
  0
VERTEX
  5
4c9
  8
Layer_2
  10
556.19333
  20
318.58273
  42
0.28279115
  0
VERTEX
  5
4ca
  8
Layer_2
  10
556.42416
  20
317.61456
  0
VERTEX
  5
4cb
  8
Layer_2
  10
556.47667
  20
317.56586
  42
0.28287775
  0
VERTEX
  5
4cc
  8
Layer_2
  10
557.45947
  20
317.40863
  42
0.30339475
  0
VERTEX
  5
4cd
  8
Layer_2
  10
558.04591
  20
318.28632
  0
SEQEND
  0
POLYLINE
  5
4cf
  8
Layer_2
  62
173
  66
1
  10
0
  20
0
  30
0
  0
VERTEX
  5
4cf
  8
Layer_2
  10
524.56294
  20
273.04372
  0
VERTEX
  5
4d0
  8
Layer_2
  10
521.34544
  20
278.55847
  42
0.29024043
  0
VERTEX
  5
4d1
  8
Layer_2
  10
519.69766
  20
279.33003
  0
VERTEX
  5
4d2
  8
Layer_2
  10
514.24805
  20
278.53636
  42
0.035122301
  0
VERTEX
  5
4d3
  8
Layer_2
  10
514.12392
  20
278.5114
  42
0.10550758
  0
VERTEX
  5
4d4
  8
Layer_2
  10
513.79021
  20
278.33783
  0
VERTEX
  5
4d5
  8
Layer_2
  10
510.31294
  20
275.24371
  0
VERTEX
  5
4d6
  8
Layer_2
  10
510.31294
  20
272.54372
  0
VERTEX
  5
4d7
  8
Layer_2
  10
512.41295
  20
271.14372
  0
VERTEX
  5
4d8
  8
Layer_2
  10
517.11295
  20
269.14372
  0
VERTEX
  5
4d9
  8
Layer_2
  10
522.41293
  20
269.14372
  0
VERTEX
  5
4da
  8
Layer_2
  10
524.56294
  20
270.34372
  0
VERTEX
  5
4db
  8
Layer_2
  10
524.56294
  20
273.04372
  0
SEQEND
  0
POLYLINE
  5
4dd
  8
Layer_2
  62
173
  66
1
  10
0
  20
0
  30
0
  0
VERTEX
  5
4dd
  8
Layer_2
  10
526.36295
  20
277.64372
  42
0.19900353
  0
VERTEX
  5
4de
  8
Layer_2
  10
526.08478
  20
278.31558
  42
0.19908735
  0
VERTEX
  5
4df
  8
Layer_2
  10
525.41295
  20
278.59372
  42
0.056367245
  0
VERTEX
  5
4e0
  8
Layer_2
  10
525.20187
  20
278.57002
  42
0.24313672
  0
VERTEX
  5
4e1
  8
Layer_2
  10
524.53525
  20
278.00726
  0
VERTEX
  5
4e2
  8
Layer_2
  10
524.51035
  20
277.94012
  42
0.28299603
  0
VERTEX
  5
4e3
  8
Layer_2
  10
524.7412
  20
276.97197
  0
VERTEX
  5
4e4
  8
Layer_2
  10
524.7937
  20
276.92326
  42
0.28294459
  0
VERTEX
  5
4e5
  8
Layer_2
  10
525.77649
  20
276.76604
  42
0.30337474
  0
VERTEX
  5
4e6
  8
Layer_2
  10
526.36295
  20
277.64372
  0
SEQEND
  0
POLYLINE
  5
4e8
  8
Layer_2
  62
173
  66
1
  10
0
  20
0
  30
0
  0
VERTEX
  5
4e8
  8
Layer_2
  10
603.09695
  20
267.20786
  0
VERTEX
  5
4e9
  8
Layer_2
  10
598.56175
  20
271.70197
  42
0.20518881
  0
VERTEX
  5
4ea
  8
Layer_2
  10
597.29831
  20
272.14363
  42
0.080317447
  0
VERTEX
  5
4eb
  8
Layer_2
  10
596.77043
  20
272.02075
  0
VERTEX
  5
4ec
  8
Layer_2
  10
591.71193
  20
269.84364
  0
VERTEX
  5
4ed
  8
Layer_2
  10
591.68275
  20
269.83105
  42
0.1325514
  0
VERTEX
  5
4ee
  8
Layer_2
  10
591.32106
  20
269.53339
  0
VERTEX
  5
4ef
  8
Layer_2
  10
588.76309
  20
265.64473
  0
VERTEX
  5
4f0
  8
Layer_2
  10
589.46191
  20
263.03673
  0
VERTEX
  5
4f1
  8
Layer_2
  10
591.85271
  20
262.22795
  0
VERTEX
  5
4f2
  8
Layer_2
  10
596.91019
  20
261.51254
  0
VERTEX
  5
4f3
  8
Layer_2
  10
602.0296
  20
262.88429
  0
VERTEX
  5
4f4
  8
Layer_2
  10
603.79575
  20
264.59985
  0
VERTEX
  5
4f5
  8
Layer_2
  10
603.09695
  20
267.20786
  0
SEQEND
  0
POLYLINE
  5
4f7
  8
Layer_2
  62
173
  66
1
  10
0
  20
0
  30
0
  0
VERTEX
  5
4f7
  8
Layer_2
  10
603.67741
  20
271.87112
  42
0.19901018
  0
VERTEX
  5
4f8
  8
Layer_2
  10
603.39917
  20
272.54286
  42
0.1989279
  0
VERTEX
  5
4f9
  8
Layer_2
  10
602.72742
  20
272.82112
  0
VERTEX
  5
4fa
  8
Layer_2
  10
602.65585
  20
272.81844
  42
0.2830011
  0
VERTEX
  5
4fb
  8
Layer_2
  10
601.84973
  20
272.23466
  0
VERTEX
  5
4fc
  8
Layer_2
  10
601.82483
  20
272.16751
  42
0.28300912
  0
VERTEX
  5
4fd
  8
Layer_2
  10
602.05566
  20
271.19936
  0
VERTEX
  5
4fe
  8
Layer_2
  10
602.10817
  20
271.15065
  42
0.28290416
  0
VERTEX
  5
4ff
  8
Layer_2
  10
603.09097
  20
270.99342
  42
0.30341433
  0
VERTEX
  5
500
  8
Layer_2
  10
603.67741
  20
271.87112
  0
SEQEND
  0
POLYLINE
  5
502
  8
Layer_2
  62
173
  66
1
  10
0
  20
0
  30
0
  0
VERTEX
  5
502
  8
Layer_2
  10
617.5177
  20
278.55815
  0
VERTEX
  5
503
  8
Layer_2
  10
620.73518
  20
273.0434
  0
VERTEX
  5
504
  8
Layer_2
  10
620.73518
  20
270.3434
  0
VERTEX
  5
505
  8
Layer_2
  10
618.58517
  20
269.1434
  0
VERTEX
  5
506
  8
Layer_2
  10
613.28519
  20
269.1434
  0
VERTEX
  5
507
  8
Layer_2
  10
608.58517
  20
271.1434
  0
VERTEX
  5
508
  8
Layer_2
  10
606.48518
  20
272.5434
  0
VERTEX
  5
509
  8
Layer_2
  10
606.48518
  20
275.24339
  0
VERTEX
  5
50a
  8
Layer_2
  10
609.96243
  20
278.33751
  42
-0.132434
  0
VERTEX
  5
50b
  8
Layer_2
  10
610.38885
  20
278.53142
  0
VERTEX
  5
50c
  8
Layer_2
  10
610.42029
  20
278.53603
  0
VERTEX
  5
50d
  8
Layer_2
  10
615.86992
  20
279.32971
  0
VERTEX
  5
50e
  8
Layer_2
  10
615.93103
  20
279.3364
  42
-0.28043592
  0
VERTEX
  5
50f
  8
Layer_2
  10
617.5177
  20
278.55815
  0
SEQEND
  0
POLYLINE
  5
511
  8
Layer_2
  62
173
  66
1
  10
0
  20
0
  30
0
  0
VERTEX
  5
511
  8
Layer_2
  10
621.94873
  20
276.76572
  42
0.30339558
  0
VERTEX
  5
512
  8
Layer_2
  10
622.53519
  20
277.6434
  42
0.19874837
  0
VERTEX
  5
513
  8
Layer_2
  10
622.25694
  20
278.31516
  42
0.19888824
  0
VERTEX
  5
514
  8
Layer_2
  10
621.58519
  20
278.5934
  0
VERTEX
  5
515
  8
Layer_2
  10
621.51363
  20
278.59071
  42
0.28283997
  0
VERTEX
  5
516
  8
Layer_2
  10
620.70749
  20
278.00694
  0
VERTEX
  5
517
  8
Layer_2
  10
620.68259
  20
277.9398
  42
0.28284864
  0
VERTEX
  5
518
  8
Layer_2
  10
620.91344
  20
276.97163
  0
VERTEX
  5
519
  8
Layer_2
  10
620.96594
  20
276.92294
  42
0.28302052
  0
VERTEX
  5
51a
  8
Layer_2
  10
621.94873
  20
276.76572
  0
SEQEND
  0
POLYLINE
  5
51c
  8
Layer_2
  62
173
  66
1
  10
0
  20
0
  30
0
  0
VERTEX
  5
51c
  8
Layer_2
  10
570.87646
  20
268.36398
  0
VERTEX
  5
51d
  8
Layer_2
  10
567.3992
  20
265.26987
  0
VERTEX
  5
51e
  8
Layer_2
  10
567.3992
  20
262.56987
  0
VERTEX
  5
51f
  8
Layer_2
  10
569.49921
  20
261.16986
  0
VERTEX
  5
520
  8
Layer_2
  10
574.19919
  20
259.16986
  0
VERTEX
  5
521
  8
Layer_2
  10
579.49921
  20
259.16986
  0
VERTEX
  5
522
  8
Layer_2
  10
581.64919
  20
260.36987
  0
VERTEX
  5
523
  8
Layer_2
  10
581.64919
  20
263.06987
  0
VERTEX
  5
524
  8
Layer_2
  10
578.4317
  20
268.58463
  42
0.27078308
  0
VERTEX
  5
525
  8
Layer_2
  10
576.90602
  20
269.36732
  42
0.018263534
  0
VERTEX
  5
526
  8
Layer_2
  10
576.78392
  20
269.35617
  0
VERTEX
  5
527
  8
Layer_2
  10
571.33429
  20
268.5625
  0
VERTEX
  5
528
  8
Layer_2
  10
571.30287
  20
268.55789
  42
0.13251544
  0
VERTEX
  5
529
  8
Layer_2
  10
570.87646
  20
268.36398
  0
SEQEND
  0
POLYLINE
  5
52b
  8
Layer_2
  62
173
  66
1
  10
0
  20
0
  30
0
  0
VERTEX
  5
52b
  8
Layer_2
  10
581.82744
  20
266.99812
  0
VERTEX
  5
52c
  8
Layer_2
  10
581.87994
  20
266.94942
  42
0.28284885
  0
VERTEX
  5
52d
  8
Layer_2
  10
582.86275
  20
266.79218
  42
0.30338244
  0
VERTEX
  5
52e
  8
Layer_2
  10
583.44919
  20
267.66986
  42
0.19907948
  0
VERTEX
  5
52f
  8
Layer_2
  10
583.17107
  20
268.34172
  42
0.19901447
  0
VERTEX
  5
530
  8
Layer_2
  10
582.49919
  20
268.61987
  0
VERTEX
  5
531
  8
Layer_2
  10
582.42763
  20
268.61719
  42
0.28286921
  0
VERTEX
  5
532
  8
Layer_2
  10
581.62151
  20
268.03342
  0
VERTEX
  5
533
  8
Layer_2
  10
581.5966
  20
267.96628
  42
0.28289788
  0
VERTEX
  5
534
  8
Layer_2
  10
581.82744
  20
266.99812
  0
SEQEND
  0
POLYLINE
  5
536
  8
Layer_2
  62
173
  66
1
  10
0
  20
0
  30
0
  0
VERTEX
  5
536
  8
Layer_2
  10
501.69731
  20
284.81221
  0
VERTEX
  5
537
  8
Layer_2
  10
496.2477
  20
284.01852
  42
0.079208654
  0
VERTEX
  5
538
  8
Layer_2
  10
495.97606
  20
283.93863
  42
0.061342656
  0
VERTEX
  5
539
  8
Layer_2
  10
495.78986
  20
283.82001
  0
VERTEX
  5
53a
  8
Layer_2
  10
492.31259
  20
280.72589
  0
VERTEX
  5
53b
  8
Layer_2
  10
492.31259
  20
278.02589
  0
VERTEX
  5
53c
  8
Layer_2
  10
494.4126
  20
276.6259
  0
VERTEX
  5
53d
  8
Layer_2
  10
499.11259
  20
274.6259
  0
VERTEX
  5
53e
  8
Layer_2
  10
504.4126
  20
274.6259
  0
VERTEX
  5
53f
  8
Layer_2
  10
506.56259
  20
275.8259
  0
VERTEX
  5
540
  8
Layer_2
  10
506.56259
  20
278.52589
  0
VERTEX
  5
541
  8
Layer_2
  10
503.34509
  20
284.04065
  42
0.29023674
  0
VERTEX
  5
542
  8
Layer_2
  10
501.69731
  20
284.81221
  0
SEQEND
  0
POLYLINE
  5
544
  8
Layer_2
  62
173
  66
1
  10
0
  20
0
  30
0
  0
VERTEX
  5
544
  8
Layer_2
  10
508.36259
  20
283.1259
  42
0.19884933
  0
VERTEX
  5
545
  8
Layer_2
  10
508.08435
  20
283.79765
  42
0.19888377
  0
VERTEX
  5
546
  8
Layer_2
  10
507.4126
  20
284.0759
  42
0.093079189
  0
VERTEX
  5
547
  8
Layer_2
  10
507.06839
  20
284.01138
  42
0.20470877
  0
VERTEX
  5
548
  8
Layer_2
  10
506.53491
  20
283.48944
  0
VERTEX
  5
549
  8
Layer_2
  10
506.51001
  20
283.4223
  42
0.28286841
  0
VERTEX
  5
54a
  8
Layer_2
  10
506.74084
  20
282.45415
  0
VERTEX
  5
54b
  8
Layer_2
  10
506.79333
  20
282.40544
  42
0.28289237
  0
VERTEX
  5
54c
  8
Layer_2
  10
507.77615
  20
282.24821
  42
0.30335931
  0
VERTEX
  5
54d
  8
Layer_2
  10
508.36259
  20
283.1259
  0
SEQEND
  0
POLYLINE
  5
54f
  8
Layer_2
  62
173
  66
1
  10
0
  20
0
  30
0
  0
VERTEX
  5
54f
  8
Layer_2
  10
480.52902
  20
355.6282
  0
VERTEX
  5
550
  8
Layer_2
  10
476.36943
  20
353.53951
  0
VERTEX
  5
551
  8
Layer_2
  10
475.67062
  20
350.9315
  0
VERTEX
  5
552
  8
Layer_2
  10
477.33672
  20
349.03569
  0
VERTEX
  5
553
  8
Layer_2
  10
481.35892
  20
345.88739
  0
VERTEX
  5
554
  8
Layer_2
  10
486.47833
  20
344.51566
  0
VERTEX
  5
555
  8
Layer_2
  10
488.86566
  20
345.1183
  0
VERTEX
  5
556
  8
Layer_2
  10
489.56447
  20
347.7263
  0
VERTEX
  5
557
  8
Layer_2
  10
487.88393
  20
353.88589
  42
0.2901676
  0
VERTEX
  5
558
  8
Layer_2
  10
486.492
  20
355.05765
  0
VERTEX
  5
559
  8
Layer_2
  10
481.02264
  20
355.70148
  42
0.14160204
  0
VERTEX
  5
55a
  8
Layer_2
  10
480.52902
  20
355.6282
  0
SEQEND
  0
POLYLINE
  5
55c
  8
Layer_2
  62
173
  66
1
  10
0
  20
0
  30
0
  0
VERTEX
  5
55c
  8
Layer_2
  10
492.24783
  20
352.62131
  42
-0.19896265
  0
VERTEX
  5
55d
  8
Layer_2
  10
492.52608
  20
351.94955
  42
-0.28280116
  0
VERTEX
  5
55e
  8
Layer_2
  10
492.00471
  20
351.10175
  0
VERTEX
  5
55f
  8
Layer_2
  10
491.93962
  20
351.07187
  42
-0.28283171
  0
VERTEX
  5
560
  8
Layer_2
  10
490.95682
  20
351.2291
  0
VERTEX
  5
561
  8
Layer_2
  10
490.90433
  20
351.2778
  42
-0.2828695
  0
VERTEX
  5
562
  8
Layer_2
  10
490.67348
  20
352.24597
  0
VERTEX
  5
563
  8
Layer_2
  10
490.69839
  20
352.31311
  42
-0.039679681
  0
VERTEX
  5
564
  8
Layer_2
  10
490.76256
  20
352.44023
  42
-0.26298084
  0
VERTEX
  5
565
  8
Layer_2
  10
491.57608
  20
352.89957
  42
-0.1988878
  0
VERTEX
  5
566
  8
Layer_2
  10
492.24783
  20
352.62131
  0
SEQEND
  0
POLYLINE
  5
568
  8
Layer_2
  62
173
  66
1
  10
0
  20
0
  30
0
  0
VERTEX
  5
568
  8
Layer_2
  10
632.24503
  20
354.63434
  0
VERTEX
  5
569
  8
Layer_2
  10
636.7802
  20
350.14024
  0
VERTEX
  5
56a
  8
Layer_2
  10
637.479
  20
347.53224
  0
VERTEX
  5
56b
  8
Layer_2
  10
635.71286
  20
345.81667
  0
VERTEX
  5
56c
  8
Layer_2
  10
630.59344
  20
344.44493
  0
VERTEX
  5
56d
  8
Layer_2
  10
625.53595
  20
345.16032
  0
VERTEX
  5
56e
  8
Layer_2
  10
623.14517
  20
345.96912
  0
VERTEX
  5
56f
  8
Layer_2
  10
622.44635
  20
348.57712
  0
VERTEX
  5
570
  8
Layer_2
  10
625.00432
  20
352.46576
  42
-0.11514998
  0
VERTEX
  5
571
  8
Layer_2
  10
625.30927
  20
352.73529
  42
-0.016850237
  0
VERTEX
  5
572
  8
Layer_2
  10
625.39517
  20
352.77603
  0
VERTEX
  5
573
  8
Layer_2
  10
630.45369
  20
354.95313
  42
-0.2903878
  0
VERTEX
  5
574
  8
Layer_2
  10
632.24503
  20
354.63434
  0
SEQEND
  0
POLYLINE
  5
576
  8
Layer_2
  62
173
  66
1
  10
0
  20
0
  30
0
  0
VERTEX
  5
576
  8
Layer_2
  10
637.36067
  20
354.8035
  42
0.19897374
  0
VERTEX
  5
577
  8
Layer_2
  10
637.08243
  20
355.47525
  42
0.19699037
  0
VERTEX
  5
578
  8
Layer_2
  10
636.41066
  20
355.75351
  42
0.1088147
  0
VERTEX
  5
579
  8
Layer_2
  10
636.00288
  20
355.66154
  42
0.1857076
  0
VERTEX
  5
57a
  8
Layer_2
  10
635.53299
  20
355.16705
  0
VERTEX
  5
57b
  8
Layer_2
  10
635.50809
  20
355.09991
  42
0.28314137
  0
VERTEX
  5
57c
  8
Layer_2
  10
635.73892
  20
354.13174
  0
VERTEX
  5
57d
  8
Layer_2
  10
635.79141
  20
354.08304
  42
0.28260221
  0
VERTEX
  5
57e
  8
Layer_2
  10
636.77422
  20
353.92581
  42
0.30243124
  0
VERTEX
  5
57f
  8
Layer_2
  10
637.36067
  20
354.8035
  0
SEQEND
  0
POLYLINE
  5
581
  8
Layer_2
  62
173
  66
1
  10
0
  20
0
  30
0
  0
VERTEX
  5
581
  8
Layer_2
  10
633.86992
  20
284.81171
  42
-0.29026945
  0
VERTEX
  5
582
  8
Layer_2
  10
635.51768
  20
284.04016
  0
VERTEX
  5
583
  8
Layer_2
  10
638.7352
  20
278.52539
  0
VERTEX
  5
584
  8
Layer_2
  10
638.7352
  20
275.82539
  0
VERTEX
  5
585
  8
Layer_2
  10
636.58519
  20
274.6254
  0
VERTEX
  5
586
  8
Layer_2
  10
631.28519
  20
274.6254
  0
VERTEX
  5
587
  8
Layer_2
  10
626.58519
  20
276.6254
  0
VERTEX
  5
588
  8
Layer_2
  10
624.48518
  20
278.02539
  0
VERTEX
  5
589
  8
Layer_2
  10
624.48518
  20
280.7254
  0
VERTEX
  5
58a
  8
Layer_2
  10
627.96245
  20
283.81952
  42
-0.13212785
  0
VERTEX
  5
58b
  8
Layer_2
  10
628.38885
  20
284.01341
  0
VERTEX
  5
58c
  8
Layer_2
  10
628.42029
  20
284.01804
  0
VERTEX
  5
58d
  8
Layer_2
  10
633.86992
  20
284.81171
  0
SEQEND
  0
POLYLINE
  5
58f
  8
Layer_2
  62
173
  66
1
  10
0
  20
0
  30
0
  0
VERTEX
  5
58f
  8
Layer_2
  10
638.91344
  20
282.45364
  0
VERTEX
  5
590
  8
Layer_2
  10
638.96594
  20
282.40494
  42
0.28318929
  0
VERTEX
  5
591
  8
Layer_2
  10
639.94873
  20
282.24771
  42
0.30339599
  0
VERTEX
  5
592
  8
Layer_2
  10
640.53519
  20
283.1254
  42
0.19918809
  0
VERTEX
  5
593
  8
Layer_2
  10
640.25694
  20
283.79715
  42
0.19895068
  0
VERTEX
  5
594
  8
Layer_2
  10
639.58519
  20
284.07539
  0
VERTEX
  5
595
  8
Layer_2
  10
639.51363
  20
284.07271
  42
0.28299217
  0
VERTEX
  5
596
  8
Layer_2
  10
638.70749
  20
283.48895
  0
VERTEX
  5
597
  8
Layer_2
  10
638.68259
  20
283.42181
  42
0.28310054
  0
VERTEX
  5
598
  8
Layer_2
  10
638.91344
  20
282.45364
  0
SEQEND
  0
POLYLINE
  5
59a
  8
Layer_2
  62
173
  66
1
  10
0
  20
0
  30
0
  0
VERTEX
  5
59a
  8
Layer_2
  10
667.76222
  20
354.80896
  42
-0.29037049
  0
VERTEX
  5
59b
  8
Layer_2
  10
669.55356
  20
354.49017
  0
VERTEX
  5
59c
  8
Layer_2
  10
674.08875
  20
349.99608
  0
VERTEX
  5
59d
  8
Layer_2
  10
674.78755
  20
347.38808
  0
VERTEX
  5
59e
  8
Layer_2
  10
673.02141
  20
345.6725
  0
VERTEX
  5
59f
  8
Layer_2
  10
667.90198
  20
344.30075
  0
VERTEX
  5
5a0
  8
Layer_2
  10
662.8445
  20
345.01617
  0
VERTEX
  5
5a1
  8
Layer_2
  10
660.4537
  20
345.82495
  0
VERTEX
  5
5a2
  8
Layer_2
  10
659.7549
  20
348.43294
  0
VERTEX
  5
5a3
  8
Layer_2
  10
662.31287
  20
352.32161
  42
-0.133568
  0
VERTEX
  5
5a4
  8
Layer_2
  10
662.67455
  20
352.61926
  0
VERTEX
  5
5a5
  8
Layer_2
  10
662.70372
  20
352.63187
  0
VERTEX
  5
5a6
  8
Layer_2
  10
667.76222
  20
354.80896
  0
SEQEND
  0
POLYLINE
  5
5a8
  8
Layer_2
  62
173
  66
1
  10
0
  20
0
  30
0
  0
VERTEX
  5
5a8
  8
Layer_2
  10
674.6692
  20
354.65933
  42
0.005335926
  0
VERTEX
  5
5a9
  8
Layer_2
  10
674.66805
  20
354.70644
  42
0.18648663
  0
VERTEX
  5
5aa
  8
Layer_2
  10
674.39096
  20
355.33109
  0
VERTEX
  5
5ab
  8
Layer_2
  10
674.37407
  20
355.34755
  0
VERTEX
  5
5ac
  8
Layer_2
  10
674.35683
  20
355.36356
  0
VERTEX
  5
5ad
  8
Layer_2
  10
674.33922
  20
355.37912
  0
VERTEX
  5
5ae
  8
Layer_2
  10
674.32127
  20
355.3942
  42
0.0057371936
  0
VERTEX
  5
5af
  8
Layer_2
  10
674.28439
  20
355.42291
  42
0.16234308
  0
VERTEX
  5
5b0
  8
Layer_2
  10
673.71921
  20
355.60933
  42
0.097043835
  0
VERTEX
  5
5b1
  8
Layer_2
  10
673.375
  20
355.54482
  42
0.20534604
  0
VERTEX
  5
5b2
  8
Layer_2
  10
672.84152
  20
355.02289
  0
VERTEX
  5
5b3
  8
Layer_2
  10
672.81662
  20
354.95573
  42
0.28290145
  0
VERTEX
  5
5b4
  8
Layer_2
  10
673.04745
  20
353.98758
  0
VERTEX
  5
5b5
  8
Layer_2
  10
673.09996
  20
353.93887
  42
0.28279721
  0
VERTEX
  5
5b6
  8
Layer_2
  10
674.08275
  20
353.78165
  42
0.30292657
  0
VERTEX
  5
5b7
  8
Layer_2
  10
674.6692
  20
354.65933
  0
SEQEND
  0
POLYLINE
  5
5b9
  8
Layer_2
  62
173
  66
1
  10
0
  20
0
  30
0
  0
VERTEX
  5
5b9
  8
Layer_2
  10
525.18144
  20
353.98895
  0
VERTEX
  5
5ba
  8
Layer_2
  10
526.86197
  20
347.82935
  0
VERTEX
  5
5bb
  8
Layer_2
  10
526.16318
  20
345.22136
  0
VERTEX
  5
5bc
  8
Layer_2
  10
523.77583
  20
344.61871
  0
VERTEX
  5
5bd
  8
Layer_2
  10
518.65643
  20
345.99046
  0
VERTEX
  5
5be
  8
Layer_2
  10
514.63422
  20
349.13876
  0
VERTEX
  5
5bf
  8
Layer_2
  10
512.96811
  20
351.03458
  0
VERTEX
  5
5c0
  8
Layer_2
  10
513.66693
  20
353.64258
  0
VERTEX
  5
5c1
  8
Layer_2
  10
517.82652
  20
355.73128
  42
-0.14086944
  0
VERTEX
  5
5c2
  8
Layer_2
  10
518.32014
  20
355.80453
  0
VERTEX
  5
5c3
  8
Layer_2
  10
523.78949
  20
355.16071
  42
-0.2902242
  0
VERTEX
  5
5c4
  8
Layer_2
  10
525.18144
  20
353.98895
  0
SEQEND
  0
POLYLINE
  5
5c6
  8
Layer_2
  62
173
  66
1
  10
0
  20
0
  30
0
  0
VERTEX
  5
5c6
  8
Layer_2
  10
529.54532
  20
352.72438
  42
-0.19325125
  0
VERTEX
  5
5c7
  8
Layer_2
  10
529.82327
  20
352.07622
  0
VERTEX
  5
5c8
  8
Layer_2
  10
529.82358
  20
352.05263
  42
-0.28304838
  0
VERTEX
  5
5c9
  8
Layer_2
  10
529.30222
  20
351.2048
  0
VERTEX
  5
5ca
  8
Layer_2
  10
529.23712
  20
351.17494
  42
-0.28290235
  0
VERTEX
  5
5cb
  8
Layer_2
  10
528.25433
  20
351.33218
  0
VERTEX
  5
5cc
  8
Layer_2
  10
528.20183
  20
351.38087
  42
-0.28277915
  0
VERTEX
  5
5cd
  8
Layer_2
  10
527.97099
  20
352.34903
  0
VERTEX
  5
5ce
  8
Layer_2
  10
527.9959
  20
352.41617
  42
-0.092757836
  0
VERTEX
  5
5cf
  8
Layer_2
  10
528.18723
  20
352.7095
  42
-0.20451311
  0
VERTEX
  5
5d0
  8
Layer_2
  10
528.87357
  20
353.00262
  42
-0.18625513
  0
VERTEX
  5
5d1
  8
Layer_2
  10
529.5112
  20
352.75687
  0
VERTEX
  5
5d2
  8
Layer_2
  10
529.52844
  20
352.74084
  0
VERTEX
  5
5d3
  8
Layer_2
  10
529.54532
  20
352.72438
  0
SEQEND
  0
POLYLINE
  5
5d5
  8
Layer_2
  62
173
  66
1
  10
0
  20
0
  30
0
  0
VERTEX
  5
5d5
  8
Layer_2
  10
556.41171
  20
337.81514
  0
VERTEX
  5
5d6
  8
Layer_2
  10
550.94238
  20
338.45897
  42
0.14192602
  0
VERTEX
  5
5d7
  8
Layer_2
  10
550.44875
  20
338.38571
  0
VERTEX
  5
5d8
  8
Layer_2
  10
546.28917
  20
336.297
  0
VERTEX
  5
5d9
  8
Layer_2
  10
545.59035
  20
333.689
  0
VERTEX
  5
5da
  8
Layer_2
  10
547.25644
  20
331.79318
  0
VERTEX
  5
5db
  8
Layer_2
  10
551.27866
  20
328.6449
  0
VERTEX
  5
5dc
  8
Layer_2
  10
556.39807
  20
327.27315
  0
VERTEX
  5
5dd
  8
Layer_2
  10
558.78539
  20
327.87579
  0
VERTEX
  5
5de
  8
Layer_2
  10
559.48419
  20
330.4838
  0
VERTEX
  5
5df
  8
Layer_2
  10
557.80365
  20
336.64339
  42
0.29020137
  0
VERTEX
  5
5e0
  8
Layer_2
  10
556.41171
  20
337.81514
  0
SEQEND
  0
POLYLINE
  5
5e2
  8
Layer_2
  62
173
  66
1
  10
0
  20
0
  30
0
  0
VERTEX
  5
5e2
  8
Layer_2
  10
561.4958
  20
335.65706
  42
0.13065047
  0
VERTEX
  5
5e3
  8
Layer_2
  10
561.02675
  20
335.53319
  42
0.16673196
  0
VERTEX
  5
5e4
  8
Layer_2
  10
560.61812
  20
335.07062
  0
VERTEX
  5
5e5
  8
Layer_2
  10
560.5932
  20
335.00346
  42
0.28306651
  0
VERTEX
  5
5e6
  8
Layer_2
  10
560.82404
  20
334.03531
  0
VERTEX
  5
5e7
  8
Layer_2
  10
560.87656
  20
333.9866
  42
0.28330313
  0
VERTEX
  5
5e8
  8
Layer_2
  10
561.85934
  20
333.82938
  0
VERTEX
  5
5e9
  8
Layer_2
  10
561.92444
  20
333.85924
  42
0.28304473
  0
VERTEX
  5
5ea
  8
Layer_2
  10
562.4458
  20
334.70706
  42
0.19899797
  0
VERTEX
  5
5eb
  8
Layer_2
  10
562.16768
  20
335.37897
  42
0.19908318
  0
VERTEX
  5
5ec
  8
Layer_2
  10
561.4958
  20
335.65706
  0
SEQEND
  0
POLYLINE
  5
5ee
  8
Layer_2
  62
173
  66
1
  10
0
  20
0
  30
0
  0
VERTEX
  5
5ee
  8
Layer_2
  10
590.42336
  20
344.19934
  42
0.026218221
  0
VERTEX
  5
5ef
  8
Layer_2
  10
590.33743
  20
344.15862
  42
0.11547321
  0
VERTEX
  5
5f0
  8
Layer_2
  10
590.03249
  20
343.8891
  0
VERTEX
  5
5f1
  8
Layer_2
  10
587.47453
  20
340.00043
  0
VERTEX
  5
5f2
  8
Layer_2
  10
588.17334
  20
337.39243
  0
VERTEX
  5
5f3
  8
Layer_2
  10
590.56413
  20
336.58365
  0
VERTEX
  5
5f4
  8
Layer_2
  10
595.62161
  20
335.86826
  0
VERTEX
  5
5f5
  8
Layer_2
  10
600.74103
  20
337.23999
  0
VERTEX
  5
5f6
  8
Layer_2
  10
602.50719
  20
338.95557
  0
VERTEX
  5
5f7
  8
Layer_2
  10
601.80836
  20
341.56357
  0
VERTEX
  5
5f8
  8
Layer_2
  10
597.27319
  20
346.05765
  42
0.29018663
  0
VERTEX
  5
5f9
  8
Layer_2
  10
595.48186
  20
346.37646
  0
VERTEX
  5
5fa
  8
Layer_2
  10
590.42336
  20
344.19934
  0
SEQEND
  0
POLYLINE
  5
5fc
  8
Layer_2
  62
173
  66
1
  10
0
  20
0
  30
0
  0
VERTEX
  5
5fc
  8
Layer_2
  10
602.38884
  20
346.22682
  42
0.19922619
  0
VERTEX
  5
5fd
  8
Layer_2
  10
602.1106
  20
346.89856
  42
0.1987335
  0
VERTEX
  5
5fe
  8
Layer_2
  10
601.43884
  20
347.17682
  42
0.11144293
  0
VERTEX
  5
5ff
  8
Layer_2
  10
601.03105
  20
347.08487
  42
0.18553291
  0
VERTEX
  5
600
  8
Layer_2
  10
600.56116
  20
346.59036
  0
VERTEX
  5
601
  8
Layer_2
  10
600.53625
  20
346.52322
  42
0.28314489
  0
VERTEX
  5
602
  8
Layer_2
  10
600.76709
  20
345.55507
  0
VERTEX
  5
603
  8
Layer_2
  10
600.81958
  20
345.50636
  42
0.28285287
  0
VERTEX
  5
604
  8
Layer_2
  10
601.8024
  20
345.34914
  42
0.3033343
  0
VERTEX
  5
605
  8
Layer_2
  10
602.38884
  20
346.22682
  0
SEQEND
  0
POLYLINE
  5
607
  8
Layer_2
  62
173
  66
1
  10
0
  20
0
  30
0
  0
VERTEX
  5
607
  8
Layer_2
  10
650.88174
  20
354.62785
  0
VERTEX
  5
608
  8
Layer_2
  10
655.41692
  20
350.13374
  0
VERTEX
  5
609
  8
Layer_2
  10
656.11574
  20
347.52576
  0
VERTEX
  5
60a
  8
Layer_2
  10
654.34956
  20
345.81018
  0
VERTEX
  5
60b
  8
Layer_2
  10
649.23016
  20
344.43845
  0
VERTEX
  5
60c
  8
Layer_2
  10
644.17268
  20
345.15384
  0
VERTEX
  5
60d
  8
Layer_2
  10
641.78189
  20
345.96262
  0
VERTEX
  5
60e
  8
Layer_2
  10
641.08308
  20
348.57062
  0
VERTEX
  5
60f
  8
Layer_2
  10
643.64105
  20
352.45929
  42
-0.13500524
  0
VERTEX
  5
610
  8
Layer_2
  10
644.00273
  20
352.75696
  0
VERTEX
  5
611
  8
Layer_2
  10
644.03191
  20
352.76953
  0
VERTEX
  5
612
  8
Layer_2
  10
649.09042
  20
354.94664
  42
-0.29001872
  0
VERTEX
  5
613
  8
Layer_2
  10
650.88174
  20
354.62785
  0
SEQEND
  0
POLYLINE
  5
615
  8
Layer_2
  62
173
  66
1
  10
0
  20
0
  30
0
  0
VERTEX
  5
615
  8
Layer_2
  10
655.99739
  20
354.797
  42
0.19924354
  0
VERTEX
  5
616
  8
Layer_2
  10
655.71915
  20
355.46875
  42
0.19830567
  0
VERTEX
  5
617
  8
Layer_2
  10
655.04739
  20
355.74701
  42
0.091214603
  0
VERTEX
  5
618
  8
Layer_2
  10
654.70319
  20
355.6825
  42
0.20469951
  0
VERTEX
  5
619
  8
Layer_2
  10
654.16971
  20
355.16055
  0
VERTEX
  5
61a
  8
Layer_2
  10
654.14481
  20
355.09341
  42
0.28450028
  0
VERTEX
  5
61b
  8
Layer_2
  10
654.37564
  20
354.12526
  0
VERTEX
  5
61c
  8
Layer_2
  10
654.42815
  20
354.07655
  42
0.28164073
  0
VERTEX
  5
61d
  8
Layer_2
  10
655.41095
  20
353.91931
  42
0.30222691
  0
VERTEX
  5
61e
  8
Layer_2
  10
655.99739
  20
354.797
  0
SEQEND
  0
POLYLINE
  5
620
  8
Layer_2
  62
173
  66
1
  10
0
  20
0
  30
0
  0
VERTEX
  5
620
  8
Layer_2
  10
613.58426
  20
354.7305
  42
0.29001476
  0
VERTEX
  5
621
  8
Layer_2
  10
611.79292
  20
355.04929
  0
VERTEX
  5
622
  8
Layer_2
  10
606.73442
  20
352.87218
  42
0.031522178
  0
VERTEX
  5
623
  8
Layer_2
  10
606.62097
  20
352.81593
  42
0.10414313
  0
VERTEX
  5
624
  8
Layer_2
  10
606.34355
  20
352.56192
  0
VERTEX
  5
625
  8
Layer_2
  10
603.7856
  20
348.67326
  0
VERTEX
  5
626
  8
Layer_2
  10
604.48441
  20
346.06526
  0
VERTEX
  5
627
  8
Layer_2
  10
606.8752
  20
345.25647
  0
VERTEX
  5
628
  8
Layer_2
  10
611.93269
  20
344.54108
  0
VERTEX
  5
629
  8
Layer_2
  10
617.05209
  20
345.91283
  0
VERTEX
  5
62a
  8
Layer_2
  10
618.81825
  20
347.62839
  0
VERTEX
  5
62b
  8
Layer_2
  10
618.11945
  20
350.23639
  0
VERTEX
  5
62c
  8
Layer_2
  10
613.58426
  20
354.7305
  0
SEQEND
  0
POLYLINE
  5
62e
  8
Layer_2
  62
173
  66
1
  10
0
  20
0
  30
0
  0
VERTEX
  5
62e
  8
Layer_2
  10
618.69992
  20
354.89966
  0
VERTEX
  5
62f
  8
Layer_2
  10
618.69962
  20
354.92325
  0
VERTEX
  5
630
  8
Layer_2
  10
618.69875
  20
354.94675
  42
0.18664702
  0
VERTEX
  5
631
  8
Layer_2
  10
618.42166
  20
355.5714
  42
0.19741183
  0
VERTEX
  5
632
  8
Layer_2
  10
617.74991
  20
355.84964
  42
0.11256193
  0
VERTEX
  5
633
  8
Layer_2
  10
617.34212
  20
355.75769
  42
0.18611187
  0
VERTEX
  5
634
  8
Layer_2
  10
616.87222
  20
355.2632
  0
VERTEX
  5
635
  8
Layer_2
  10
616.84732
  20
355.19604
  42
0.28316832
  0
VERTEX
  5
636
  8
Layer_2
  10
617.07816
  20
354.22791
  0
VERTEX
  5
637
  8
Layer_2
  10
617.13066
  20
354.1792
  42
0.28337184
  0
VERTEX
  5
638
  8
Layer_2
  10
618.11346
  20
354.02196
  42
0.30313919
  0
VERTEX
  5
639
  8
Layer_2
  10
618.69992
  20
354.89966
  0
SEQEND
  0
POLYLINE
  5
63b
  8
Layer_2
  62
173
  66
1
  10
0
  20
0
  30
0
  0
VERTEX
  5
63b
  8
Layer_2
  10
499.6595
  20
355.70837
  0
VERTEX
  5
63c
  8
Layer_2
  10
505.12883
  20
355.06454
  42
-0.29018185
  0
VERTEX
  5
63d
  8
Layer_2
  10
506.52078
  20
353.89279
  0
VERTEX
  5
63e
  8
Layer_2
  10
508.20132
  20
347.73322
  0
VERTEX
  5
63f
  8
Layer_2
  10
507.5025
  20
345.12521
  0
VERTEX
  5
640
  8
Layer_2
  10
505.11517
  20
344.52255
  0
VERTEX
  5
641
  8
Layer_2
  10
499.99577
  20
345.8943
  0
VERTEX
  5
642
  8
Layer_2
  10
495.97356
  20
349.0426
  0
VERTEX
  5
643
  8
Layer_2
  10
494.30746
  20
350.93842
  0
VERTEX
  5
644
  8
Layer_2
  10
495.00629
  20
353.54642
  0
VERTEX
  5
645
  8
Layer_2
  10
499.16586
  20
355.63513
  42
-0.14157144
  0
VERTEX
  5
646
  8
Layer_2
  10
499.6595
  20
355.70837
  0
SEQEND
  0
POLYLINE
  5
648
  8
Layer_2
  62
173
  66
1
  10
0
  20
0
  30
0
  0
VERTEX
  5
648
  8
Layer_2
  10
510.88467
  20
352.62822
  42
-0.18596777
  0
VERTEX
  5
649
  8
Layer_2
  10
511.16174
  20
352.00357
  0
VERTEX
  5
64a
  8
Layer_2
  10
511.16263
  20
351.98006
  0
VERTEX
  5
64b
  8
Layer_2
  10
511.16292
  20
351.95647
  42
-0.28324417
  0
VERTEX
  5
64c
  8
Layer_2
  10
510.64156
  20
351.10864
  0
VERTEX
  5
64d
  8
Layer_2
  10
510.57646
  20
351.07878
  42
-0.28324349
  0
VERTEX
  5
64e
  8
Layer_2
  10
509.59366
  20
351.23602
  0
VERTEX
  5
64f
  8
Layer_2
  10
509.54117
  20
351.28473
  42
-0.2829021
  0
VERTEX
  5
650
  8
Layer_2
  10
509.31033
  20
352.25287
  0
VERTEX
  5
651
  8
Layer_2
  10
509.33524
  20
352.32001
  42
-0.074649996
  0
VERTEX
  5
652
  8
Layer_2
  10
509.48038
  20
352.5614
  42
-0.22374632
  0
VERTEX
  5
653
  8
Layer_2
  10
510.21292
  20
352.90646
  42
-0.19887723
  0
VERTEX
  5
654
  8
Layer_2
  10
510.88467
  20
352.62822
  0
SEQEND
  0
POLYLINE
  5
656
  8
Layer_2
  62
173
  66
1
  10
0
  20
0
  30
0
  0
VERTEX
  5
656
  8
Layer_2
  10
541.4926
  20
345.31612
  0
VERTEX
  5
657
  8
Layer_2
  10
543.17313
  20
339.15652
  0
VERTEX
  5
658
  8
Layer_2
  10
542.47433
  20
336.54852
  0
VERTEX
  5
659
  8
Layer_2
  10
540.08701
  20
335.94588
  0
VERTEX
  5
65a
  8
Layer_2
  10
534.96759
  20
337.31763
  0
VERTEX
  5
65b
  8
Layer_2
  10
530.94539
  20
340.46591
  0
VERTEX
  5
65c
  8
Layer_2
  10
529.27928
  20
342.36174
  0
VERTEX
  5
65d
  8
Layer_2
  10
529.97809
  20
344.96973
  0
VERTEX
  5
65e
  8
Layer_2
  10
534.1377
  20
347.05844
  42
-0.14032554
  0
VERTEX
  5
65f
  8
Layer_2
  10
534.63132
  20
347.1317
  0
VERTEX
  5
660
  8
Layer_2
  10
540.10066
  20
346.48787
  42
-0.29024038
  0
VERTEX
  5
661
  8
Layer_2
  10
541.4926
  20
345.31612
  0
SEQEND
  0
POLYLINE
  5
663
  8
Layer_2
  62
173
  66
1
  10
0
  20
0
  30
0
  0
VERTEX
  5
663
  8
Layer_2
  10
546.13474
  20
343.37979
  42
-0.28241144
  0
VERTEX
  5
664
  8
Layer_2
  10
545.61337
  20
342.53197
  0
VERTEX
  5
665
  8
Layer_2
  10
545.54829
  20
342.50211
  42
-0.28292212
  0
VERTEX
  5
666
  8
Layer_2
  10
544.56549
  20
342.65933
  0
VERTEX
  5
667
  8
Layer_2
  10
544.513
  20
342.70804
  42
-0.28253177
  0
VERTEX
  5
668
  8
Layer_2
  10
544.28214
  20
343.67619
  0
VERTEX
  5
669
  8
Layer_2
  10
544.30705
  20
343.74335
  42
-0.13051817
  0
VERTEX
  5
66a
  8
Layer_2
  10
544.601
  20
344.12929
  42
-0.16699493
  0
VERTEX
  5
66b
  8
Layer_2
  10
545.18475
  20
344.32979
  42
-0.19899797
  0
VERTEX
  5
66c
  8
Layer_2
  10
545.85666
  20
344.05167
  42
-0.19908318
  0
VERTEX
  5
66d
  8
Layer_2
  10
546.13474
  20
343.37979
  0
SEQEND
  0
POLYLINE
  5
66f
  8
Layer_2
  62
173
  66
1
  10
0
  20
0
  30
0
  0
VERTEX
  5
66f
  8
Layer_2
  10
561.87643
  20
301.36398
  0
VERTEX
  5
670
  8
Layer_2
  10
558.3992
  20
298.26987
  0
VERTEX
  5
671
  8
Layer_2
  10
558.3992
  20
295.56985
  0
VERTEX
  5
672
  8
Layer_2
  10
560.49921
  20
294.16986
  0
VERTEX
  5
673
  8
Layer_2
  10
565.19919
  20
292.16986
  0
VERTEX
  5
674
  8
Layer_2
  10
570.49919
  20
292.16986
  0
VERTEX
  5
675
  8
Layer_2
  10
572.6492
  20
293.36987
  0
VERTEX
  5
676
  8
Layer_2
  10
572.6492
  20
296.06985
  0
VERTEX
  5
677
  8
Layer_2
  10
569.4317
  20
301.58463
  42
0.29022976
  0
VERTEX
  5
678
  8
Layer_2
  10
567.78391
  20
302.35617
  0
VERTEX
  5
679
  8
Layer_2
  10
562.33429
  20
301.5625
  42
0.053681756
  0
VERTEX
  5
67a
  8
Layer_2
  10
562.14998
  20
301.51865
  42
0.086912245
  0
VERTEX
  5
67b
  8
Layer_2
  10
561.87643
  20
301.36398
  0
SEQEND
  0
POLYLINE
  5
67d
  8
Layer_2
  62
173
  66
1
  10
0
  20
0
  30
0
  0
VERTEX
  5
67d
  8
Layer_2
  10
574.44919
  20
300.66986
  42
0.19872317
  0
VERTEX
  5
67e
  8
Layer_2
  10
574.17094
  20
301.34161
  42
0.19858465
  0
VERTEX
  5
67f
  8
Layer_2
  10
573.49919
  20
301.61987
  42
0.075283816
  0
VERTEX
  5
680
  8
Layer_2
  10
573.22063
  20
301.57816
  42
0.22364995
  0
VERTEX
  5
681
  8
Layer_2
  10
572.62151
  20
301.03342
  0
VERTEX
  5
682
  8
Layer_2
  10
572.5966
  20
300.96626
  42
0.28282104
  0
VERTEX
  5
683
  8
Layer_2
  10
572.82744
  20
299.99811
  0
VERTEX
  5
684
  8
Layer_2
  10
572.87994
  20
299.9494
  42
0.28279632
  0
VERTEX
  5
685
  8
Layer_2
  10
573.86275
  20
299.79218
  42
0.30348854
  0
VERTEX
  5
686
  8
Layer_2
  10
574.44919
  20
300.66986
  0
SEQEND
  0
POLYLINE
  5
688
  8
Layer_2
  62
173
  66
1
  10
0
  20
0
  30
0
  0
VERTEX
  5
688
  8
Layer_2
  10
558.78391
  20
269.35617
  0
VERTEX
  5
689
  8
Layer_2
  10
553.3343
  20
268.5625
  0
VERTEX
  5
68a
  8
Layer_2
  10
553.30286
  20
268.55789
  42
0.13257295
  0
VERTEX
  5
68b
  8
Layer_2
  10
552.87646
  20
268.36398
  0
VERTEX
  5
68c
  8
Layer_2
  10
549.3992
  20
265.26985
  0
VERTEX
  5
68d
  8
Layer_2
  10
549.3992
  20
262.56985
  0
VERTEX
  5
68e
  8
Layer_2
  10
551.49921
  20
261.16986
  0
VERTEX
  5
68f
  8
Layer_2
  10
556.1992
  20
259.16986
  0
VERTEX
  5
690
  8
Layer_2
  10
561.49921
  20
259.16986
  0
VERTEX
  5
691
  8
Layer_2
  10
563.6492
  20
260.36986
  0
VERTEX
  5
692
  8
Layer_2
  10
563.6492
  20
263.06985
  0
VERTEX
  5
693
  8
Layer_2
  10
560.4317
  20
268.58463
  42
0.28046282
  0
VERTEX
  5
694
  8
Layer_2
  10
558.84503
  20
269.36287
  0
VERTEX
  5
695
  8
Layer_2
  10
558.78391
  20
269.35617
  0
SEQEND
  0
POLYLINE
  5
697
  8
Layer_2
  62
173
  66
1
  10
0
  20
0
  30
0
  0
VERTEX
  5
697
  8
Layer_2
  10
563.82745
  20
266.99811
  0
VERTEX
  5
698
  8
Layer_2
  10
563.87994
  20
266.9494
  42
0.28290454
  0
VERTEX
  5
699
  8
Layer_2
  10
564.86275
  20
266.79218
  42
0.30339954
  0
VERTEX
  5
69a
  8
Layer_2
  10
565.44919
  20
267.66986
  42
0.19904279
  0
VERTEX
  5
69b
  8
Layer_2
  10
565.17094
  20
268.34161
  42
0.19902452
  0
VERTEX
  5
69c
  8
Layer_2
  10
564.49921
  20
268.61986
  0
VERTEX
  5
69d
  8
Layer_2
  10
564.42764
  20
268.61717
  42
0.28288416
  0
VERTEX
  5
69e
  8
Layer_2
  10
563.62151
  20
268.0334
  0
VERTEX
  5
69f
  8
Layer_2
  10
563.5966
  20
267.96626
  42
0.28281334
  0
VERTEX
  5
6a0
  8
Layer_2
  10
563.82745
  20
266.99811
  0
SEQEND
  0
POLYLINE
  5
6a2
  8
Layer_2
  62
173
  66
1
  10
0
  20
0
  30
0
  0
VERTEX
  5
6a2
  8
Layer_2
  10
580.96202
  20
337.38492
  42
0.29039275
  0
VERTEX
  5
6a3
  8
Layer_2
  10
579.1707
  20
337.70372
  0
VERTEX
  5
6a4
  8
Layer_2
  10
574.1122
  20
335.52661
  42
0.013401744
  0
VERTEX
  5
6a5
  8
Layer_2
  10
574.05438
  20
335.50044
  42
0.12343014
  0
VERTEX
  5
6a6
  8
Layer_2
  10
573.72133
  20
335.21637
  0
VERTEX
  5
6a7
  8
Layer_2
  10
571.16338
  20
331.3277
  0
VERTEX
  5
6a8
  8
Layer_2
  10
571.86218
  20
328.7197
  0
VERTEX
  5
6a9
  8
Layer_2
  10
574.25298
  20
327.91092
  0
VERTEX
  5
6aa
  8
Layer_2
  10
579.31047
  20
327.19553
  0
VERTEX
  5
6ab
  8
Layer_2
  10
584.42987
  20
328.56726
  0
VERTEX
  5
6ac
  8
Layer_2
  10
586.19603
  20
330.28284
  0
VERTEX
  5
6ad
  8
Layer_2
  10
585.49722
  20
332.89084
  0
VERTEX
  5
6ae
  8
Layer_2
  10
580.96202
  20
337.38492
  0
SEQEND
  0
POLYLINE
  5
6b0
  8
Layer_2
  62
173
  66
1
  10
0
  20
0
  30
0
  0
VERTEX
  5
6b0
  8
Layer_2
  10
586.07768
  20
337.55408
  42
0.19882508
  0
VERTEX
  5
6b1
  8
Layer_2
  10
585.79944
  20
338.22583
  0
VERTEX
  5
6b2
  8
Layer_2
  10
585.78255
  20
338.24231
  0
VERTEX
  5
6b3
  8
Layer_2
  10
585.7653
  20
338.25833
  42
0.18536465
  0
VERTEX
  5
6b4
  8
Layer_2
  10
585.12769
  20
338.50409
  42
0.1299187
  0
VERTEX
  5
6b5
  8
Layer_2
  10
584.65863
  20
338.38022
  42
0.16729615
  0
VERTEX
  5
6b6
  8
Layer_2
  10
584.25
  20
337.91763
  0
VERTEX
  5
6b7
  8
Layer_2
  10
584.2251
  20
337.85049
  42
0.28302795
  0
VERTEX
  5
6b8
  8
Layer_2
  10
584.45593
  20
336.88232
  0
VERTEX
  5
6b9
  8
Layer_2
  10
584.50844
  20
336.83362
  42
0.28295775
  0
VERTEX
  5
6ba
  8
Layer_2
  10
585.49124
  20
336.67639
  42
0.30289071
  0
VERTEX
  5
6bb
  8
Layer_2
  10
586.07768
  20
337.55408
  0
SEQEND
  0
POLYLINE
  5
6bd
  8
Layer_2
  62
173
  66
1
  10
0
  20
0
  30
0
  0
VERTEX
  5
6bd
  8
Layer_2
  10
517.13831
  20
364.09619
  42
-0.018288981
  0
VERTEX
  5
6be
  8
Layer_2
  10
517.15012
  20
364.08179
  42
-0.072999529
  0
VERTEX
  5
6bf
  8
Layer_2
  10
517.16415
  20
364.04788
  42
-0.019786038
  0
VERTEX
  5
6c0
  8
Layer_2
  10
517.16599
  20
364.02936
  0
VERTEX
  5
6c1
  8
Layer_2
  10
517.16571
  20
364.02225
  0
VERTEX
  5
6c2
  8
Layer_2
  10
517.16492
  20
364.01526
  0
VERTEX
  5
6c3
  8
Layer_2
  10
517.16364
  20
364.00838
  42
0.01160859
  0
VERTEX
  5
6c4
  8
Layer_2
  10
517.15958
  20
363.99512
  0
VERTEX
  5
6c5
  8
Layer_2
  10
517.15683
  20
363.98882
  42
0.0012794446
  0
VERTEX
  5
6c6
  8
Layer_2
  10
517.15005
  20
363.97687
  42
-0.011934794
  0
VERTEX
  5
6c7
  8
Layer_2
  10
517.13684
  20
363.96111
  42
-0.011033918
  0
VERTEX
  5
6c8
  8
Layer_2
  10
517.1203
  20
363.94846
  0
VERTEX
  5
6c9
  8
Layer_2
  10
517.11414
  20
363.94504
  0
VERTEX
  5
6ca
  8
Layer_2
  10
517.10767
  20
363.94208
  0
VERTEX
  5
6cb
  8
Layer_2
  10
517.10098
  20
363.93961
  0
VERTEX
  5
6cc
  8
Layer_2
  10
517.09421
  20
363.93765
  0
VERTEX
  5
6cd
  8
Layer_2
  10
517.08736
  20
363.93622
  42
-0.046909528
  0
VERTEX
  5
6ce
  8
Layer_2
  10
517.05984
  20
363.93561
  0
VERTEX
  5
6cf
  8
Layer_2
  10
517.05307
  20
363.93671
  0
VERTEX
  5
6d0
  8
Layer_2
  10
517.04639
  20
363.93828
  0
VERTEX
  5
6d1
  8
Layer_2
  10
517.03983
  20
363.94034
  0
VERTEX
  5
6d2
  8
Layer_2
  10
517.03343
  20
363.94289
  42
-0.045021116
  0
VERTEX
  5
6d3
  8
Layer_2
  10
517.00992
  20
363.95772
  0
VERTEX
  5
6d4
  8
Layer_2
  10
517.00468
  20
363.96255
  0
VERTEX
  5
6d5
  8
Layer_2
  10
516.99985
  20
363.96777
  42
-0.081406406
  0
VERTEX
  5
6d6
  8
Layer_2
  10
516.98041
  20
364.00426
  0
VERTEX
  5
6d7
  8
Layer_2
  10
516.97882
  20
364.01094
  0
VERTEX
  5
6d8
  8
Layer_2
  10
516.97772
  20
364.01772
  0
VERTEX
  5
6d9
  8
Layer_2
  10
516.97714
  20
364.02457
  0
VERTEX
  5
6da
  8
Layer_2
  10
516.97702
  20
364.03145
  0
VERTEX
  5
6db
  8
Layer_2
  10
516.97743
  20
364.03835
  0
VERTEX
  5
6dc
  8
Layer_2
  10
516.97835
  20
364.04523
  0
VERTEX
  5
6dd
  8
Layer_2
  10
516.97977
  20
364.05208
  0
VERTEX
  5
6de
  8
Layer_2
  10
516.98172
  20
364.05884
  0
VERTEX
  5
6df
  8
Layer_2
  10
516.98421
  20
364.06552
  42
-0.026929913
  0
VERTEX
  5
6e0
  8
Layer_2
  10
516.99059
  20
364.07817
  42
-0.014134411
  0
VERTEX
  5
6e1
  8
Layer_2
  10
516.99864
  20
364.08954
  42
-0.014679641
  0
VERTEX
  5
6e2
  8
Layer_2
  10
517.00818
  20
364.09949
  0
VERTEX
  5
6e3
  8
Layer_2
  10
517.01344
  20
364.10391
  42
-0.017517368
  0
VERTEX
  5
6e4
  8
Layer_2
  10
517.02484
  20
364.11154
  42
-0.016090108
  0
VERTEX
  5
6e5
  8
Layer_2
  10
517.03726
  20
364.11743
  42
-0.028670539
  0
VERTEX
  5
6e6
  8
Layer_2
  10
517.05737
  20
364.1228
  42
-0.018946868
  0
VERTEX
  5
6e7
  8
Layer_2
  10
517.0715
  20
364.12386
  42
-0.02215663
  0
VERTEX
  5
6e8
  8
Layer_2
  10
517.09003
  20
364.12204
  42
-0.017566999
  0
VERTEX
  5
6e9
  8
Layer_2
  10
517.10767
  20
364.11667
  42
-0.037856837
  0
VERTEX
  5
6ea
  8
Layer_2
  10
517.12393
  20
364.10799
  42
-0.022423693
  0
VERTEX
  5
6eb
  8
Layer_2
  10
517.13831
  20
364.09619
  0
SEQEND
  0
POLYLINE
  5
6ed
  8
Layer_2
  62
173
  66
1
  10
0
  20
0
  30
0
  0
VERTEX
  5
6ed
  8
Layer_2
  10
601.48323
  20
359.30963
  0
VERTEX
  5
6ee
  8
Layer_2
  10
601.48846
  20
359.30478
  42
0.041185606
  0
VERTEX
  5
6ef
  8
Layer_2
  10
601.51198
  20
359.28995
  0
VERTEX
  5
6f0
  8
Layer_2
  10
601.51839
  20
359.28741
  42
0.0037575293
  0
VERTEX
  5
6f1
  8
Layer_2
  10
601.53162
  20
359.28378
  0
VERTEX
  5
6f2
  8
Layer_2
  10
601.53839
  20
359.28268
  0
VERTEX
  5
6f3
  8
Layer_2
  10
601.54523
  20
359.28207
  0
VERTEX
  5
6f4
  8
Layer_2
  10
601.55212
  20
359.28198
  42
0.02412934
  0
VERTEX
  5
6f5
  8
Layer_2
  10
601.5659
  20
359.28329
  42
0.021386591
  0
VERTEX
  5
6f6
  8
Layer_2
  10
601.58621
  20
359.28915
  0
VERTEX
  5
6f7
  8
Layer_2
  10
601.59268
  20
359.29211
  0
VERTEX
  5
6f8
  8
Layer_2
  10
601.59885
  20
359.29553
  42
0.00045969176
  0
VERTEX
  5
6f9
  8
Layer_2
  10
601.61021
  20
359.30359
  42
0.0055442693
  0
VERTEX
  5
6fa
  8
Layer_2
  10
601.62018
  20
359.31313
  42
0.0065997061
  0
VERTEX
  5
6fb
  8
Layer_2
  10
601.62862
  20
359.32394
  0
VERTEX
  5
6fc
  8
Layer_2
  10
601.63222
  20
359.3298
  0
VERTEX
  5
6fd
  8
Layer_2
  10
601.63539
  20
359.33589
  0
VERTEX
  5
6fe
  8
Layer_2
  10
601.63812
  20
359.34221
  0
VERTEX
  5
6ff
  8
Layer_2
  10
601.64038
  20
359.34874
  0
VERTEX
  5
700
  8
Layer_2
  10
601.64218
  20
359.35547
  0
VERTEX
  5
701
  8
Layer_2
  10
601.64348
  20
359.36234
  0
VERTEX
  5
702
  8
Layer_2
  10
601.64427
  20
359.36932
  0
VERTEX
  5
703
  8
Layer_2
  10
601.64453
  20
359.37645
  0
VERTEX
  5
704
  8
Layer_2
  10
601.64407
  20
359.38579
  0
VERTEX
  5
705
  8
Layer_2
  10
601.6427
  20
359.39496
  0
VERTEX
  5
706
  8
Layer_2
  10
601.64046
  20
359.40393
  42
-0.0010478333
  0
VERTEX
  5
707
  8
Layer_2
  10
601.63341
  20
359.42093
  42
-0.00012756652
  0
VERTEX
  5
708
  8
Layer_2
  10
601.61685
  20
359.44327
  0
VERTEX
  5
709
  8
Layer_2
  10
601.60992
  20
359.44952
  0
VERTEX
  5
70a
  8
Layer_2
  10
601.60246
  20
359.45505
  0
VERTEX
  5
70b
  8
Layer_2
  10
601.59454
  20
359.45981
  0
VERTEX
  5
70c
  8
Layer_2
  10
601.5862
  20
359.46375
  42
0.069042848
  0
VERTEX
  5
70d
  8
Layer_2
  10
601.55005
  20
359.47095
  0
VERTEX
  5
70e
  8
Layer_2
  10
601.54292
  20
359.47067
  0
VERTEX
  5
70f
  8
Layer_2
  10
601.53592
  20
359.46988
  0
VERTEX
  5
710
  8
Layer_2
  10
601.52905
  20
359.46858
  0
VERTEX
  5
711
  8
Layer_2
  10
601.52234
  20
359.4668
  0
VERTEX
  5
712
  8
Layer_2
  10
601.51581
  20
359.46451
  0
VERTEX
  5
713
  8
Layer_2
  10
601.50949
  20
359.46179
  42
0.06645522
  0
VERTEX
  5
714
  8
Layer_2
  10
601.47719
  20
359.43661
  42
0.037154327
  0
VERTEX
  5
715
  8
Layer_2
  10
601.46274
  20
359.4126
  0
VERTEX
  5
716
  8
Layer_2
  10
601.46027
  20
359.40593
  0
VERTEX
  5
717
  8
Layer_2
  10
601.45831
  20
359.39915
  0
VERTEX
  5
718
  8
Layer_2
  10
601.45689
  20
359.3923
  0
VERTEX
  5
719
  8
Layer_2
  10
601.45598
  20
359.38542
  0
VERTEX
  5
71a
  8
Layer_2
  10
601.45558
  20
359.37852
  42
0.013306007
  0
VERTEX
  5
71b
  8
Layer_2
  10
601.45628
  20
359.36479
  0
VERTEX
  5
71c
  8
Layer_2
  10
601.45737
  20
359.35802
  0
VERTEX
  5
71d
  8
Layer_2
  10
601.45895
  20
359.35135
  0
VERTEX
  5
71e
  8
Layer_2
  10
601.46101
  20
359.34479
  0
VERTEX
  5
71f
  8
Layer_2
  10
601.46356
  20
359.33838
  0
VERTEX
  5
720
  8
Layer_2
  10
601.46657
  20
359.33215
  0
VERTEX
  5
721
  8
Layer_2
  10
601.47005
  20
359.32614
  0
VERTEX
  5
722
  8
Layer_2
  10
601.474
  20
359.32037
  0
VERTEX
  5
723
  8
Layer_2
  10
601.47839
  20
359.31485
  0
VERTEX
  5
724
  8
Layer_2
  10
601.48323
  20
359.30963
  0
SEQEND
  0
POLYLINE
  5
726
  8
Layer_3
  62
172
  66
1
  10
0
  20
0
  30
0
  0
VERTEX
  5
726
  8
Layer_3
  10
551.19417
  20
371.256
  0
VERTEX
  5
727
  8
Layer_3
  10
551.05017
  20
371.24001
  42
0.063904475
  0
VERTEX
  5
728
  8
Layer_3
  10
550.90617
  20
371.2
  42
0.25411776
  0
VERTEX
  5
729
  8
Layer_3
  10
549.87416
  20
370.15199
  0
VERTEX
  5
72a
  8
Layer_3
  10
545.93817
  20
355.43201
  42
-0.41273921
  0
VERTEX
  5
72b
  8
Layer_3
  10
544.70616
  20
354.728
  0
VERTEX
  5
72c
  8
Layer_3
  10
539.01016
  20
356.25601
  0
VERTEX
  5
72d
  8
Layer_3
  10
534.45816
  20
359.36801
  0
VERTEX
  5
72e
  8
Layer_3
  10
517.07417
  20
364.03201
  0
VERTEX
  5
72f
  8
Layer_3
  10
461.78616
  20
364.03201
  42
0.34025365
  0
VERTEX
  5
730
  8
Layer_3
  10
459.36217
  20
362.18399
  0
VERTEX
  5
731
  8
Layer_3
  10
442.94617
  20
300.82401
  42
0.41461522
  0
VERTEX
  5
732
  8
Layer_3
  10
444.71417
  20
297.76001
  0
VERTEX
  5
733
  8
Layer_3
  10
462.08217
  20
293.104
  0
VERTEX
  5
734
  8
Layer_3
  10
470.75417
  20
295.44
  0
VERTEX
  5
735
  8
Layer_3
  10
491.05817
  20
289.992
  42
-0.34342868
  0
VERTEX
  5
736
  8
Layer_3
  10
491.80217
  20
289.03201
  0
VERTEX
  5
737
  8
Layer_3
  10
491.80217
  20
274.504
  42
0.32361202
  0
VERTEX
  5
738
  8
Layer_3
  10
492.54617
  20
273.58401
  0
VERTEX
  5
739
  8
Layer_3
  10
544.95416
  20
259.504
  0
VERTEX
  5
73a
  8
Layer_3
  10
550.00217
  20
258.73599
  0
VERTEX
  5
73b
  8
Layer_3
  10
586.00217
  20
258.73599
  0
VERTEX
  5
73c
  8
Layer_3
  10
591.05016
  20
259.504
  0
VERTEX
  5
73d
  8
Layer_3
  10
643.45817
  20
273.58401
  42
0.33698999
  0
VERTEX
  5
73e
  8
Layer_3
  10
644.20217
  20
274.552
  0
VERTEX
  5
73f
  8
Layer_3
  10
644.20217
  20
289.03201
  42
-0.33196504
  0
VERTEX
  5
740
  8
Layer_3
  10
644.90617
  20
289.98401
  0
VERTEX
  5
741
  8
Layer_3
  10
665.25017
  20
295.44
  0
VERTEX
  5
742
  8
Layer_3
  10
673.92217
  20
293.112
  0
VERTEX
  5
743
  8
Layer_3
  10
691.29017
  20
297.76001
  42
0.19901508
  0
VERTEX
  5
744
  8
Layer_3
  10
692.80901
  20
298.92569
  42
0.19900567
  0
VERTEX
  5
745
  8
Layer_3
  10
693.05817
  20
300.82401
  0
VERTEX
  5
746
  8
Layer_3
  10
676.64217
  20
362.18399
  42
0.33993326
  0
VERTEX
  5
747
  8
Layer_3
  10
674.21817
  20
364.03201
  0
VERTEX
  5
748
  8
Layer_3
  10
618.93017
  20
364.03201
  0
VERTEX
  5
749
  8
Layer_3
  10
598.71416
  20
358.616
  0
VERTEX
  5
74a
  8
Layer_3
  10
592.21017
  20
360.35999
  0
VERTEX
  5
74b
  8
Layer_3
  10
591.93816
  20
359.328
  42
-0.39736899
  0
VERTEX
  5
74c
  8
Layer_3
  10
591.11417
  20
358.82401
  0
VERTEX
  5
74d
  8
Layer_3
  10
586.25017
  20
360.12799
  42
-0.40722471
  0
VERTEX
  5
74e
  8
Layer_3
  10
585.75417
  20
360.98401
  0
VERTEX
  5
74f
  8
Layer_3
  10
586.02617
  20
362.008
  0
VERTEX
  5
750
  8
Layer_3
  10
582.96217
  20
362.832
  0
VERTEX
  5
751
  8
Layer_3
  10
582.62617
  20
361.59201
  42
-0.20094429
  0
VERTEX
  5
752
  8
Layer_3
  10
582.25652
  20
361.10483
  42
-0.20356814
  0
VERTEX
  5
753
  8
Layer_3
  10
581.65017
  20
361.03201
  0
VERTEX
  5
754
  8
Layer_3
  10
554.65817
  20
368.25601
  42
-0.39660621
  0
VERTEX
  5
755
  8
Layer_3
  10
554.09016
  20
369.20001
  0
VERTEX
  5
756
  8
Layer_3
  10
554.43417
  20
370.48
  0
VERTEX
  5
757
  8
Layer_3
  10
551.71417
  20
371.20799
  0
VERTEX
  5
758
  8
Layer_3
  10
551.64217
  20
371.23199
  0
VERTEX
  5
759
  8
Layer_3
  10
551.56216
  20
371.24001
  0
VERTEX
  5
75a
  8
Layer_3
  10
551.49017
  20
371.256
  0
VERTEX
  5
75b
  8
Layer_3
  10
551.41817
  20
371.256
  0
VERTEX
  5
75c
  8
Layer_3
  10
551.33817
  20
371.26401
  0
VERTEX
  5
75d
  8
Layer_3
  10
551.19417
  20
371.256
  0
SEQEND
  0
ENDSEC
  0
EOF
