  0
SECTION
  2
HEADER
  9
$ACADVER
  1
AC1009
  0
ENDSEC
  0
SECTION
  2
ENTITIES
  0
POLYLINE
  5
90
  8
Layer_1
  62
206
  66
1
  10
0
  20
0
  30
0
  0
VERTEX
  5
90
  8
Layer_1
  10
691.19956
  20
180.72879
  0
VERTEX
  5
91
  8
Layer_1
  10
674.7777
  20
242.08643
  42
0.33974055
  0
VERTEX
  5
92
  8
Layer_1
  10
672.36085
  20
243.93936
  0
VERTEX
  5
93
  8
Layer_1
  10
617.0727
  20
243.93439
  0
VERTEX
  5
94
  8
Layer_1
  10
599.68616
  20
239.27573
  0
VERTEX
  5
95
  8
Layer_1
  10
595.13579
  20
236.16003
  0
VERTEX
  5
96
  8
Layer_1
  10
589.43394
  20
234.6322
  0
VERTEX
  5
97
  8
Layer_1
  10
589.3839
  20
234.62018
  0
VERTEX
  5
98
  8
Layer_1
  10
589.33386
  20
234.61075
  0
VERTEX
  5
99
  8
Layer_1
  10
589.28387
  20
234.60394
  0
VERTEX
  5
9a
  8
Layer_1
  10
589.23403
  20
234.59967
  0
VERTEX
  5
9b
  8
Layer_1
  10
589.18441
  20
234.59796
  0
VERTEX
  5
9c
  8
Layer_1
  10
589.13509
  20
234.59866
  0
VERTEX
  5
9d
  8
Layer_1
  10
589.08615
  20
234.60181
  0
VERTEX
  5
9e
  8
Layer_1
  10
589.03766
  20
234.60736
  0
VERTEX
  5
9f
  8
Layer_1
  10
588.98968
  20
234.61523
  0
VERTEX
  5
a0
  8
Layer_1
  10
588.94233
  20
234.62537
  0
VERTEX
  5
a1
  8
Layer_1
  10
588.89565
  20
234.63782
  0
VERTEX
  5
a2
  8
Layer_1
  10
588.84973
  20
234.6524
  0
VERTEX
  5
a3
  8
Layer_1
  10
588.80465
  20
234.66919
  0
VERTEX
  5
a4
  8
Layer_1
  10
588.76048
  20
234.68808
  0
VERTEX
  5
a5
  8
Layer_1
  10
588.7173
  20
234.70901
  0
VERTEX
  5
a6
  8
Layer_1
  10
588.67518
  20
234.73199
  0
VERTEX
  5
a7
  8
Layer_1
  10
588.63422
  20
234.75696
  0
VERTEX
  5
a8
  8
Layer_1
  10
588.59447
  20
234.78387
  0
VERTEX
  5
a9
  8
Layer_1
  10
588.55602
  20
234.81268
  0
VERTEX
  5
aa
  8
Layer_1
  10
588.51894
  20
234.84332
  0
VERTEX
  5
ab
  8
Layer_1
  10
588.48332
  20
234.87573
  0
VERTEX
  5
ac
  8
Layer_1
  10
588.44923
  20
234.90994
  0
VERTEX
  5
ad
  8
Layer_1
  10
588.41674
  20
234.94589
  0
VERTEX
  5
ae
  8
Layer_1
  10
588.38594
  20
234.98346
  0
VERTEX
  5
af
  8
Layer_1
  10
588.3569
  20
235.02271
  0
VERTEX
  5
b0
  8
Layer_1
  10
588.32969
  20
235.06351
  0
VERTEX
  5
b1
  8
Layer_1
  10
588.30439
  20
235.10583
  0
VERTEX
  5
b2
  8
Layer_1
  10
588.28109
  20
235.14969
  0
VERTEX
  5
b3
  8
Layer_1
  10
588.25984
  20
235.19495
  0
VERTEX
  5
b4
  8
Layer_1
  10
588.24075
  20
235.24167
  0
VERTEX
  5
b5
  8
Layer_1
  10
588.22389
  20
235.2897
  0
VERTEX
  5
b6
  8
Layer_1
  10
588.2093
  20
235.33908
  0
VERTEX
  5
b7
  8
Layer_1
  10
584.26613
  20
250.05548
  0
VERTEX
  5
b8
  8
Layer_1
  10
584.24426
  20
250.12953
  0
VERTEX
  5
b9
  8
Layer_1
  10
584.21896
  20
250.20161
  0
VERTEX
  5
ba
  8
Layer_1
  10
584.19032
  20
250.27165
  0
VERTEX
  5
bb
  8
Layer_1
  10
584.15844
  20
250.33957
  0
VERTEX
  5
bc
  8
Layer_1
  10
584.12349
  20
250.40535
  0
VERTEX
  5
bd
  8
Layer_1
  10
584.08554
  20
250.46887
  0
VERTEX
  5
be
  8
Layer_1
  10
584.04472
  20
250.53009
  0
VERTEX
  5
bf
  8
Layer_1
  10
584.00114
  20
250.58894
  0
VERTEX
  5
c0
  8
Layer_1
  10
583.95493
  20
250.64536
  0
VERTEX
  5
c1
  8
Layer_1
  10
583.9062
  20
250.69923
  0
VERTEX
  5
c2
  8
Layer_1
  10
583.85505
  20
250.75056
  0
VERTEX
  5
c3
  8
Layer_1
  10
583.80161
  20
250.79926
  0
VERTEX
  5
c4
  8
Layer_1
  10
583.74599
  20
250.84525
  0
VERTEX
  5
c5
  8
Layer_1
  10
583.68831
  20
250.88846
  0
VERTEX
  5
c6
  8
Layer_1
  10
583.62868
  20
250.92883
  0
VERTEX
  5
c7
  8
Layer_1
  10
583.56722
  20
250.96628
  0
VERTEX
  5
c8
  8
Layer_1
  10
583.50405
  20
251.00076
  0
VERTEX
  5
c9
  8
Layer_1
  10
583.43927
  20
251.03223
  0
VERTEX
  5
ca
  8
Layer_1
  10
583.37302
  20
251.06058
  0
VERTEX
  5
cb
  8
Layer_1
  10
583.30537
  20
251.08574
  0
VERTEX
  5
cc
  8
Layer_1
  10
583.23649
  20
251.10767
  0
VERTEX
  5
cd
  8
Layer_1
  10
583.16646
  20
251.12631
  0
VERTEX
  5
ce
  8
Layer_1
  10
583.09542
  20
251.14157
  0
VERTEX
  5
cf
  8
Layer_1
  10
583.02347
  20
251.15338
  0
VERTEX
  5
d0
  8
Layer_1
  10
582.95071
  20
251.16168
  0
VERTEX
  5
d1
  8
Layer_1
  10
582.8773
  20
251.16644
  0
VERTEX
  5
d2
  8
Layer_1
  10
582.8033
  20
251.16753
  0
VERTEX
  5
d3
  8
Layer_1
  10
582.72887
  20
251.16492
  0
VERTEX
  5
d4
  8
Layer_1
  10
582.6541
  20
251.15854
  0
VERTEX
  5
d5
  8
Layer_1
  10
582.57912
  20
251.14832
  0
VERTEX
  5
d6
  8
Layer_1
  10
582.50404
  20
251.1342
  0
VERTEX
  5
d7
  8
Layer_1
  10
582.42899
  20
251.11609
  0
VERTEX
  5
d8
  8
Layer_1
  10
535.42648
  20
238.52237
  0
VERTEX
  5
d9
  8
Layer_1
  10
515.21054
  20
243.93463
  0
VERTEX
  5
da
  8
Layer_1
  10
459.92233
  20
243.9397
  42
0.33981495
  0
VERTEX
  5
db
  8
Layer_1
  10
457.50549
  20
242.08673
  0
VERTEX
  5
dc
  8
Layer_1
  10
441.08362
  20
180.7291
  42
0.19897949
  0
VERTEX
  5
dd
  8
Layer_1
  10
441.33337
  20
178.83203
  42
0.19879421
  0
VERTEX
  5
de
  8
Layer_1
  10
442.85138
  20
177.66724
  0
VERTEX
  5
df
  8
Layer_1
  10
460.22258
  20
173.01337
  0
VERTEX
  5
e0
  8
Layer_1
  10
468.89005
  20
175.34314
  0
VERTEX
  5
e1
  8
Layer_1
  10
489.20045
  20
169.90045
  0
VERTEX
  5
e2
  8
Layer_1
  10
489.24103
  20
169.8887
  42
-0.3273991
  0
VERTEX
  5
e3
  8
Layer_1
  10
489.94164
  20
168.93533
  0
VERTEX
  5
e4
  8
Layer_1
  10
489.94176
  20
154.45554
  42
0.33948919
  0
VERTEX
  5
e5
  8
Layer_1
  10
490.68263
  20
153.48965
  0
VERTEX
  5
e6
  8
Layer_1
  10
543.09616
  20
139.41177
  0
VERTEX
  5
e7
  8
Layer_1
  10
548.14153
  20
138.64307
  0
VERTEX
  5
e8
  8
Layer_1
  10
584.14156
  20
138.6431
  0
VERTEX
  5
e9
  8
Layer_1
  10
589.18693
  20
139.4118
  0
VERTEX
  5
ea
  8
Layer_1
  10
641.60044
  20
153.48972
  42
0.32766125
  0
VERTEX
  5
eb
  8
Layer_1
  10
642.34042
  20
154.4133
  0
VERTEX
  5
ec
  8
Layer_1
  10
642.34131
  20
154.45557
  0
VERTEX
  5
ed
  8
Layer_1
  10
642.34152
  20
168.93506
  42
-0.3392702
  0
VERTEX
  5
ee
  8
Layer_1
  10
643.08269
  20
169.90018
  0
VERTEX
  5
ef
  8
Layer_1
  10
663.39308
  20
175.34286
  0
VERTEX
  5
f0
  8
Layer_1
  10
672.06056
  20
173.01309
  0
VERTEX
  5
f1
  8
Layer_1
  10
689.4318
  20
177.66693
  42
0.1860556
  0
VERTEX
  5
f2
  8
Layer_1
  10
690.88516
  20
178.72592
  0
VERTEX
  5
f3
  8
Layer_1
  10
690.9498
  20
178.83176
  42
0.14809809
  0
VERTEX
  5
f4
  8
Layer_1
  10
691.27952
  20
180.24295
  42
0.049305574
  0
VERTEX
  5
f5
  8
Layer_1
  10
691.19956
  20
180.72879
  0
SEQEND
  0
CIRCLE
  5
f7
  8
Layer_0
  62
0
  10
660.28778
  20
222.70801
  30
0
  40
1.0999939
  0
CIRCLE
  5
f7
  8
Layer_0
  62
0
  10
669.08759
  20
189.866
  30
0
  40
1.0999939
  0
CIRCLE
  5
f7
  8
Layer_0
  62
0
  10
604.94348
  20
218.776
  30
0
  40
1.0999939
  0
CIRCLE
  5
f7
  8
Layer_0
  62
0
  10
601.81067
  20
160.82901
  30
0
  40
1.0999939
  0
CIRCLE
  5
f7
  8
Layer_0
  62
0
  10
527.34302
  20
218.776
  30
0
  40
1.0999939
  0
CIRCLE
  5
f7
  8
Layer_0
  62
0
  10
530.47601
  20
160.82901
  30
0
  40
1.0999939
  0
CIRCLE
  5
f7
  8
Layer_0
  62
0
  10
463.18799
  20
189.82501
  30
0
  40
1.0999939
  0
CIRCLE
  5
f7
  8
Layer_0
  62
0
  10
471.98801
  20
222.66699
  30
0
  40
1.0999939
  0
CIRCLE
  5
f7
  8
Layer_0
  62
0
  10
577.565
  20
240.59601
  30
0
  40
1.0999939
  0
POLYLINE
  5
f7
  8
Layer_5
  62
30
  66
1
  10
0
  20
0
  30
0
  0
VERTEX
  5
f7
  8
Layer_5
  10
564.59273
  20
189.10571
  0
VERTEX
  5
f8
  8
Layer_5
  10
564.76378
  20
190.42801
  0
VERTEX
  5
f9
  8
Layer_5
  10
564.70457
  20
190.42801
  0
VERTEX
  5
fa
  8
Layer_5
  10
563.6322
  20
189.10571
  0
VERTEX
  5
fb
  8
Layer_5
  10
564.59273
  20
189.10571
  0
SEQEND
  0
POLYLINE
  5
fd
  8
Layer_5
  62
30
  66
1
  10
0
  20
0
  30
0
  0
VERTEX
  5
fd
  8
Layer_5
  10
569.03406
  20
192.8522
  0
VERTEX
  5
fe
  8
Layer_5
  10
568.39156
  20
193.30209
  0
VERTEX
  5
ff
  8
Layer_5
  10
567.68066
  20
193.63361
  0
VERTEX
  5
100
  8
Layer_5
  10
566.92297
  20
193.83661
  0
VERTEX
  5
101
  8
Layer_5
  10
566.14156
  20
193.905
  0
VERTEX
  5
102
  8
Layer_5
  10
565.36014
  20
193.83661
  0
VERTEX
  5
103
  8
Layer_5
  10
564.60246
  20
193.63361
  0
VERTEX
  5
104
  8
Layer_5
  10
563.89156
  20
193.30209
  0
VERTEX
  5
105
  8
Layer_5
  10
563.24901
  20
192.8522
  0
VERTEX
  5
106
  8
Layer_5
  10
562.69435
  20
192.29761
  0
VERTEX
  5
107
  8
Layer_5
  10
562.24445
  20
191.655
  0
VERTEX
  5
108
  8
Layer_5
  10
561.91293
  20
190.94409
  0
VERTEX
  5
109
  8
Layer_5
  10
561.70992
  20
190.1864
  0
VERTEX
  5
10a
  8
Layer_5
  10
561.64156
  20
189.405
  0
VERTEX
  5
10b
  8
Layer_5
  10
561.70992
  20
188.6236
  0
VERTEX
  5
10c
  8
Layer_5
  10
561.91293
  20
187.86591
  0
VERTEX
  5
10d
  8
Layer_5
  10
562.24445
  20
187.155
  0
VERTEX
  5
10e
  8
Layer_5
  10
562.69435
  20
186.51251
  0
VERTEX
  5
10f
  8
Layer_5
  10
563.24901
  20
185.95779
  0
VERTEX
  5
110
  8
Layer_5
  10
563.89156
  20
185.5079
  0
VERTEX
  5
111
  8
Layer_5
  10
564.60246
  20
185.17639
  0
VERTEX
  5
112
  8
Layer_5
  10
565.36014
  20
184.97339
  0
VERTEX
  5
113
  8
Layer_5
  10
566.14156
  20
184.905
  0
VERTEX
  5
114
  8
Layer_5
  10
566.92297
  20
184.97339
  0
VERTEX
  5
115
  8
Layer_5
  10
567.68066
  20
185.17639
  0
VERTEX
  5
116
  8
Layer_5
  10
568.39156
  20
185.5079
  0
VERTEX
  5
117
  8
Layer_5
  10
569.03406
  20
185.95779
  0
VERTEX
  5
118
  8
Layer_5
  10
569.58876
  20
186.51251
  0
VERTEX
  5
119
  8
Layer_5
  10
570.03867
  20
187.155
  0
VERTEX
  5
11a
  8
Layer_5
  10
570.37016
  20
187.86591
  0
VERTEX
  5
11b
  8
Layer_5
  10
570.57317
  20
188.6236
  0
VERTEX
  5
11c
  8
Layer_5
  10
570.64156
  20
189.405
  0
VERTEX
  5
11d
  8
Layer_5
  10
570.57317
  20
190.1864
  0
VERTEX
  5
11e
  8
Layer_5
  10
570.37016
  20
190.94409
  0
VERTEX
  5
11f
  8
Layer_5
  10
570.03867
  20
191.655
  0
VERTEX
  5
120
  8
Layer_5
  10
569.58876
  20
192.29761
  0
VERTEX
  5
121
  8
Layer_5
  10
569.03406
  20
192.8522
  0
SEQEND
  0
POLYLINE
  5
123
  8
Layer_5
  62
30
  66
1
  10
0
  20
0
  30
0
  0
VERTEX
  5
123
  8
Layer_5
  10
569.24727
  20
188.28079
  0
VERTEX
  5
124
  8
Layer_5
  10
569.21927
  20
188.4675
  0
VERTEX
  5
125
  8
Layer_5
  10
569.25056
  20
188.66241
  0
VERTEX
  5
126
  8
Layer_5
  10
569.34427
  20
188.8129
  0
VERTEX
  5
127
  8
Layer_5
  10
569.49236
  20
188.90912
  0
VERTEX
  5
128
  8
Layer_5
  10
569.68636
  20
188.94119
  0
VERTEX
  5
129
  8
Layer_5
  10
569.86736
  20
188.91241
  0
VERTEX
  5
12a
  8
Layer_5
  10
570.00217
  20
188.82599
  0
VERTEX
  5
12b
  8
Layer_5
  10
570.08606
  20
188.68869
  0
VERTEX
  5
12c
  8
Layer_5
  10
570.11406
  20
188.50702
  0
VERTEX
  5
12d
  8
Layer_5
  10
570.08276
  20
188.30719
  0
VERTEX
  5
12e
  8
Layer_5
  10
569.98906
  20
188.155
  0
VERTEX
  5
12f
  8
Layer_5
  10
569.84267
  20
188.05881
  0
VERTEX
  5
130
  8
Layer_5
  10
569.65356
  20
188.0267
  0
VERTEX
  5
131
  8
Layer_5
  10
569.46767
  20
188.05551
  0
VERTEX
  5
132
  8
Layer_5
  10
569.33116
  20
188.14182
  0
VERTEX
  5
133
  8
Layer_5
  10
569.24727
  20
188.28079
  0
SEQEND
  0
POLYLINE
  5
135
  8
Layer_5
  62
30
  66
1
  10
0
  20
0
  30
0
  0
VERTEX
  5
135
  8
Layer_5
  10
562.86246
  20
188.4346
  0
VERTEX
  5
136
  8
Layer_5
  10
562.81642
  20
188.50702
  0
VERTEX
  5
137
  8
Layer_5
  10
562.88222
  20
189.0596
  0
VERTEX
  5
138
  8
Layer_5
  10
564.77037
  20
191.39511
  0
VERTEX
  5
139
  8
Layer_5
  10
565.56639
  20
191.39511
  0
VERTEX
  5
13a
  8
Layer_5
  10
565.26381
  20
189.10571
  0
VERTEX
  5
13b
  8
Layer_5
  10
565.81641
  20
189.10571
  0
VERTEX
  5
13c
  8
Layer_5
  10
565.85591
  20
189.03329
  0
VERTEX
  5
13d
  8
Layer_5
  10
565.74402
  20
188.4346
  0
VERTEX
  5
13e
  8
Layer_5
  10
565.19801
  20
188.44781
  0
VERTEX
  5
13f
  8
Layer_5
  10
565.11905
  20
187.54651
  0
VERTEX
  5
140
  8
Layer_5
  10
565.05983
  20
187.48071
  0
VERTEX
  5
141
  8
Layer_5
  10
564.39536
  20
187.44119
  0
VERTEX
  5
142
  8
Layer_5
  10
564.3559
  20
187.4938
  0
VERTEX
  5
143
  8
Layer_5
  10
564.5006
  20
188.45441
  0
VERTEX
  5
144
  8
Layer_5
  10
563.42827
  20
188.45441
  0
VERTEX
  5
145
  8
Layer_5
  10
562.86246
  20
188.4346
  0
SEQEND
  0
POLYLINE
  5
147
  8
Layer_5
  62
30
  66
1
  10
0
  20
0
  30
0
  0
VERTEX
  5
147
  8
Layer_5
  10
566.62073
  20
190.3096
  0
VERTEX
  5
148
  8
Layer_5
  10
566.84932
  20
190.479
  0
VERTEX
  5
149
  8
Layer_5
  10
567.08786
  20
190.60559
  0
VERTEX
  5
14a
  8
Layer_5
  10
567.32297
  20
190.6846
  0
VERTEX
  5
14b
  8
Layer_5
  10
567.54176
  20
190.71091
  0
VERTEX
  5
14c
  8
Layer_5
  10
567.69226
  20
190.69281
  0
VERTEX
  5
14d
  8
Layer_5
  10
567.80167
  20
190.63849
  0
VERTEX
  5
14e
  8
Layer_5
  10
567.86826
  20
190.55301
  0
VERTEX
  5
14f
  8
Layer_5
  10
567.89046
  20
190.44119
  0
VERTEX
  5
150
  8
Layer_5
  10
567.84686
  20
190.271
  0
VERTEX
  5
151
  8
Layer_5
  10
567.71606
  20
190.07611
  0
VERTEX
  5
152
  8
Layer_5
  10
567.48666
  20
189.8302
  0
VERTEX
  5
153
  8
Layer_5
  10
567.14706
  20
189.50702
  0
VERTEX
  5
154
  8
Layer_5
  10
566.17337
  20
188.6123
  0
VERTEX
  5
155
  8
Layer_5
  10
566.10759
  20
188.0925
  0
VERTEX
  5
156
  8
Layer_5
  10
566.14703
  20
188.0596
  0
VERTEX
  5
157
  8
Layer_5
  10
566.39047
  20
188.07281
  0
VERTEX
  5
158
  8
Layer_5
  10
567.88387
  20
188.07281
  0
VERTEX
  5
159
  8
Layer_5
  10
568.66676
  20
188.03329
  0
VERTEX
  5
15a
  8
Layer_5
  10
568.85097
  20
188.72409
  0
VERTEX
  5
15b
  8
Layer_5
  10
568.81146
  20
188.7767
  0
VERTEX
  5
15c
  8
Layer_5
  10
568.21286
  20
188.72409
  0
VERTEX
  5
15d
  8
Layer_5
  10
567.31805
  20
188.72409
  0
VERTEX
  5
15e
  8
Layer_5
  10
567.30486
  20
188.75702
  0
VERTEX
  5
15f
  8
Layer_5
  10
567.80496
  20
189.2702
  0
VERTEX
  5
160
  8
Layer_5
  10
568.26216
  20
189.74789
  0
VERTEX
  5
161
  8
Layer_5
  10
568.55486
  20
190.10242
  0
VERTEX
  5
162
  8
Layer_5
  10
568.71286
  20
190.3877
  0
VERTEX
  5
163
  8
Layer_5
  10
568.76546
  20
190.65829
  0
VERTEX
  5
164
  8
Layer_5
  10
568.69556
  20
190.97742
  0
VERTEX
  5
165
  8
Layer_5
  10
568.48586
  20
191.224
  0
VERTEX
  5
166
  8
Layer_5
  10
568.16595
  20
191.38202
  0
VERTEX
  5
167
  8
Layer_5
  10
567.76546
  20
191.4346
  0
VERTEX
  5
168
  8
Layer_5
  10
567.13556
  20
191.31952
  0
VERTEX
  5
169
  8
Layer_5
  10
566.46944
  20
190.97409
  0
VERTEX
  5
16a
  8
Layer_5
  10
566.52205
  20
190.3096
  0
VERTEX
  5
16b
  8
Layer_5
  10
566.62073
  20
190.3096
  0
SEQEND
  0
ENDSEC
  0
EOF
